<svg width="279" height="61" viewBox="0 0 279 61" fill="none" xmlns="http://www.w3.org/2000/svg">
<path d="M19.5296 23.2079L23.5206 0.0429688L21.3921 28.9223L14.1019 35.6198L7.76953 60.1979L11.2018 39.8442L10.8293 28.3846L19.5296 23.2079Z" fill="black"/>
<path d="M18.7842 11.9346L23.467 0.0449219L18.7842 16.1743V22.2574L5.77363 30.5372L7.58287 59.2628L0 18.1713L18.7842 11.9346Z" fill="black"/>
<path d="M15.8315 41.8181L8.62109 58.3929L17.5609 40.3587L22.9886 35.2281V29.5137L15.8315 35.4585V41.8181Z" fill="black"/>
<path d="M31.6645 18.5371L24.3477 23.6524V31.6711L31.3186 24.9121L31.6645 18.5371Z" fill="black"/>
<path d="M27.6182 13.9621L23.707 0.152344L29.3742 12.9483L32.7533 10.9974L32.5138 16.5121L27.3787 20.46L27.6182 13.9621Z" fill="black"/>
<path d="M30.2247 7.51172L23.8125 0L30.7568 5.39182L34.8276 3.99392L34.4019 9.03242L30.2247 11.4442V7.51172Z" fill="black"/>
<path d="M71.4595 16.6355H64.8154L57.0014 29.6312L49.1873 16.6355H42L53.3242 35.4396V45.8861H60.0935V35.5231L71.4595 16.6355ZM80.1656 23.0707C76.5722 23.0707 72.9367 24.0316 70.4713 25.7867L72.8112 30.3415C74.441 29.0461 76.9064 28.2522 79.2882 28.2522C82.7983 28.2522 84.4698 29.8819 84.4698 32.6814H79.2882C72.4351 32.6814 69.6355 35.4396 69.6355 39.4091C69.6355 43.2953 72.7695 46.2203 78.0347 46.2203C81.3358 46.2203 83.6757 45.1339 84.8876 43.0863V45.8861H90.9885V33.0575C90.9885 26.2463 87.0187 23.0707 80.1656 23.0707ZM79.6643 41.8328C77.3661 41.8328 75.9871 40.7464 75.9871 39.1168C75.9871 37.6124 76.9481 36.4841 79.9985 36.4841H84.4698V38.7823C83.7176 40.8299 81.8371 41.8328 79.6643 41.8328ZM113.645 45.8861H121.542L111.346 32.9323L120.707 23.4049H112.934L103.407 32.4308V14.8805H96.8881V45.8861H103.407V40.1613L106.541 37.0692L113.645 45.8861ZM127.57 20.2709C129.994 20.2709 131.623 18.6831 131.623 16.5101C131.623 14.5044 129.994 13 127.57 13C125.146 13 123.517 14.5879 123.517 16.6355C123.517 18.6831 125.146 20.2709 127.57 20.2709ZM124.311 45.8861H130.829V23.4049H124.311V45.8861ZM157.396 16.6355V28.1685H144.108V16.6355H137.339V45.8861H144.108V33.8933H157.396V45.8861H164.166V16.6355H157.396ZM181.324 46.2203C188.47 46.2203 193.651 41.415 193.651 34.6455C193.651 27.8762 188.47 23.0707 181.324 23.0707C174.178 23.0707 168.955 27.8762 168.955 34.6455C168.955 41.415 174.178 46.2203 181.324 46.2203ZM181.324 40.8716C178.066 40.8716 175.557 38.5317 175.557 34.6455C175.557 30.7593 178.066 28.4194 181.324 28.4194C184.585 28.4194 187.048 30.7593 187.048 34.6455C187.048 38.5317 184.585 40.8716 181.324 40.8716ZM211.672 23.0707C208.622 23.0707 205.991 24.1154 204.234 26.0376V23.4049H198.009V45.8861H204.528V34.7709C204.528 30.6341 206.783 28.7119 209.917 28.7119C212.802 28.7119 214.473 30.3832 214.473 34.0187V45.8861H220.992V33.0159C220.992 26.1628 216.979 23.0707 211.672 23.0707ZM240.563 23.0707C237.513 23.0707 234.882 24.1154 233.127 26.0376V23.4049H226.9V45.8861H233.419V34.7709C233.419 30.6341 235.675 28.7119 238.808 28.7119C241.693 28.7119 243.364 30.3832 243.364 34.0187V45.8861H249.883V33.0159C249.883 26.1628 245.871 23.0707 240.563 23.0707ZM278.057 34.729C278.057 27.5001 272.96 23.0707 266.357 23.0707C259.506 23.0707 254.366 27.9178 254.366 34.6455C254.366 41.3313 259.422 46.2203 267.193 46.2203C271.246 46.2203 274.38 44.9668 276.47 42.585L273.001 38.8242C271.456 40.2867 269.742 40.997 267.36 40.997C263.935 40.997 261.552 39.2839 260.925 36.4841H277.932C277.973 35.9409 278.057 35.2306 278.057 34.729ZM266.4 28.0014C269.324 28.0014 271.456 29.84 271.916 32.6814H260.842C261.301 29.7983 263.432 28.0014 266.4 28.0014Z" fill="black"/>
</svg>
