<svg width="25" height="24" viewBox="0 0 25 24" fill="none" xmlns="http://www.w3.org/2000/svg">
<path d="M14.5467 15.4385H9.44678" stroke="black" stroke-width="1.5" stroke-miterlimit="10" stroke-linecap="round" stroke-linejoin="round"/>
<path d="M11.9966 12.998V17.998" stroke="black" stroke-width="1.5" stroke-miterlimit="10" stroke-linecap="round" stroke-linejoin="round"/>
<path d="M12.9129 2.51814L12.8823 2.58814L9.92438 9.31814H7.01744C6.32385 9.31814 5.66087 9.45814 5.05908 9.70814L6.84404 5.52814L6.88484 5.42814L6.95624 5.26814C6.97664 5.20814 6.99704 5.14814 7.02764 5.09814C8.36381 2.06814 9.87338 1.37814 12.9129 2.51814Z" stroke="black" stroke-width="1.5" stroke-linecap="round" stroke-linejoin="round"/>
<path d="M18.4105 9.51807C17.9515 9.37807 17.4619 9.31807 16.9724 9.31807H9.92432L12.8823 2.58807L12.9129 2.51807C13.0658 2.56807 13.2086 2.63807 13.3616 2.69807L15.6158 3.62807C16.8704 4.13807 17.7475 4.66807 18.2779 5.30807C18.3799 5.42807 18.4615 5.53807 18.5329 5.66807C18.6247 5.80807 18.6961 5.94807 18.7369 6.09807C18.7777 6.18807 18.8083 6.27807 18.8287 6.35807C19.1041 7.19807 18.9409 8.22807 18.4105 9.51807Z" stroke="black" stroke-width="1.5" stroke-linecap="round" stroke-linejoin="round"/>
<path d="M21.9518 14.1984V16.1484C21.9518 16.3484 21.9416 16.5484 21.9314 16.7484C21.7376 20.2384 19.7486 21.9984 15.9747 21.9984H8.01887C7.77408 21.9984 7.52928 21.9784 7.29469 21.9484C4.05116 21.7384 2.3172 20.0384 2.103 16.8584C2.0724 16.6284 2.052 16.3884 2.052 16.1484V14.1984C2.052 12.1884 3.29637 10.4584 5.07114 9.70836C5.68312 9.45836 6.33591 9.31836 7.02949 9.31836H16.9845C17.4843 9.31836 17.9739 9.38836 18.4226 9.51836C20.4524 10.1284 21.9518 11.9884 21.9518 14.1984Z" stroke="black" stroke-width="1.5" stroke-linecap="round" stroke-linejoin="round"/>
<path d="M6.84413 5.52808L5.05917 9.70808C3.28441 10.4581 2.04004 12.1881 2.04004 14.1981V11.2681C2.04004 8.42808 4.10039 6.05808 6.84413 5.52808Z" stroke="black" stroke-width="1.5" stroke-linecap="round" stroke-linejoin="round"/>
<path d="M21.9486 11.2677V14.1977C21.9486 11.9977 20.4594 10.1277 18.4194 9.52766C18.9498 8.22766 19.1028 7.20766 18.8478 6.35766C18.8274 6.26766 18.7968 6.17766 18.756 6.09766C20.6532 7.05766 21.9486 9.02766 21.9486 11.2677Z" stroke="black" stroke-width="1.5" stroke-linecap="round" stroke-linejoin="round"/>
</svg>
