<svg width="25" height="24" viewBox="0 0 25 24" fill="none" xmlns="http://www.w3.org/2000/svg">
<path d="M21.9879 10.1147V14.7347C21.9879 19.3547 20.1398 21.2027 15.5198 21.2027H9.97582C5.35581 21.2027 3.50781 19.3547 3.50781 14.7347V9.19067C3.50781 4.57066 5.35581 2.72266 9.97582 2.72266H14.5958" stroke="black" stroke-width="1.386" stroke-linecap="round" stroke-linejoin="round"/>
<path d="M8.125 12.8867H13.669" stroke="black" stroke-width="1.386" stroke-linecap="round" stroke-linejoin="round"/>
<path d="M8.125 16.582H11.821" stroke="black" stroke-width="1.386" stroke-linecap="round" stroke-linejoin="round"/>
<path d="M22.7136 5.39977C22.7136 6.07458 22.5247 6.7134 22.1918 7.25324C22.0028 7.57715 21.7599 7.86507 21.481 8.09901C20.8511 8.66585 20.0234 8.99876 19.1146 8.99876C17.801 8.99876 16.6583 8.29695 16.0375 7.25324C15.7046 6.7134 15.5156 6.07458 15.5156 5.39977C15.5156 4.26609 16.0375 3.24938 16.8653 2.59256C17.4861 2.0977 18.2689 1.80078 19.1146 1.80078C21.1031 1.80078 22.7136 3.41133 22.7136 5.39977Z" stroke="black" stroke-width="1.34962" stroke-miterlimit="10" stroke-linecap="round" stroke-linejoin="round"/>
<path d="M20.4507 5.375H17.7695" stroke="black" stroke-width="1.34962" stroke-miterlimit="10" stroke-linecap="round" stroke-linejoin="round"/>
<path d="M19.1133 4.0625V6.75273" stroke="black" stroke-width="1.34962" stroke-miterlimit="10" stroke-linecap="round" stroke-linejoin="round"/>
</svg>
