<svg width="25" height="24" viewBox="0 0 25 24" fill="none" xmlns="http://www.w3.org/2000/svg">
<path d="M8.42578 7H15.9258" stroke="black" stroke-width="1.5" stroke-linecap="round" stroke-linejoin="round"/>
<path d="M9.42578 11H15.4258" stroke="black" stroke-width="1.5" stroke-linecap="round" stroke-linejoin="round"/>
<path d="M14.9385 18.8412H16.3091V22.0349C16.3091 22.5051 16.8946 22.7269 17.2051 22.372L20.5629 18.5573C20.8557 18.2247 20.6206 17.7057 20.177 17.7057H18.8064V14.512C18.8064 14.0418 18.2209 13.82 17.9104 14.1749L14.5526 17.9896C14.2643 18.3223 14.4994 18.8412 14.9385 18.8412Z" fill="black"/>
<path fill-rule="evenodd" clip-rule="evenodd" d="M21.6758 7.98885C21.24 8.32848 20.7307 8.57214 20.1758 8.6963V11.3C20.1758 11.7142 20.5116 12.05 20.9258 12.05C21.34 12.05 21.6758 11.7142 21.6758 11.3V7.98885ZM17.7677 1.32491C17.2844 1.27037 16.7626 1.25 16.2058 1.25H8.64577C6.75427 1.25 5.26672 1.48504 4.32058 2.49637C3.3911 3.48991 3.17578 5.03645 3.17578 7.04V18.3C3.17578 19.0254 3.2742 19.6678 3.48709 20.1898C3.70099 20.7143 4.05389 21.1671 4.58035 21.3938C5.1123 21.6229 5.68195 21.5614 6.20167 21.337C6.71104 21.1171 7.21327 20.7269 7.69604 20.2104L7.69765 20.2087L7.71153 20.1944C8.21464 19.6606 8.9162 19.7052 9.345 20.279L10.3552 21.6293C10.6034 21.9609 11.0734 22.0287 11.4051 21.7805C11.7367 21.5324 11.8045 21.0624 11.5563 20.7307L10.5465 19.381C9.55736 18.0579 7.76454 17.9599 6.62731 19.1578L6.62389 19.1613C6.61817 19.167 6.61255 19.1729 6.60702 19.1788C6.20741 19.6077 5.8663 19.848 5.6071 19.9599C5.35525 20.0686 5.22802 20.0396 5.17372 20.0162C5.11393 19.9904 4.9912 19.9057 4.87603 19.6233C4.75986 19.3385 4.67578 18.9046 4.67578 18.3V7.04C4.67578 5.01356 4.93046 4.0401 5.41597 3.52114C5.88483 3.01996 6.75727 2.75 8.64577 2.75H16.0676C16.2918 2.41102 16.5682 2.10939 16.8864 1.8569C17.1545 1.64319 17.4506 1.46359 17.7677 1.32491Z" fill="black"/>
<path d="M23.2158 4.895C23.2158 5.62531 23.0113 6.31667 22.651 6.90092C22.4466 7.25147 22.1836 7.56307 21.8818 7.81625C21.2001 8.42971 20.3043 8.79 19.3208 8.79C17.8991 8.79 16.6624 8.03047 15.9906 6.90092C15.6303 6.31667 15.4258 5.62531 15.4258 4.895C15.4258 3.66807 15.9906 2.56774 16.8864 1.8569C17.5583 1.32134 18.4055 1 19.3208 1C21.4728 1 23.2158 2.74301 23.2158 4.895Z" stroke="black" stroke-width="1.46063" stroke-miterlimit="10" stroke-linecap="round" stroke-linejoin="round"/>
<path d="M20.7651 4.875H17.8633" stroke="black" stroke-width="1.46063" stroke-miterlimit="10" stroke-linecap="round" stroke-linejoin="round"/>
<path d="M19.3164 3.45312V6.36464" stroke="black" stroke-width="1.46063" stroke-miterlimit="10" stroke-linecap="round" stroke-linejoin="round"/>
</svg>
