<svg width="25" height="24" viewBox="0 0 25 24" fill="none" xmlns="http://www.w3.org/2000/svg">
<path fill-rule="evenodd" clip-rule="evenodd" d="M15.6338 8C15.7076 8.17823 15.7943 8.34964 15.8926 8.51269C16.0582 8.78855 16.2584 9.04228 16.4878 9.26731L7.41705 18.3381C7.12416 18.631 6.64928 18.631 6.35639 18.3381C6.0635 18.0452 6.0635 17.5703 6.35639 17.2774L15.6338 8Z" fill="black"/>
<path d="M6.38672 6.25L17.8867 17.75" stroke="black" stroke-width="1.5" stroke-linecap="round" stroke-linejoin="round"/>
<path fill-rule="evenodd" clip-rule="evenodd" d="M10.1188 3.58033C11.2246 2.47453 13.0505 2.47156 14.1692 3.58139L14.17 3.58221L15.0453 4.4575C15.2853 4.0104 15.6137 3.61693 16.0102 3.3011L15.2288 2.51967L15.2269 2.51779C13.5255 0.828442 10.7521 0.825738 9.05812 2.51967L2.66811 8.90968L2.66622 8.91158C0.97688 10.613 0.974176 13.3864 2.66811 15.0803L9.05812 21.4703L9.06001 21.4722C10.7615 23.1616 13.5349 23.1643 15.2288 21.4703L21.6188 15.0803C23.3127 13.3864 23.31 10.613 21.6207 8.91157L21.6188 8.90968L21.3382 8.62907C21.2012 8.79901 21.0491 8.95689 20.883 9.09961C20.6684 9.28936 20.4326 9.4547 20.1794 9.59163L20.5563 9.96845L20.5573 9.96952C21.6669 11.0882 21.6639 12.914 20.5581 14.0197L14.1681 20.4097C13.0624 21.5154 11.2367 21.5185 10.118 20.4089L10.1169 20.4078L3.72877 14.0197C2.62299 12.9139 2.61999 11.088 3.72977 9.96934L3.73065 9.96845L10.1188 3.58033Z" fill="black"/>
<path d="M21.6367 6.25C21.6367 6.54611 21.5933 6.84223 21.5139 7.11667C21.4345 7.40556 21.319 7.67279 21.1672 7.92557C20.9939 8.21445 20.7772 8.47444 20.5245 8.69111C19.954 9.19664 19.21 9.49996 18.3867 9.49996C18.0184 9.49996 17.6717 9.44223 17.3467 9.3267C16.6101 9.08111 15.9962 8.57556 15.6061 7.92557C15.31 7.43445 15.1367 6.85666 15.1367 6.25C15.1367 5.22444 15.6061 4.30722 16.3572 3.71499C16.9134 3.26722 17.6211 3 18.3867 3C20.185 3 21.6367 4.45167 21.6367 6.25Z" stroke="black" stroke-width="1.08333" stroke-miterlimit="10" stroke-linecap="round" stroke-linejoin="round"/>
<path d="M18.4023 7.46376V5.03711" stroke="black" stroke-width="1.08333" stroke-miterlimit="10" stroke-linecap="round" stroke-linejoin="round"/>
<path d="M19.5869 6.25098H17.1602" stroke="black" stroke-width="1.08333" stroke-miterlimit="10" stroke-linecap="round" stroke-linejoin="round"/>
</svg>
