<svg width="25" height="24" viewBox="0 0 25 24" fill="none" xmlns="http://www.w3.org/2000/svg">
<path d="M2.49207 10.3995L3.47207 14.5795C4.31207 18.1895 5.97207 19.6495 9.09207 19.3495C9.59207 19.3095 10.1321 19.2195 10.7121 19.0795L12.3921 18.6795C16.5621 17.6895 17.8521 15.6295 16.8721 11.4495L15.8921 7.25948C15.6921 6.40948 15.4521 5.66948 15.1521 5.05948C13.9821 2.63948 11.9921 1.98948 8.65207 2.77948L6.98207 3.16948C2.79207 4.14948 1.51207 6.21948 2.49207 10.3995Z" stroke="black" stroke-width="1.5" stroke-linecap="round" stroke-linejoin="round"/>
<path d="M9.11719 19.29C9.73719 19.71 10.5172 20.06 11.4672 20.37L13.0472 20.89C17.0172 22.17 19.1072 21.1 20.3972 17.13L21.6772 13.18C22.9572 9.21 21.8972 7.11 17.9272 5.83L16.3472 5.31C15.9372 5.18 15.5472 5.07 15.1772 5C15.4772 5.61 15.7172 6.35 15.9172 7.2L16.8972 11.39C17.8772 15.57 16.5872 17.63 12.4172 18.62L10.7372 19.02C10.1572 19.16 9.61719 19.25 9.11719 19.29Z" stroke="black" stroke-width="1.5" stroke-linecap="round" stroke-linejoin="round"/>
<path d="M7.65625 11.8375L11.9444 10.6885" stroke="black" stroke-width="1.33185" stroke-linecap="round" stroke-linejoin="round"/>
<path d="M10.3756 13.4064L9.22656 9.11816" stroke="black" stroke-width="1.33185" stroke-linecap="round" stroke-linejoin="round"/>
</svg>
