<svg width="25" height="24" viewBox="0 0 25 24" fill="none" xmlns="http://www.w3.org/2000/svg">
<path d="M2.90625 10.7305C2.90625 11.583 3.54563 12.5674 4.32709 12.9125L11.2181 15.9775C11.7459 16.2109 12.3447 16.2109 12.8623 15.9775L19.7534 12.9125C20.5348 12.5674 21.1742 11.583 21.1742 10.7305" stroke="black" stroke-width="1.52233" stroke-linecap="round" stroke-linejoin="round"/>
<path d="M2.90625 15.8047C2.90625 16.7486 3.46444 17.6011 4.32709 17.9868L11.2181 21.0517C11.7459 21.2851 12.3447 21.2851 12.8623 21.0517L19.7534 17.9868C20.616 17.6011 21.1742 16.7486 21.1742 15.8047" stroke="black" stroke-width="1.52233" stroke-linecap="round" stroke-linejoin="round"/>
<path d="M20.8622 6.89595C20.8622 7.25091 20.8102 7.60589 20.715 7.93488C20.6198 8.28118 20.4813 8.60152 20.2994 8.90454C20.0917 9.25084 19.8319 9.56251 19.5289 9.82224C18.845 10.4282 17.9532 10.7919 16.9662 10.7919C16.5247 10.7919 16.1091 10.7227 15.7195 10.5842C14.8365 10.2898 14.1006 9.68373 13.633 8.90454C13.2781 8.31581 13.0703 7.62319 13.0703 6.89595C13.0703 5.66656 13.633 4.56703 14.5334 3.8571C15.2001 3.32033 16.0485 3 16.9662 3C19.122 3 20.8622 4.74019 20.8622 6.89595Z" stroke="black" stroke-width="1.29865" stroke-miterlimit="10" stroke-linecap="round" stroke-linejoin="round"/>
<path d="M16.9844 8.35037V5.44141" stroke="black" stroke-width="1.21875" stroke-miterlimit="10" stroke-linecap="round" stroke-linejoin="round"/>
<path d="M18.4012 6.89844H15.4922" stroke="black" stroke-width="1.21875" stroke-miterlimit="10" stroke-linecap="round" stroke-linejoin="round"/>
<path fill-rule="evenodd" clip-rule="evenodd" d="M11.8159 3.56336C11.4195 3.56336 11.0673 3.63268 10.8424 3.73335L10.8402 3.73436L4.5527 6.52645L4.55094 6.52723C3.7254 6.89144 3.66884 7.22095 3.66884 7.25596C3.66884 7.29096 3.7254 7.62048 4.55093 7.98468L4.5527 7.98546L10.8402 10.7776L10.8424 10.7786C11.0673 10.8792 11.4195 10.9485 11.8159 10.9485C12.2124 10.9485 12.5646 10.8792 12.7894 10.7786L12.7917 10.7776L14.382 10.0714C14.7985 10.5238 15.3023 10.8964 15.8683 11.1604L13.4427 12.2375L13.4416 12.238C12.9527 12.4567 12.3622 12.5471 11.8159 12.5471C11.2697 12.5471 10.6793 12.4567 10.1904 12.2381L10.1892 12.2375L3.90571 9.4472C2.91995 9.0121 2.07031 8.28102 2.07031 7.25596C2.07031 6.23092 2.91906 5.50022 3.90479 5.06511L3.90571 5.06471L10.1892 2.2744L10.1904 2.27388C10.6793 2.05523 11.2697 1.96484 11.8159 1.96484C12.3622 1.96484 12.9525 2.05522 13.4415 2.27385L13.4427 2.2744L15.033 2.98062C14.9905 3.01262 14.9484 3.04532 14.907 3.0787C14.5018 3.3982 14.1521 3.7818 13.8715 4.21388L12.7917 3.73436L12.7894 3.73335C12.5646 3.63268 12.2124 3.56336 11.8159 3.56336Z" fill="black"/>
</svg>
