<svg width="25" height="24" viewBox="0 0 25 24" fill="none" xmlns="http://www.w3.org/2000/svg">
<g clip-path="url(#clip0_1946_10968)">
<path d="M10.6016 11.9989V10.7989C10.6016 9.25891 11.6916 8.62895 13.0216 9.39895L14.0616 9.99892L15.1016 10.5989C16.4316 11.3689 16.4316 12.6289 15.1016 13.3989L14.0616 13.9989L13.0216 14.5989C11.6916 15.3689 10.6016 14.7389 10.6016 13.1989V11.9989Z" stroke="black" stroke-width="1.5" stroke-miterlimit="10" stroke-linecap="round" stroke-linejoin="round"/>
<path fill-rule="evenodd" clip-rule="evenodd" d="M11.6468 20.9305C12.3832 21.3556 13.298 21.3577 14.0484 20.9296L14.0497 20.9288L19.9818 17.5034L19.9841 17.502C20.7271 17.0644 21.1817 16.279 21.1817 15.42V8.77375C21.7242 8.58268 22.213 8.27799 22.6196 7.88822C22.6605 8.11432 22.6817 8.34568 22.6817 8.58V15.42C22.6817 16.82 21.9374 18.094 20.7418 18.7966L20.7368 18.7995L14.7968 22.2295L14.7939 22.2312C13.5845 22.9223 12.1 22.9242 10.8968 22.2295L4.95668 18.7995L4.95174 18.7966C3.755 18.0934 3.01172 16.8088 3.01172 15.42V8.58C3.01172 7.18358 3.75335 5.89521 4.95673 5.20047L10.8968 1.77051L10.8997 1.76882C12.1091 1.07774 13.5936 1.07583 14.7968 1.77047L16.5356 2.77455C16.4996 2.82879 16.4649 2.88395 16.4316 2.94C16.2027 3.31111 16.0351 3.72431 15.9405 4.16302L14.0468 3.06953C13.3104 2.64446 12.3956 2.64227 11.6453 3.07041L11.6439 3.07118L5.70676 6.49949C4.97015 6.92475 4.51172 7.71642 4.51172 8.58V15.42C4.51172 16.2703 4.9675 17.065 5.70941 17.502L11.6468 20.9305Z" fill="black"/>
<path d="M23.747 5.25047C23.747 5.98078 23.5425 6.67214 23.1822 7.25639C22.9777 7.60694 22.7148 7.91854 22.4129 8.17172C21.7313 8.78518 20.8355 9.14547 19.852 9.14547C18.4303 9.14547 17.1936 8.38594 16.5217 7.25639C16.1614 6.67214 15.957 5.98078 15.957 5.25047C15.957 4.02354 16.5217 2.92321 17.4176 2.21237C18.0895 1.67681 18.9366 1.35547 19.852 1.35547C22.004 1.35547 23.747 3.09848 23.747 5.25047Z" stroke="black" stroke-width="1.46063" stroke-miterlimit="10" stroke-linecap="round" stroke-linejoin="round"/>
<path d="M21.2962 5.23047H18.3945" stroke="black" stroke-width="1.46063" stroke-miterlimit="10" stroke-linecap="round" stroke-linejoin="round"/>
<path d="M19.8438 3.80859V6.7201" stroke="black" stroke-width="1.46063" stroke-miterlimit="10" stroke-linecap="round" stroke-linejoin="round"/>
</g>
<defs>
<clipPath id="clip0_1946_10968">
<rect width="24" height="24" fill="white" transform="translate(0.851562)"/>
</clipPath>
</defs>
</svg>
