<svg width="26" height="25" viewBox="0 0 26 25" fill="none" xmlns="http://www.w3.org/2000/svg">
<path d="M17.046 20.6212C19.2609 20.6212 20.269 15.7168 20.269 13.8571C20.269 12.4077 19.2689 11.5293 17.9541 11.5293C16.6474 11.5293 15.5866 12.0912 15.5735 12.787C15.5734 14.6232 15.2502 20.6212 17.046 20.6212Z" fill="white" stroke="black" stroke-width="0.659603"/>
<path d="M8.95354 20.6212C6.73862 20.6212 5.73047 15.7168 5.73047 13.8571C5.73047 12.4077 6.73062 11.5293 8.04544 11.5293C9.35207 11.5293 10.4129 12.0912 10.426 12.787C10.4261 14.6232 10.7493 20.6212 8.95354 20.6212Z" fill="white" stroke="black" stroke-width="0.659603"/>
<path d="M7.11786 13.2678C7.11548 13.2451 7.12008 13.2319 7.12478 13.2233C7.13036 13.2132 7.14091 13.2011 7.15863 13.191C7.19536 13.1701 7.24676 13.1664 7.29463 13.1943C8.93973 14.1587 10.8373 14.7115 12.9003 14.7115C14.9637 14.7115 16.8964 14.148 18.5521 13.1668C18.5997 13.1386 18.651 13.1421 18.6878 13.1628C18.7056 13.1729 18.7163 13.1849 18.7219 13.1951C18.7267 13.2037 18.7313 13.2169 18.729 13.2397C18.4729 15.7778 17.0962 17.8762 15.2457 18.842C14.6346 19.1611 14.2143 19.7154 13.8452 20.2022C13.8386 20.2109 13.832 20.2196 13.8254 20.2283C13.5254 20.624 13.2538 20.9786 12.922 21.2397C12.5902 20.9786 12.3186 20.6241 12.0186 20.2284C12.0121 20.2197 12.0054 20.2109 11.9988 20.2022C11.6297 19.7154 11.2094 19.1611 10.5982 18.842C8.75481 17.8799 7.38158 15.7937 7.11786 13.2678Z" fill="#FFDF6F" stroke="black" stroke-width="0.65625"/>
<path d="M12.9334 15.1529C16.1391 15.1529 18.7379 14.2866 18.7379 13.218C18.7379 12.1495 16.1391 11.2832 12.9334 11.2832C9.72766 11.2832 7.12891 12.1495 7.12891 13.218C7.12891 14.2866 9.72766 15.1529 12.9334 15.1529Z" fill="black" stroke="black" stroke-width="0.659603"/>
<path d="M8.27344 16.4717C8.27344 16.4717 11.1364 17.4391 12.9786 17.4391C14.8207 17.4391 17.6837 16.4717 17.6837 16.4717" stroke="black" stroke-width="0.659603" stroke-linecap="round"/>
<path d="M7.47656 6.25586C6.75169 6.25586 6.16406 5.66826 6.16406 4.94336C6.16406 4.21848 6.75169 3.63086 7.47656 3.63086C8.20141 3.63086 8.78906 4.21848 8.78906 4.94336C8.78906 5.66826 8.20141 6.25586 7.47656 6.25586Z" fill="black"/>
<path d="M7.25781 4.74707L9.70781 7.19707" stroke="black" stroke-width="0.65625"/>
<path d="M18.1953 6.25586C18.9202 6.25586 19.5078 5.66826 19.5078 4.94336C19.5078 4.21848 18.9202 3.63086 18.1953 3.63086C17.4704 3.63086 16.8828 4.21848 16.8828 4.94336C16.8828 5.66826 17.4704 6.25586 18.1953 6.25586Z" fill="black"/>
<path d="M18.4344 4.74707L15.9844 7.19707" stroke="black" stroke-width="0.65625"/>
<path fill-rule="evenodd" clip-rule="evenodd" d="M7.84749 12.7762C7.14012 12.4394 6.72842 11.6832 6.86632 10.9119C7.45822 7.60182 9.92494 5.11914 12.8781 5.11914C15.8383 5.11914 18.3098 7.61389 18.8941 10.936C19.03 11.7087 18.6149 12.4645 17.9051 12.7986C16.3862 13.5134 14.6898 13.9129 12.8999 13.9129C11.0915 13.9129 9.37837 13.505 7.84749 12.7762Z" fill="#FFDF6F"/>
<path d="M7.18942 10.9697C7.76137 7.77127 10.1255 5.44727 12.8782 5.44727V4.79102C9.7246 4.79102 7.1553 7.43242 6.54342 10.8542L7.18942 10.9697ZM12.8782 5.44727C15.6374 5.44727 18.0065 7.78259 18.571 10.9929L19.2174 10.8792C18.6135 7.44514 16.0395 4.79102 12.8782 4.79102V5.44727ZM17.7655 12.5017C16.2895 13.1963 14.6406 13.5848 12.9001 13.5848V14.241C14.7392 14.241 16.4833 13.8304 18.0449 13.0955L17.7655 12.5017ZM12.9001 13.5848C11.1415 13.5848 9.4764 13.1882 7.98865 12.4799L7.70657 13.0725C9.28057 13.8218 11.0418 14.241 12.9001 14.241V13.5848ZM18.571 10.9929C18.6799 11.6123 18.3483 12.2275 17.7655 12.5017L18.0449 13.0955C18.8818 12.7017 19.3802 11.805 19.2174 10.8792L18.571 10.9929ZM6.54342 10.8542C6.37817 11.7784 6.8726 12.6755 7.70657 13.0725L7.98865 12.4799C7.40782 12.2034 7.07887 11.588 7.18942 10.9697L6.54342 10.8542Z" fill="black"/>
<path fill-rule="evenodd" clip-rule="evenodd" d="M9.11027 11.9529C8.54084 11.721 8.20307 11.1151 8.40039 10.5328C9.00884 8.73705 10.7838 7.4375 12.8787 7.4375C14.9735 7.4375 16.7485 8.73705 17.357 10.5328C17.5543 11.1151 17.2165 11.721 16.6471 11.9529C15.4841 12.4265 14.2119 12.6875 12.8787 12.6875C11.5455 12.6875 10.2732 12.4265 9.11027 11.9529Z" fill="black"/>
<path d="M14.3867 11.1123C14.9908 11.1123 15.4805 10.7206 15.4805 10.2373C15.4805 9.75403 14.9908 9.3623 14.3867 9.3623C13.7827 9.3623 13.293 9.75403 13.293 10.2373C13.293 10.7206 13.7827 11.1123 14.3867 11.1123Z" fill="white"/>
<path d="M11.2578 11.1133C11.8619 11.1133 12.3516 10.7216 12.3516 10.2383C12.3516 9.75503 11.8619 9.36328 11.2578 9.36328C10.6537 9.36328 10.1641 9.75503 10.1641 10.2383C10.1641 10.7216 10.6537 11.1133 11.2578 11.1133Z" fill="white"/>
</svg>
