<svg width="25" height="24" viewBox="0 0 25 24" fill="none" xmlns="http://www.w3.org/2000/svg">
<path d="M16.4325 2.21048C16.0225 1.80048 15.3125 2.08048 15.3125 2.65048V6.14048C15.3125 7.60048 16.5525 8.81048 18.0625 8.81048C19.0125 8.82048 20.3325 8.82048 21.4625 8.82048C22.0325 8.82048 22.3325 8.15048 21.9325 7.75048C20.4925 6.30048 17.9125 3.69048 16.4325 2.21048Z" fill="black"/>
<path d="M21.1328 10.19H18.2428C15.8728 10.19 13.9428 8.26 13.9428 5.89V3C13.9428 2.45 13.4928 2 12.9428 2H8.70281C5.62281 2 3.13281 4 3.13281 7.57V16.43C3.13281 20 5.62281 22 8.70281 22H16.5628C19.6428 22 22.1328 20 22.1328 16.43V11.19C22.1328 10.64 21.6828 10.19 21.1328 10.19ZM12.1328 17.75H8.13281C7.72281 17.75 7.38281 17.41 7.38281 17C7.38281 16.59 7.72281 16.25 8.13281 16.25H12.1328C12.5428 16.25 12.8828 16.59 12.8828 17C12.8828 17.41 12.5428 17.75 12.1328 17.75ZM14.1328 13.75H8.13281C7.72281 13.75 7.38281 13.41 7.38281 13C7.38281 12.59 7.72281 12.25 8.13281 12.25H14.1328C14.5428 12.25 14.8828 12.59 14.8828 13C14.8828 13.41 14.5428 13.75 14.1328 13.75Z" fill="black"/>
</svg>
