<svg width="25" height="24" viewBox="0 0 25 24" fill="none" xmlns="http://www.w3.org/2000/svg">
<g clip-path="url(#clip0_1946_11019)">
<path d="M19.0283 9.79999C18.6083 10.21 18.3683 10.8 18.4283 11.43C18.5183 12.51 19.5083 13.3 20.5883 13.3H22.4883V14.49C22.4883 16.56 20.7983 18.25 18.7283 18.25H8.61828C8.92828 17.99 9.19828 17.67 9.40828 17.31C9.77828 16.71 9.98828 16 9.98828 15.25C9.98828 13.04 8.19828 11.25 5.98828 11.25C5.04828 11.25 4.17828 11.58 3.48828 12.13V7.76001C3.48828 5.69001 5.17827 4 7.24827 4H18.7283C20.7983 4 22.4883 5.69001 22.4883 7.76001V9.20001H20.4683C19.9083 9.20001 19.3983 9.41999 19.0283 9.79999Z" stroke="black" stroke-width="1.5" stroke-linecap="round" stroke-linejoin="round"/>
<path d="M23.551 10.2202V12.2802C23.551 12.8302 23.111 13.2802 22.551 13.3002H20.591C19.511 13.3002 18.521 12.5102 18.431 11.4302C18.371 10.8002 18.611 10.2102 19.031 9.80017C19.401 9.42017 19.911 9.2002 20.471 9.2002H22.551C23.111 9.2202 23.551 9.67014 23.551 10.2202Z" stroke="black" stroke-width="1.5" stroke-linecap="round" stroke-linejoin="round"/>
<path d="M7.98828 8.25H14.9883" stroke="black" stroke-width="1.5" stroke-linecap="round" stroke-linejoin="round"/>
<path d="M9.98828 15.25C9.98828 16 9.77828 16.71 9.40828 17.31C9.19828 17.67 8.92828 17.99 8.61828 18.25C7.91828 18.88 6.99828 19.25 5.98828 19.25C4.52828 19.25 3.25828 18.47 2.56828 17.31C2.19828 16.71 1.98828 16 1.98828 15.25C1.98828 13.99 2.56828 12.86 3.48828 12.13C4.17828 11.58 5.04828 11.25 5.98828 11.25C8.19828 11.25 9.98828 13.04 9.98828 15.25Z" stroke="black" stroke-width="1.5" stroke-miterlimit="10" stroke-linecap="round" stroke-linejoin="round"/>
<path d="M4.42578 15.2495L5.41577 16.2395L7.54578 14.2695" stroke="black" stroke-width="1.5" stroke-linecap="round" stroke-linejoin="round"/>
</g>
<defs>
<clipPath id="clip0_1946_11019">
<rect width="24" height="24" fill="white" transform="translate(0.988281)"/>
</clipPath>
</defs>
</svg>
