<svg width="25" height="24" viewBox="0 0 25 24" fill="none" xmlns="http://www.w3.org/2000/svg">
<path d="M17.5898 2H7.94984C5.81984 2 4.08984 3.74 4.08984 5.86V19.95C4.08984 21.75 5.37984 22.51 6.95984 21.64L11.8398 18.93C12.3598 18.64 13.1998 18.64 13.7098 18.93L18.5898 21.64C20.1698 22.52 21.4598 21.76 21.4598 19.95V5.86C21.4498 3.74 19.7198 2 17.5898 2Z" fill="black"/>
<path d="M12.7702 10.2796C11.7502 10.2796 10.7303 10.0996 9.76027 9.74956C9.37027 9.60956 9.17027 9.17956 9.31027 8.78956C9.46027 8.39956 9.89027 8.19956 10.2803 8.33956C11.8902 8.91956 13.6602 8.91956 15.2702 8.33956C15.6602 8.19956 16.0902 8.39956 16.2302 8.78956C16.3702 9.17956 16.1702 9.60956 15.7802 9.74956C14.8102 10.0996 13.7902 10.2796 12.7702 10.2796Z" fill="white"/>
</svg>
