<svg width="25" height="24" viewBox="0 0 25 24" fill="none" xmlns="http://www.w3.org/2000/svg">
<path d="M16.9453 2C19.0753 2.00001 20.8054 3.74036 20.8154 5.86035V19.9502C20.8153 21.7601 19.5253 22.5196 17.9453 21.6396L13.0654 18.9297C12.5555 18.6397 11.7153 18.6398 11.1953 18.9297L6.31543 21.6396C4.73549 22.5096 3.44541 21.7501 3.44531 19.9502V5.86035C3.44531 3.74035 5.17566 2 7.30566 2H16.9453ZM15.5859 8.79004C15.446 8.40009 15.0159 8.19996 14.626 8.33984C13.016 8.91983 11.2457 8.91981 9.63574 8.33984C9.24574 8.19984 8.81602 8.40004 8.66602 8.79004C8.52625 9.17995 8.72632 9.61004 9.11621 9.75C10.086 10.0999 11.1062 10.2793 12.126 10.2793C13.1458 10.2793 14.1659 10.1 15.1357 9.75C15.5256 9.61006 15.7256 9.17991 15.5859 8.79004Z" fill="white"/>
</svg>
