<svg width="25" height="24" viewBox="0 0 25 24" fill="none" xmlns="http://www.w3.org/2000/svg">
<path fill-rule="evenodd" clip-rule="evenodd" d="M7.87953 2H17.5195C19.6495 2 21.3795 3.74 21.3895 5.86V19.95C21.3895 21.76 20.0995 22.52 18.5195 21.64L13.6395 18.93C13.1295 18.64 12.2895 18.64 11.7695 18.93L6.88953 21.64C5.30953 22.51 4.01953 21.75 4.01953 19.95V5.86C4.01953 3.74 5.74953 2 7.87953 2ZM16.3194 9.03033C16.6123 8.73744 16.6123 8.26256 16.3194 7.96967C16.0265 7.67678 15.5516 7.67678 15.2587 7.96967L11.789 11.4393L10.8194 10.4697C10.5265 10.1768 10.0516 10.1768 9.75873 10.4697C9.46584 10.7626 9.46584 11.2374 9.75873 11.5303L11.2587 13.0303C11.5516 13.3232 12.0265 13.3232 12.3194 13.0303L16.3194 9.03033Z" fill="black"/>
</svg>
