<svg width="25" height="24" viewBox="0 0 25 24" fill="none" xmlns="http://www.w3.org/2000/svg">
<path d="M10.0859 9.0498C11.8659 9.6998 13.8059 9.6998 15.5859 9.0498" stroke="#A7A7A7" stroke-width="1.5" stroke-linecap="round" stroke-linejoin="round"/>
<path d="M17.6562 2H8.01625C5.88625 2 4.15625 3.74 4.15625 5.86V19.95C4.15625 21.75 5.44625 22.51 7.02625 21.64L11.9062 18.93C12.4262 18.64 13.2662 18.64 13.7762 18.93L18.6562 21.64C20.2362 22.52 21.5262 21.76 21.5262 19.95V5.86C21.5162 3.74 19.7862 2 17.6562 2Z" stroke="#A7A7A7" stroke-width="1.5" stroke-linecap="round" stroke-linejoin="round"/>
<path d="M17.6562 2H8.01625C5.88625 2 4.15625 3.74 4.15625 5.86V19.95C4.15625 21.75 5.44625 22.51 7.02625 21.64L11.9062 18.93C12.4262 18.64 13.2662 18.64 13.7762 18.93L18.6562 21.64C20.2362 22.52 21.5262 21.76 21.5262 19.95V5.86C21.5162 3.74 19.7862 2 17.6562 2Z" stroke="#A7A7A7" stroke-width="1.5" stroke-linecap="round" stroke-linejoin="round"/>
</svg>
