<svg width="25" height="24" viewBox="0 0 25 24" fill="none" xmlns="http://www.w3.org/2000/svg">
<path d="M17.3008 2H7.66078C5.53078 2 3.80078 3.74 3.80078 5.86V19.95C3.80078 21.75 5.09078 22.51 6.67078 21.64L11.5508 18.93C12.0708 18.64 12.9108 18.64 13.4208 18.93L18.3008 21.64C19.8808 22.52 21.1708 21.76 21.1708 19.95V5.86C21.1608 3.74 19.4308 2 17.3008 2ZM15.4908 9.75C14.5208 10.1 13.5008 10.28 12.4808 10.28C11.4608 10.28 10.4408 10.1 9.47078 9.75C9.08078 9.61 8.88078 9.18 9.02078 8.79C9.17078 8.4 9.60078 8.2 9.99078 8.34C11.6008 8.92 13.3708 8.92 14.9808 8.34C15.3708 8.2 15.8008 8.4 15.9408 8.79C16.0808 9.18 15.8808 9.61 15.4908 9.75Z" fill="black"/>
</svg>
