<svg width="25" height="24" viewBox="0 0 25 24" fill="none" xmlns="http://www.w3.org/2000/svg">
<path d="M9.66016 9.0498C11.4402 9.6998 13.3802 9.6998 15.1602 9.0498" stroke="white" stroke-width="1.5" stroke-linecap="round" stroke-linejoin="round"/>
<path d="M17.2305 2H7.59047C5.46047 2 3.73047 3.74 3.73047 5.86V19.95C3.73047 21.75 5.02047 22.51 6.60047 21.64L11.4805 18.93C12.0005 18.64 12.8405 18.64 13.3505 18.93L18.2305 21.64C19.8105 22.52 21.1005 21.76 21.1005 19.95V5.86C21.0905 3.74 19.3605 2 17.2305 2Z" stroke="#A7A7A7" stroke-width="1.5" stroke-linecap="round" stroke-linejoin="round"/>
<path d="M17.2305 2H7.59047C5.46047 2 3.73047 3.74 3.73047 5.86V19.95C3.73047 21.75 5.02047 22.51 6.60047 21.64L11.4805 18.93C12.0005 18.64 12.8405 18.64 13.3505 18.93L18.2305 21.64C19.8105 22.52 21.1005 21.76 21.1005 19.95V5.86C21.0905 3.74 19.3605 2 17.2305 2Z" stroke="white" stroke-width="1.5" stroke-linecap="round" stroke-linejoin="round"/>
</svg>
