<svg width="25" height="24" viewBox="0 0 25 24" fill="none" xmlns="http://www.w3.org/2000/svg">
<path d="M9.30469 9.0498C11.0847 9.6998 13.0247 9.6998 14.8047 9.0498" stroke="black" stroke-width="1.5" stroke-linecap="round" stroke-linejoin="round"/>
<path d="M16.875 2H7.235C5.105 2 3.375 3.74 3.375 5.86V19.95C3.375 21.75 4.665 22.51 6.245 21.64L11.125 18.93C11.645 18.64 12.485 18.64 12.995 18.93L17.875 21.64C19.455 22.52 20.745 21.76 20.745 19.95V5.86C20.735 3.74 19.005 2 16.875 2Z" stroke="#A7A7A7" stroke-width="1.5" stroke-linecap="round" stroke-linejoin="round"/>
<path d="M16.875 2H7.235C5.105 2 3.375 3.74 3.375 5.86V19.95C3.375 21.75 4.665 22.51 6.245 21.64L11.125 18.93C11.645 18.64 12.485 18.64 12.995 18.93L17.875 21.64C19.455 22.52 20.745 21.76 20.745 19.95V5.86C20.735 3.74 19.005 2 16.875 2Z" stroke="black" stroke-width="1.5" stroke-linecap="round" stroke-linejoin="round"/>
</svg>
