<svg width="25" height="24" viewBox="0 0 25 24" fill="none" xmlns="http://www.w3.org/2000/svg">
<path d="M22.1914 12V9C22.1914 4 20.1914 2 15.1914 2H9.19141C4.19141 2 2.19141 4 2.19141 9V15C2.19141 20 4.19141 22 9.19141 22H12.1914" stroke="black" stroke-width="1.5" stroke-linecap="round" stroke-linejoin="round"/>
<path d="M21.153 17.8405L19.523 18.3905C19.073 18.5405 18.713 18.8905 18.563 19.3505L18.013 20.9805C17.543 22.3905 15.563 22.3605 15.123 20.9505L13.273 15.0005C12.913 13.8205 14.003 12.7205 15.173 13.0905L21.133 14.9405C22.533 15.3805 22.553 17.3705 21.153 17.8405Z" stroke="black" stroke-width="1.5" stroke-linecap="round" stroke-linejoin="round"/>
</svg>
