<svg width="25" height="24" viewBox="0 0 25 24" fill="none" xmlns="http://www.w3.org/2000/svg">
<path d="M5.87406 19.4214C5.76406 19.4214 5.64406 19.3913 5.54406 19.3413L3.32406 18.2312C3.07406 18.1012 2.91406 17.8412 2.91406 17.5612V14.7812C2.91406 14.3713 3.25406 14.0312 3.66406 14.0312C4.07406 14.0312 4.41406 14.3713 4.41406 14.7812V17.0913L6.21406 18.0014C6.58406 18.1814 6.73406 18.6314 6.54406 19.0014C6.41406 19.2614 6.15406 19.4214 5.87406 19.4214Z" fill="black"/>
<path d="M12.5464 22.7488C12.4864 22.7488 12.4264 22.7388 12.3764 22.7288C12.3164 22.7188 12.2564 22.6888 12.1964 22.6588L9.98635 21.5588C9.61635 21.3688 9.46635 20.9187 9.64635 20.5487C9.83635 20.1787 10.2863 20.0287 10.6564 20.2087L11.7964 20.7787V19.2188C11.7964 18.8088 12.1364 18.4688 12.5464 18.4688C12.9564 18.4688 13.2964 18.8088 13.2964 19.2188V20.7787L14.4364 20.2087C14.8064 20.0287 15.2564 20.1787 15.4464 20.5487C15.6364 20.9187 15.4864 21.3688 15.1064 21.5588L12.8964 22.6588C12.8364 22.6888 12.7764 22.7088 12.7164 22.7288C12.6564 22.7388 12.6064 22.7488 12.5464 22.7488Z" fill="black"/>
<path d="M19.2171 19.4191C18.9471 19.4191 18.6771 19.2691 18.5471 19.0091C18.3571 18.6391 18.5071 18.1891 18.8871 17.9991L20.6971 17.0991V14.7891C20.6971 14.3791 21.0371 14.0391 21.4471 14.0391C21.8571 14.0391 22.1971 14.3791 22.1971 14.7891V17.5691C22.1971 17.8491 22.0371 18.1091 21.7871 18.2391L19.5471 19.3391C19.4371 19.3891 19.3271 19.4191 19.2171 19.4191Z" fill="black"/>
<path d="M12.5464 14.4191C12.1364 14.4191 11.7964 14.0791 11.7964 13.6691V11.3591L9.98635 10.4591C9.61635 10.2691 9.46635 9.81907 9.64635 9.44907C9.83635 9.07907 10.2863 8.92907 10.6564 9.10907L12.5464 10.0491L14.4364 9.10907C14.8064 8.92907 15.2564 9.06907 15.4464 9.44907C15.6364 9.81907 15.4864 10.2691 15.1064 10.4591L13.2964 11.3591V13.6691C13.2964 14.0791 12.9564 14.4191 12.5464 14.4191Z" fill="black"/>
<path d="M3.65625 9.96807C3.24625 9.96807 2.90625 9.62807 2.90625 9.21807V6.45807V6.44807C2.90625 6.38807 2.91625 6.32807 2.92625 6.27807C2.94625 6.18807 2.97625 6.11807 3.01625 6.04807C3.04625 5.99807 3.08625 5.95807 3.12625 5.91807C3.16625 5.87807 3.21625 5.83807 3.26625 5.80807C3.28625 5.79807 3.31625 5.77807 3.33625 5.76807L5.54625 4.65807C5.91625 4.47807 6.36625 4.62807 6.54625 4.99807C6.73625 5.36807 6.58625 5.81807 6.21625 5.99807L5.33625 6.43807L6.21625 6.87807C6.58625 7.06807 6.73625 7.51807 6.54625 7.88807C6.36625 8.25807 5.91625 8.40807 5.54625 8.22807L4.40625 7.65807V9.21807C4.40625 9.63807 4.07624 9.96807 3.65625 9.96807Z" fill="black"/>
<path d="M14.7667 3.85859C14.6567 3.85859 14.5367 3.82859 14.4367 3.77859L12.5467 2.83859L10.6567 3.77859C10.2867 3.96859 9.83668 3.81859 9.65668 3.44859C9.46668 3.07859 9.61668 2.62859 9.98668 2.43859L12.2067 1.32859C12.4167 1.21859 12.6667 1.21859 12.8767 1.32859L15.0967 2.43859C15.4667 2.62859 15.6167 3.07859 15.4367 3.44859C15.3067 3.70859 15.0467 3.85859 14.7667 3.85859Z" fill="black"/>
<path d="M21.4373 9.96807C21.0273 9.96807 20.6873 9.62807 20.6873 9.21807V7.65807L19.5473 8.22807C19.1773 8.40807 18.7273 8.25807 18.5473 7.88807C18.3573 7.51807 18.5073 7.06807 18.8873 6.87807L19.7673 6.43807L18.8773 5.99807C18.5073 5.81807 18.3573 5.36807 18.5473 4.99807C18.7373 4.62807 19.1773 4.47807 19.5473 4.65807L21.7573 5.75807C21.7773 5.76807 21.8073 5.77807 21.8273 5.79807C21.8873 5.82807 21.9373 5.87807 21.9873 5.92807C22.0173 5.96807 22.0473 6.00807 22.0773 6.04807C22.1173 6.11807 22.1473 6.18807 22.1673 6.26807C22.1773 6.32807 22.1873 6.38807 22.1873 6.43807V6.44807V9.20807C22.1873 9.63807 21.8473 9.96807 21.4373 9.96807Z" fill="black"/>
</svg>
