<svg width="25" height="24" viewBox="0 0 25 24" fill="none" xmlns="http://www.w3.org/2000/svg">
<path d="M8.61719 2V5" stroke="black" stroke-width="1.5" stroke-miterlimit="10" stroke-linecap="round" stroke-linejoin="round"/>
<path d="M16.6172 2V5" stroke="black" stroke-width="1.5" stroke-miterlimit="10" stroke-linecap="round" stroke-linejoin="round"/>
<path d="M16.6172 3.5C19.9472 3.68 21.6172 4.95 21.6172 9.65V15.83C21.6172 19.95 20.6172 22.01 15.6172 22.01H9.61719C4.61719 22.01 3.61719 19.95 3.61719 15.83V9.65C3.61719 4.95 5.28719 3.69 8.61719 3.5H16.6172Z" stroke="black" stroke-width="1.5" stroke-miterlimit="10" stroke-linecap="round" stroke-linejoin="round"/>
<path d="M21.3672 17.6006H3.86719" stroke="black" stroke-width="1.5" stroke-miterlimit="10" stroke-linecap="round" stroke-linejoin="round"/>
<path d="M12.6172 8.25C11.3872 8.25 10.3472 8.92 10.3472 10.22C10.3472 10.84 10.6372 11.31 11.0772 11.61C10.4672 11.97 10.1172 12.55 10.1172 13.23C10.1172 14.47 11.0672 15.24 12.6172 15.24C14.1572 15.24 15.1172 14.47 15.1172 13.23C15.1172 12.55 14.7672 11.96 14.1472 11.61C14.5972 11.3 14.8772 10.84 14.8772 10.22C14.8772 8.92 13.8472 8.25 12.6172 8.25ZM12.6172 11.09C12.0972 11.09 11.7172 10.78 11.7172 10.29C11.7172 9.79 12.0972 9.5 12.6172 9.5C13.1372 9.5 13.5172 9.79 13.5172 10.29C13.5172 10.78 13.1372 11.09 12.6172 11.09ZM12.6172 14C11.9572 14 11.4772 13.67 11.4772 13.07C11.4772 12.47 11.9572 12.15 12.6172 12.15C13.2772 12.15 13.7572 12.48 13.7572 13.07C13.7572 13.67 13.2772 14 12.6172 14Z" fill="black"/>
</svg>
