<svg width="25" height="24" viewBox="0 0 25 24" fill="none" xmlns="http://www.w3.org/2000/svg">
<path d="M7.73282 22H18.2129C20.9729 22 22.0729 20.31 22.2029 18.25L22.7229 9.99C22.8629 7.83 21.1429 6 18.9729 6C18.3629 6 17.8029 5.65 17.5229 5.11L16.8029 3.66C16.3429 2.75 15.1429 2 14.1229 2H11.8329C10.8028 2 9.60282 2.75 9.14282 3.66L8.42282 5.11C8.14282 5.65 7.58282 6 6.97282 6C4.80282 6 3.08282 7.83 3.22282 9.99L3.74282 18.25C3.86282 20.31 4.97282 22 7.73282 22Z" stroke="black" stroke-width="1.5" stroke-linecap="round" stroke-linejoin="round"/>
<path d="M11.4727 8H14.4727" stroke="black" stroke-width="1.5" stroke-linecap="round" stroke-linejoin="round"/>
<path d="M12.9727 18C14.7627 18 16.2227 16.54 16.2227 14.75C16.2227 12.96 14.7627 11.5 12.9727 11.5C11.1827 11.5 9.72266 12.96 9.72266 14.75C9.72266 16.54 11.1827 18 12.9727 18Z" stroke="black" stroke-width="1.5" stroke-linecap="round" stroke-linejoin="round"/>
</svg>
