<svg width="25" height="24" viewBox="0 0 25 24" fill="none" xmlns="http://www.w3.org/2000/svg">
<path d="M22.2969 12C22.2969 15.31 19.6069 18 16.2969 18C14.7569 18 13.3569 17.42 12.2969 16.46C13.5269 15.37 14.2969 13.77 14.2969 12C14.2969 10.23 13.5269 8.63 12.2969 7.54C13.3569 6.58 14.7569 6 16.2969 6C19.6069 6 22.2969 8.69 22.2969 12Z" stroke="black" stroke-width="1.5" stroke-linecap="round" stroke-linejoin="round"/>
<path d="M14.2969 12C14.2969 13.77 13.5269 15.37 12.2969 16.46C11.2369 17.42 9.83687 18 8.29688 18C4.98688 18 2.29688 15.31 2.29688 12C2.29688 8.69 4.98688 6 8.29688 6C9.83687 6 11.2369 6.58 12.2969 7.54C13.5269 8.63 14.2969 10.23 14.2969 12Z" stroke="black" stroke-width="1.5" stroke-linecap="round" stroke-linejoin="round"/>
</svg>
