<svg width="25" height="24" viewBox="0 0 25 24" fill="none" xmlns="http://www.w3.org/2000/svg">
<path d="M11.4184 19.5H7.89844C7.27844 19.5 6.72844 19.48 6.23844 19.41C3.60844 19.12 2.89844 17.88 2.89844 14.5V9.5C2.89844 6.12 3.60844 4.88 6.23844 4.59C6.72844 4.52 7.27844 4.5 7.89844 4.5H11.3584" stroke="black" stroke-width="1.5" stroke-linecap="round" stroke-linejoin="round"/>
<path d="M15.418 4.5H16.898C17.518 4.5 18.068 4.52 18.558 4.59C21.188 4.88 21.898 6.12 21.898 9.5V14.5C21.898 17.88 21.188 19.12 18.558 19.41C18.068 19.48 17.518 19.5 16.898 19.5H15.418" stroke="black" stroke-width="1.5" stroke-linecap="round" stroke-linejoin="round"/>
<path d="M15.3984 2V22" stroke="black" stroke-width="1.5" stroke-linecap="round" stroke-linejoin="round"/>
<path d="M11.4922 12H11.5012" stroke="black" stroke-width="2" stroke-linecap="round" stroke-linejoin="round"/>
<path d="M7.49219 12H7.50117" stroke="black" stroke-width="2" stroke-linecap="round" stroke-linejoin="round"/>
</svg>
