<svg width="25" height="24" viewBox="0 0 25 24" fill="none" xmlns="http://www.w3.org/2000/svg">
<path d="M20.6539 13.5H4.85391C3.35391 13.5 2.75391 14.14 2.75391 15.73V19.77C2.75391 21.36 3.35391 22 4.85391 22H20.6539C22.1539 22 22.7539 21.36 22.7539 19.77V15.73C22.7539 14.14 22.1539 13.5 20.6539 13.5Z" stroke="black" stroke-width="1.5" stroke-linecap="round" stroke-linejoin="round"/>
<path d="M20.6539 2H4.85391C3.35391 2 2.75391 2.64 2.75391 4.23V8.27C2.75391 9.86 3.35391 10.5 4.85391 10.5H20.6539C22.1539 10.5 22.7539 9.86 22.7539 8.27V4.23C22.7539 2.64 22.1539 2 20.6539 2Z" stroke="black" stroke-width="1.5" stroke-linecap="round" stroke-linejoin="round"/>
</svg>
