<svg width="25" height="24" viewBox="0 0 25 24" fill="none" xmlns="http://www.w3.org/2000/svg">
<path d="M8.96484 19H8.46484C4.46484 19 2.46484 18 2.46484 13V8C2.46484 4 4.46484 2 8.46484 2H16.4648C20.4648 2 22.4648 4 22.4648 8V13C22.4648 17 20.4648 19 16.4648 19H15.9648C15.6548 19 15.3548 19.15 15.1648 19.4L13.6648 21.4C13.0048 22.28 11.9248 22.28 11.2648 21.4L9.76484 19.4C9.60484 19.18 9.23484 19 8.96484 19Z" stroke="black" stroke-width="1.5" stroke-miterlimit="10" stroke-linecap="round" stroke-linejoin="round"/>
<path d="M16.4609 11H16.4698" stroke="black" stroke-width="2" stroke-linecap="round" stroke-linejoin="round"/>
<path d="M12.4609 11H12.4699" stroke="black" stroke-width="2" stroke-linecap="round" stroke-linejoin="round"/>
<path d="M8.46094 11H8.46992" stroke="black" stroke-width="2" stroke-linecap="round" stroke-linejoin="round"/>
</svg>
