<svg width="26" height="25" viewBox="0 0 26 25" fill="none" xmlns="http://www.w3.org/2000/svg">
<path fill-rule="evenodd" clip-rule="evenodd" d="M7.9653 20.1152H8.52263C8.82359 20.1152 9.23601 20.3159 9.41436 20.5611L11.0863 22.7904C11.822 23.7713 13.0258 23.7713 13.7615 22.7904L15.4335 20.5611C15.6453 20.2824 15.9797 20.1152 16.3252 20.1152H16.8826C21.3412 20.1152 23.5705 17.8859 23.5705 13.4273V7.85397C23.5705 3.39534 21.3412 1.16602 16.8826 1.16602H7.9653C3.50666 1.16602 1.27734 3.39534 1.27734 7.85397V13.4273C1.27734 19.0006 3.50666 20.1152 7.9653 20.1152ZM16.4206 10.3159C15.8683 10.3159 15.4206 10.7637 15.4206 11.3159C15.4206 11.8682 15.8683 12.3159 16.4206 12.3159H16.4295C16.9818 12.3159 17.4295 11.8682 17.4295 11.3159C17.4295 10.7637 16.9818 10.3159 16.4295 10.3159H16.4206ZM11.4196 11.3159C11.4196 10.7637 11.8673 10.3159 12.4196 10.3159H12.4286C12.9809 10.3159 13.4286 10.7637 13.4286 11.3159C13.4286 11.8682 12.9809 12.3159 12.4286 12.3159H12.4196C11.8673 12.3159 11.4196 11.8682 11.4196 11.3159ZM8.41858 10.3159C7.86629 10.3159 7.41858 10.7637 7.41858 11.3159C7.41858 11.8682 7.86629 12.3159 8.41858 12.3159H8.42756C8.97985 12.3159 9.42756 11.8682 9.42756 11.3159C9.42756 10.7637 8.97985 10.3159 8.42756 10.3159H8.41858Z" fill="white"/>
</svg>
