<svg width="25" height="24" viewBox="0 0 25 24" fill="none" xmlns="http://www.w3.org/2000/svg">
<path d="M13.4552 2.25984L19.9652 5.76984C20.7252 6.17984 20.7252 7.34984 19.9652 7.75984L13.4552 11.2698C12.8752 11.5798 12.1952 11.5798 11.6152 11.2698L5.10516 7.75984C4.34516 7.34984 4.34516 6.17984 5.10516 5.76984L11.6152 2.25984C12.1952 1.94984 12.8752 1.94984 13.4552 2.25984Z" stroke="black" stroke-width="1.5" stroke-linecap="round" stroke-linejoin="round"/>
<path d="M4.14516 10.1307L10.1952 13.1607C10.9452 13.5407 11.4252 14.3107 11.4252 15.1507V20.8707C11.4252 21.7007 10.5552 22.2307 9.81516 21.8607L3.76516 18.8307C3.01516 18.4507 2.53516 17.6807 2.53516 16.8407V11.1207C2.53516 10.2907 3.40516 9.76064 4.14516 10.1307Z" stroke="black" stroke-width="1.5" stroke-linecap="round" stroke-linejoin="round"/>
<path d="M20.9245 10.1307L14.8745 13.1607C14.1245 13.5407 13.6445 14.3107 13.6445 15.1507V20.8707C13.6445 21.7007 14.5145 22.2307 15.2545 21.8607L21.3045 18.8307C22.0545 18.4507 22.5345 17.6807 22.5345 16.8407V11.1207C22.5345 10.2907 21.6645 9.76064 20.9245 10.1307Z" stroke="black" stroke-width="1.5" stroke-linecap="round" stroke-linejoin="round"/>
</svg>
