<svg width="25" height="24" viewBox="0 0 25 24" fill="none" xmlns="http://www.w3.org/2000/svg">
<path d="M20.2603 4.89109L14.4003 2.28109C13.5403 1.90109 12.2403 1.90109 11.3803 2.28109L5.52031 4.89109C4.04031 5.55109 3.82031 6.45109 3.82031 6.93109C3.82031 7.41109 4.04031 8.31109 5.52031 8.97109L11.3803 11.5811C11.8103 11.7711 12.3503 11.8711 12.8903 11.8711C13.4303 11.8711 13.9703 11.7711 14.4003 11.5811L20.2603 8.97109C21.7403 8.31109 21.9603 7.41109 21.9603 6.93109C21.9603 6.45109 21.7503 5.55109 20.2603 4.89109Z" fill="black"/>
<path d="M12.8909 17.04C12.5109 17.04 12.1309 16.96 11.7809 16.81L5.04094 13.81C4.01094 13.35 3.21094 12.12 3.21094 10.99C3.21094 10.58 3.54094 10.25 3.95094 10.25C4.36094 10.25 4.69094 10.58 4.69094 10.99C4.69094 11.53 5.14094 12.23 5.64094 12.45L12.3809 15.45C12.7009 15.59 13.0709 15.59 13.3909 15.45L20.1309 12.45C20.6309 12.23 21.0809 11.54 21.0809 10.99C21.0809 10.58 21.4109 10.25 21.8209 10.25C22.2309 10.25 22.5609 10.58 22.5609 10.99C22.5609 12.11 21.7609 13.35 20.7309 13.81L13.9909 16.81C13.6509 16.96 13.2709 17.04 12.8909 17.04Z" fill="black"/>
<path d="M12.8909 22.0009C12.5109 22.0009 12.1309 21.9209 11.7809 21.7709L5.04094 18.7709C3.93094 18.2809 3.21094 17.1709 3.21094 15.9509C3.21094 15.5409 3.54094 15.2109 3.95094 15.2109C4.36094 15.2109 4.69094 15.5409 4.69094 15.9509C4.69094 16.5809 5.06094 17.1509 5.64094 17.4109L12.3809 20.4109C12.7009 20.5509 13.0709 20.5509 13.3909 20.4109L20.1309 17.4109C20.7009 17.1609 21.0809 16.5809 21.0809 15.9509C21.0809 15.5409 21.4109 15.2109 21.8209 15.2109C22.2309 15.2109 22.5609 15.5409 22.5609 15.9509C22.5609 17.1709 21.8409 18.2709 20.7309 18.7709L13.9909 21.7709C13.6509 21.9209 13.2709 22.0009 12.8909 22.0009Z" fill="black"/>
</svg>
