<svg width="26" height="25" viewBox="0 0 26 25" fill="none" xmlns="http://www.w3.org/2000/svg">
<path d="M13.8672 3.04199L20.013 5.77115C21.7838 6.5524 21.7838 7.84409 20.013 8.62534L13.8672 11.3545C13.1692 11.667 12.0234 11.667 11.3255 11.3545L5.1797 8.62534C3.40885 7.84409 3.40885 6.5524 5.1797 5.77115L11.3255 3.04199C12.0234 2.72949 13.1692 2.72949 13.8672 3.04199Z" stroke="black" stroke-width="1.56845" stroke-linecap="round" stroke-linejoin="round"/>
<path d="M3.44141 11.458C3.44141 12.333 4.09766 13.3434 4.89973 13.6976L11.9727 16.8434C12.5143 17.083 13.1289 17.083 13.6602 16.8434L20.7331 13.6976C21.5352 13.3434 22.1914 12.333 22.1914 11.458" stroke="black" stroke-width="1.56845" stroke-linecap="round" stroke-linejoin="round"/>
<path d="M3.44141 16.667C3.44141 17.6357 4.01432 18.5107 4.89973 18.9066L11.9727 22.0524C12.5143 22.292 13.1289 22.292 13.6602 22.0524L20.7331 18.9066C21.6185 18.5107 22.1914 17.6357 22.1914 16.667" stroke="black" stroke-width="1.56845" stroke-linecap="round" stroke-linejoin="round"/>
</svg>
