<svg width="25" height="24" viewBox="0 0 25 24" fill="none" xmlns="http://www.w3.org/2000/svg">
<path d="M3.74359 20.4994C4.57359 21.3294 5.91359 21.3294 6.74359 20.4994L19.7436 7.49945C20.5736 6.66945 20.5736 5.32945 19.7436 4.49945C18.9136 3.66945 17.5736 3.66945 16.7436 4.49945L3.74359 17.4994C2.91359 18.3294 2.91359 19.6694 3.74359 20.4994Z" stroke="black" stroke-width="1.5" stroke-linecap="round" stroke-linejoin="round"/>
<path d="M18.2578 8.99023L15.2578 5.99023" stroke="black" stroke-width="1.5" stroke-linecap="round" stroke-linejoin="round"/>
<path d="M8.74609 2.44L10.2461 2L9.80609 3.5L10.2461 5L8.74609 4.56L7.24609 5L7.68609 3.5L7.24609 2L8.74609 2.44Z" stroke="black" stroke-linecap="round" stroke-linejoin="round"/>
<path d="M4.74609 8.44L6.24609 8L5.80609 9.5L6.24609 11L4.74609 10.56L3.24609 11L3.68609 9.5L3.24609 8L4.74609 8.44Z" stroke="black" stroke-linecap="round" stroke-linejoin="round"/>
<path d="M19.7461 13.44L21.2461 13L20.8061 14.5L21.2461 16L19.7461 15.56L18.2461 16L18.6861 14.5L18.2461 13L19.7461 13.44Z" stroke="black" stroke-linecap="round" stroke-linejoin="round"/>
</svg>
