<svg width="25" height="25" viewBox="0 0 25 25" fill="none" xmlns="http://www.w3.org/2000/svg">
<path d="M16.3154 8.01465C18.1166 8.01465 19.5429 8.22202 20.459 9.1377C21.3749 10.0536 21.582 11.4802 21.582 13.2812V14.1846C21.582 14.5728 21.2873 14.8922 20.9092 14.9307L20.6777 14.9424C19.918 15.02 19.3244 15.6633 19.3242 16.4434C19.3242 17.2236 19.9179 17.8667 20.6777 17.9443L20.9092 17.9561C21.2872 17.9945 21.5818 18.3141 21.582 18.7021C21.582 20.5034 21.3749 21.9297 20.459 22.8457C19.5429 23.7616 18.1168 23.9687 16.3154 23.9688H7.28125C5.48007 23.9687 4.05366 23.7617 3.1377 22.8457C2.22196 21.9297 2.01467 20.5032 2.01465 18.7021V18.25C2.01494 17.8621 2.30977 17.5426 2.6875 17.5039L2.91895 17.4922C3.6789 17.4148 4.2732 16.7723 4.27344 15.9922C4.27324 15.212 3.67893 14.5686 2.91895 14.4912L2.6875 14.4795C2.30967 14.4408 2.01472 14.1214 2.01465 13.7334V13.2812C2.0147 11.4802 2.22177 10.0536 3.1377 9.1377C4.05366 8.22182 5.48014 8.01469 7.28125 8.01465H16.3154ZM7.28125 9.51465C5.46961 9.51469 4.63726 9.75931 4.19824 10.1982C3.77577 10.6207 3.53527 11.4076 3.51758 13.0811C4.81393 13.4157 5.77326 14.5917 5.77344 15.9922C5.77323 17.3926 4.81378 18.5666 3.51758 18.9014C3.53515 20.5754 3.77584 21.3625 4.19824 21.7852C4.63724 22.2241 5.46946 22.4687 7.28125 22.4688H9.24219V21.4121C9.24239 20.9981 9.5781 20.6621 9.99219 20.6621C10.4061 20.6623 10.742 20.9982 10.7422 21.4121V22.4688H16.3154C18.1274 22.4687 18.9594 22.2241 19.3984 21.7852C19.7813 21.4022 20.0165 20.7201 20.0703 19.3496C18.7789 19.0115 17.8242 17.8405 17.8242 16.4434C17.8244 15.0421 18.7845 13.8671 20.082 13.5332V13.2812C20.082 11.4696 19.8374 10.6372 19.3984 10.1982C18.9593 9.75948 18.127 9.51465 16.3154 9.51465H10.7422V10.5713C10.7422 10.9854 10.4063 11.3211 9.99219 11.3213C9.57797 11.3213 9.24219 10.9855 9.24219 10.5713V9.51465H7.28125ZM9.99219 13.4346C10.406 13.4347 10.7418 13.7708 10.7422 14.1846V17.7988C10.742 18.2128 10.4061 18.5487 9.99219 18.5488C9.57808 18.5488 9.24237 18.2129 9.24219 17.7988V14.1846C9.2426 13.7707 9.57823 13.4346 9.99219 13.4346Z" fill="black"/>
<path d="M14.1348 0.96875C14.944 0.0467942 16.4587 0.626339 16.459 1.84473V4.69824H17.2559C18.3992 4.69863 19.0113 6.04299 18.2539 6.9043V6.90527L16.9756 8.35645H14.9775L16.8779 6.19824H15.709C15.2948 6.19824 14.959 5.86244 14.959 5.44824V2.30176L11.7217 5.97949H12.8906C13.3046 5.97961 13.6404 6.31554 13.6406 6.72949V8.35645H12.1406V7.47949H11.3438C10.1987 7.47915 9.60036 6.13295 10.3418 5.27734L10.3457 5.27344L14.1348 0.96875Z" fill="black"/>
</svg>
