<svg width="25" height="24" viewBox="0 0 25 24" fill="none" xmlns="http://www.w3.org/2000/svg">
<path d="M18.1839 2.09951L8.25388 4.58951C6.80388 4.94951 5.33388 6.41951 4.97388 7.86951L2.48388 17.7995C1.73388 20.7995 3.57388 22.6495 6.58388 21.8995L16.5139 19.4195C17.9539 19.0595 19.4339 17.5795 19.7939 16.1395L22.2839 6.19951C23.0339 3.19951 21.1839 1.34951 18.1839 2.09951Z" stroke="black" stroke-width="1.5" stroke-linecap="round" stroke-linejoin="round"/>
<path d="M12.3828 15.5C14.3158 15.5 15.8828 13.933 15.8828 12C15.8828 10.067 14.3158 8.5 12.3828 8.5C10.4498 8.5 8.88281 10.067 8.88281 12C8.88281 13.933 10.4498 15.5 12.3828 15.5Z" stroke="black" stroke-width="1.5" stroke-linecap="round" stroke-linejoin="round"/>
</svg>
