<svg width="25" height="24" viewBox="0 0 25 24" fill="none" xmlns="http://www.w3.org/2000/svg">
<path d="M21.0081 3.01986C20.1381 2.14986 18.9081 1.80986 17.7181 2.10986L7.91818 4.55986C6.26818 4.96986 4.99818 6.24986 4.58818 7.88986L2.13818 17.6999C1.83818 18.8899 2.17818 20.1199 3.04818 20.9899C3.70818 21.6399 4.57818 21.9999 5.47818 21.9999C5.75818 21.9999 6.04818 21.9699 6.32818 21.8899L16.1381 19.4399C17.7781 19.0299 19.0581 17.7599 19.4681 16.1099L21.9181 6.29986C22.2181 5.10986 21.8781 3.87986 21.0081 3.01986ZM12.0281 15.8799C9.88818 15.8799 8.14818 14.1399 8.14818 11.9999C8.14818 9.85986 9.88818 8.11986 12.0281 8.11986C14.1681 8.11986 15.9081 9.85986 15.9081 11.9999C15.9081 14.1399 14.1681 15.8799 12.0281 15.8799Z" fill="black"/>
</svg>
