<svg width="26" height="25" viewBox="0 0 26 25" fill="none" xmlns="http://www.w3.org/2000/svg">
<path d="M21.7734 5.38527C19.7832 3.78371 16.6348 3.51222 16.5 3.50246C16.291 3.48488 16.0918 3.60207 16.0059 3.79543C15.998 3.80715 15.9297 3.96535 15.8535 4.21144C17.1699 4.4341 18.7871 4.88137 20.25 5.78957C20.4844 5.9341 20.5566 6.24269 20.4121 6.47707C20.3164 6.63137 20.1543 6.71535 19.9863 6.71535C19.8965 6.71535 19.8047 6.68996 19.7227 6.63918C17.207 5.07863 14.0664 5.00051 13.4609 5.00051C12.8555 5.00051 9.71289 5.07863 7.19922 6.63918C6.96484 6.78566 6.65625 6.7134 6.51172 6.47902C6.36523 6.24269 6.4375 5.93605 6.67188 5.78957C8.13477 4.88332 9.75195 4.4341 11.0684 4.2134C10.9922 3.96535 10.9238 3.8091 10.918 3.79543C10.8301 3.60207 10.6328 3.48097 10.4219 3.50246C10.2871 3.51222 7.13867 3.78371 5.12109 5.40676C4.06836 6.38137 1.96094 12.0767 1.96094 17.0005C1.96094 17.0884 1.98437 17.1724 2.02734 17.2486C3.48047 19.8032 7.44727 20.4712 8.35156 20.5005C8.35547 20.5005 8.36133 20.5005 8.36719 20.5005C8.52734 20.5005 8.67773 20.4243 8.77148 20.2954L9.68555 19.0376C7.21875 18.4009 5.95898 17.3189 5.88672 17.2544C5.67969 17.0728 5.66016 16.7564 5.84375 16.5493C6.02539 16.3423 6.3418 16.3228 6.54883 16.5044C6.57813 16.5318 8.89844 18.5005 13.4609 18.5005C18.0312 18.5005 20.3516 16.5239 20.375 16.5044C20.582 16.3247 20.8965 16.3423 21.0801 16.5513C21.2617 16.7583 21.2422 17.0728 21.0352 17.2544C20.9629 17.3189 19.7031 18.4009 17.2363 19.0376L18.1504 20.2954C18.2441 20.4243 18.3945 20.5005 18.5547 20.5005C18.5605 20.5005 18.5664 20.5005 18.5703 20.5005C19.4746 20.4712 23.4414 19.8032 24.8945 17.2486C24.9375 17.1724 24.9609 17.0884 24.9609 17.0005C24.9609 12.0767 22.8535 6.38137 21.7734 5.38527ZM10.2109 15.0005C9.24414 15.0005 8.46094 14.106 8.46094 13.0005C8.46094 11.895 9.24414 11.0005 10.2109 11.0005C11.1777 11.0005 11.9609 11.895 11.9609 13.0005C11.9609 14.106 11.1777 15.0005 10.2109 15.0005ZM16.7109 15.0005C15.7441 15.0005 14.9609 14.106 14.9609 13.0005C14.9609 11.895 15.7441 11.0005 16.7109 11.0005C17.6777 11.0005 18.4609 11.895 18.4609 13.0005C18.4609 14.106 17.6777 15.0005 16.7109 15.0005Z" fill="black"/>
</svg>
