<svg width="25" height="24" viewBox="0 0 25 24" fill="none" xmlns="http://www.w3.org/2000/svg">
<path d="M17.2599 5.64941L14.1599 3.24941C13.7599 2.84941 12.8599 2.64941 12.2599 2.64941H8.45997C7.25997 2.64941 5.95997 3.54941 5.65997 4.74941L3.25997 12.0494C2.75997 13.4494 3.65997 14.6494 5.15997 14.6494H9.15997C9.75997 14.6494 10.26 15.1494 10.16 15.8494L9.65997 19.0494C9.45997 19.9494 10.06 20.9494 10.9599 21.2494C11.7599 21.5494 12.7599 21.1494 13.1599 20.5494L17.2599 14.4494" stroke="black" stroke-width="1.5" stroke-miterlimit="10"/>
<path d="M22.3594 5.65V15.45C22.3594 16.85 21.7594 17.35 20.3594 17.35H19.3594C17.9594 17.35 17.3594 16.85 17.3594 15.45V5.65C17.3594 4.25 17.9594 3.75 19.3594 3.75H20.3594C21.7594 3.75 22.3594 4.25 22.3594 5.65Z" stroke="black" stroke-width="1.5" stroke-linecap="round" stroke-linejoin="round"/>
</svg>
