<svg width="25" height="24" viewBox="0 0 25 24" fill="none" xmlns="http://www.w3.org/2000/svg">
<path d="M7.45312 12C3.45312 12 3.45312 13.79 3.45312 16V17C3.45312 19.76 3.45312 22 8.45312 22H16.4531C20.4531 22 21.4531 19.76 21.4531 17V16C21.4531 13.79 21.4531 12 17.4531 12C16.4531 12 16.1731 12.21 15.6531 12.6L14.6331 13.68C13.4531 14.94 11.4531 14.94 10.2631 13.68L9.25313 12.6C8.73313 12.21 8.45312 12 7.45312 12Z" stroke="black" stroke-width="1.5" stroke-miterlimit="10" stroke-linecap="round" stroke-linejoin="round"/>
<path d="M19.4531 12V6C19.4531 3.79 19.4531 2 15.4531 2H9.45312C5.45312 2 5.45312 3.79 5.45312 6V12" stroke="black" stroke-width="1.5" stroke-miterlimit="10" stroke-linecap="round" stroke-linejoin="round"/>
<path d="M11.0039 9.23047H14.3339" stroke="black" stroke-width="1.5" stroke-linecap="round" stroke-linejoin="round"/>
<path d="M10.1719 6.22949H15.1719" stroke="black" stroke-width="1.5" stroke-linecap="round" stroke-linejoin="round"/>
</svg>
