<svg width="25" height="24" viewBox="0 0 25 24" fill="none" xmlns="http://www.w3.org/2000/svg">
<path d="M12.1641 22C17.6869 22 22.1641 17.5228 22.1641 12C22.1641 6.47715 17.6869 2 12.1641 2C6.64121 2 2.16406 6.47715 2.16406 12C2.16406 17.5228 6.64121 22 12.1641 22Z" stroke="black" stroke-width="1.5" stroke-linecap="round" stroke-linejoin="round"/>
<path fill-rule="evenodd" clip-rule="evenodd" d="M22.1641 12C22.1641 17.5228 17.6869 22 12.1641 22C6.64121 22 2.16406 17.5228 2.16406 12C2.16406 6.47715 6.64121 2 12.1641 2C17.6869 2 22.1641 6.47715 22.1641 12ZM12.1641 7.75C12.5783 7.75 12.9141 8.08579 12.9141 8.5V13.6893L14.6338 11.9697C14.9267 11.6768 15.4015 11.6768 15.6944 11.9697C15.9873 12.2626 15.9873 12.7374 15.6944 13.0303L12.6944 16.0303C12.4015 16.3232 11.9267 16.3232 11.6338 16.0303L8.63373 13.0303C8.34084 12.7374 8.34084 12.2626 8.63373 11.9697C8.92662 11.6768 9.4015 11.6768 9.69439 11.9697L11.4141 13.6893V8.5C11.4141 8.08579 11.7499 7.75 12.1641 7.75Z" fill="black"/>
</svg>
