<svg width="25" height="24" viewBox="0 0 25 24" fill="none" xmlns="http://www.w3.org/2000/svg">
<path d="M11.7611 3H5.73875C4.41029 3 3.87891 3.56681 3.87891 4.97499V8.55299C3.87891 9.96117 4.41029 10.528 5.73875 10.528H11.7611C13.0896 10.528 13.6209 9.96117 13.6209 8.55299V4.97499C13.6209 3.56681 13.0896 3 11.7611 3Z" stroke="black" stroke-width="1.32846" stroke-linecap="round" stroke-linejoin="round"/>
<path d="M19.7313 3H18.1372C16.8087 3 16.2773 3.56681 16.2773 4.97499V8.55299C16.2773 9.96117 16.8087 10.528 18.1372 10.528H19.7313C21.0598 10.528 21.5912 9.96117 21.5912 8.55299V4.97499C21.5912 3.56681 21.0598 3 19.7313 3Z" stroke="black" stroke-width="1.32846" stroke-linecap="round" stroke-linejoin="round"/>
<path d="M13.7114 14.3428H19.7338C21.0623 14.3428 21.5936 14.9096 21.5936 16.3178V19.8958C21.5936 21.304 21.0623 21.8708 19.7338 21.8708H13.7114C12.383 21.8708 11.8516 21.304 11.8516 19.8958V16.3178C11.8516 14.9096 12.383 14.3428 13.7114 14.3428Z" stroke="black" stroke-width="1.32846" stroke-linecap="round" stroke-linejoin="round"/>
<path d="M5.73876 14.3428H7.33291C8.66137 14.3428 9.19275 14.9096 9.19275 16.3178V19.8958C9.19275 21.304 8.66137 21.8708 7.33291 21.8708H5.73876C4.4103 21.8708 3.87891 21.304 3.87891 19.8958V16.3178C3.87891 14.9096 4.4103 14.3428 5.73876 14.3428Z" stroke="black" stroke-width="1.32846" stroke-linecap="round" stroke-linejoin="round"/>
</svg>
