<svg width="26" height="25" viewBox="0 0 26 25" fill="none" xmlns="http://www.w3.org/2000/svg">
<path d="M11.6914 2.08301H9.60808C4.39973 2.08301 2.31641 4.16634 2.31641 9.37468V15.6247C2.31641 20.833 4.39973 22.9163 9.60808 22.9163H15.8581C21.0664 22.9163 23.1497 20.833 23.1497 15.6247V13.5413" stroke="black" stroke-width="1.50318" stroke-linecap="round" stroke-linejoin="round"/>
<path d="M16.9438 3.14646L8.73546 11.3548C8.42296 11.6673 8.11046 12.2819 8.04796 12.7298L7.60005 15.8652C7.43339 17.0006 8.23546 17.7923 9.37089 17.636L12.5063 17.1881C12.9438 17.1256 13.5584 16.8131 13.8813 16.5006L22.0896 8.2923C23.5063 6.87562 24.173 5.2298 22.0896 3.14646C20.0063 1.06313 18.3605 1.7298 16.9438 3.14646Z" stroke="black" stroke-width="1.50318" stroke-miterlimit="10" stroke-linecap="round" stroke-linejoin="round"/>
<path d="M15.7656 4.32324C16.4635 6.81284 18.4115 8.76074 20.9115 9.46909" stroke="black" stroke-width="1.50318" stroke-miterlimit="10" stroke-linecap="round" stroke-linejoin="round"/>
</svg>
