<svg width="25" height="24" viewBox="0 0 25 24" fill="none" xmlns="http://www.w3.org/2000/svg">
<path d="M14.6782 3.51063L16.4382 7.03062C16.6782 7.52062 17.3182 7.99063 17.8582 8.08063L21.0482 8.61062C23.0882 8.95062 23.5682 10.4306 22.0982 11.8906L19.6182 14.3706C19.1982 14.7906 18.9682 15.6006 19.0982 16.1806L19.8082 19.2506C20.3682 21.6806 19.0782 22.6206 16.9282 21.3506L13.9382 19.5806C13.3982 19.2606 12.5082 19.2606 11.9582 19.5806L8.96815 21.3506C6.82815 22.6206 5.52815 21.6706 6.08815 19.2506L6.79815 16.1806C6.92815 15.6006 6.69815 14.7906 6.27815 14.3706L3.79815 11.8906C2.33815 10.4306 2.80815 8.95062 4.84815 8.61062L8.03815 8.08063C8.56815 7.99063 9.20815 7.52062 9.44815 7.03062L11.2082 3.51063C12.1682 1.60063 13.7282 1.60063 14.6782 3.51063Z" fill="black" stroke="black" stroke-width="1.5" stroke-linecap="round" stroke-linejoin="round"/>
</svg>
