<svg width="25" height="24" viewBox="0 0 25 24" fill="none" xmlns="http://www.w3.org/2000/svg">
<path d="M14.0336 3.51063L15.7936 7.03062C16.0336 7.52062 16.6736 7.99063 17.2136 8.08063L20.4036 8.61062C22.4436 8.95062 22.9236 10.4306 21.4536 11.8906L18.9736 14.3706C18.5536 14.7906 18.3236 15.6006 18.4536 16.1806L19.1636 19.2506C19.7236 21.6806 18.4336 22.6206 16.2836 21.3506L13.2936 19.5806C12.7536 19.2606 11.8636 19.2606 11.3136 19.5806L8.32362 21.3506C6.18362 22.6206 4.88362 21.6706 5.44362 19.2506L6.15362 16.1806C6.28362 15.6006 6.05362 14.7906 5.63362 14.3706L3.15362 11.8906C1.69362 10.4306 2.16362 8.95062 4.20362 8.61062L7.39362 8.08063C7.92362 7.99063 8.56362 7.52062 8.80362 7.03062L10.5636 3.51063C11.5236 1.60063 13.0836 1.60063 14.0336 3.51063Z" stroke="black" stroke-width="1.5" stroke-linecap="round" stroke-linejoin="round"/>
</svg>
