<svg width="25" height="24" viewBox="0 0 25 24" fill="none" xmlns="http://www.w3.org/2000/svg">
<path d="M15.1763 18.8412H16.5979V22.0349C16.5979 22.5051 17.2052 22.7269 17.5273 22.372L21.01 18.5573C21.3137 18.2247 21.0699 17.7057 20.6098 17.7057H19.1882V14.512C19.1882 14.0418 18.5808 13.82 18.2588 14.1749L14.776 17.9896C14.477 18.3223 14.7208 18.8412 15.1763 18.8412Z" fill="black"/>
<path fill-rule="evenodd" clip-rule="evenodd" d="M8.86453 2H16.4245C20.2045 2 21.1445 3.01 21.1345 7.04V16.7965C20.972 16.7372 20.7959 16.7043 20.6105 16.7043H20.1889V14.5106C20.1889 13.0541 18.4081 12.5242 17.5203 13.5001L14.0383 17.3139L14.0331 17.3197C13.1288 18.3257 13.8926 19.785 15.1082 19.8384L14.1045 21.18C13.2945 22.25 11.9845 22.25 11.1745 21.18L10.1645 19.83C9.45453 18.88 8.20453 18.81 7.38453 19.68L7.37453 19.69C5.60453 21.59 4.14453 20.96 4.14453 18.3V7.04C4.14453 3.01 5.08453 2 8.86453 2ZM19.1241 20.6225C18.7475 20.4521 18.3357 20.1403 17.9045 19.68C17.5287 19.2767 17.0626 19.073 16.5987 19.0629V18.8399H15.177C14.7216 18.8399 14.4777 18.3209 14.7768 17.9882L18.2595 14.1735C18.5816 13.8187 19.1889 14.0405 19.1889 14.5106V17.7043H20.6105C20.8883 17.7043 21.0873 17.8935 21.1345 18.1167V18.29C21.1345 18.3003 21.1345 18.3105 21.1344 18.3207C21.1167 18.4031 21.0766 18.4839 21.0108 18.556L19.1241 20.6225ZM9.64453 11.75H15.6445C16.0545 11.75 16.3945 11.41 16.3945 11C16.3945 10.59 16.0545 10.25 15.6445 10.25H9.64453C9.23453 10.25 8.89453 10.59 8.89453 11C8.89453 11.41 9.23453 11.75 9.64453 11.75ZM8.64453 7.75H16.6445C17.0545 7.75 17.3945 7.41 17.3945 7C17.3945 6.59 17.0545 6.25 16.6445 6.25H8.64453C8.23453 6.25 7.89453 6.59 7.89453 7C7.89453 7.41 8.23453 7.75 8.64453 7.75Z" fill="black"/>
</svg>
