<svg width="25" height="25" viewBox="0 0 25 25" fill="none" xmlns="http://www.w3.org/2000/svg">
<path d="M21.3568 11.7705V7.33301C21.3568 3.1351 20.3776 2.08301 16.4401 2.08301H8.56509C4.62759 2.08301 3.64844 3.1351 3.64844 7.33301V19.0622C3.64844 21.833 5.16928 22.4893 7.01303 20.5101L7.02341 20.4997C7.87759 19.5934 9.17966 19.6663 9.91925 20.6559L10.9713 22.0622" stroke="black" stroke-width="1.5625" stroke-linecap="round" stroke-linejoin="round"/>
<path d="M8.33594 7.29199H16.6692" stroke="black" stroke-width="1.5625" stroke-linecap="round" stroke-linejoin="round"/>
<path d="M9.37891 11.458H15.6289" stroke="black" stroke-width="1.5625" stroke-linecap="round" stroke-linejoin="round"/>
<path d="M15.12 19.6259H16.5477V22.9527C16.5477 23.4425 17.1576 23.6735 17.4811 23.3039L20.9788 19.3302C21.2838 18.9837 21.0389 18.4431 20.5768 18.4431H19.1491V15.1163C19.1491 14.6265 18.5392 14.3955 18.2157 14.7652L14.718 18.7388C14.4177 19.0854 14.6626 19.6259 15.12 19.6259Z" fill="black"/>
</svg>
