<svg width="25" height="24" viewBox="0 0 25 24" fill="none" xmlns="http://www.w3.org/2000/svg">
<path d="M21.9598 14.3L21.5598 19.3C21.4098 20.83 21.2898 22 18.5798 22H5.99981C3.28981 22 3.16981 20.83 3.01981 19.3L2.61981 14.3C2.53981 13.47 2.79981 12.7 3.26981 12.11C3.27981 12.1 3.27981 12.1 3.28981 12.09C3.83981 11.42 4.66981 11 5.59981 11H18.9798C19.9098 11 20.7298 11.42 21.2698 12.07C21.2798 12.08 21.2898 12.09 21.2898 12.1C21.7798 12.69 22.0498 13.46 21.9598 14.3Z" stroke="black" stroke-width="1.5" stroke-miterlimit="10"/>
<path d="M3.78906 11.4303V6.28027C3.78906 2.88027 4.63906 2.03027 8.03906 2.03027H9.30906C10.5791 2.03027 10.8691 2.41027 11.3491 3.05027L12.6191 4.75027C12.9391 5.17027 13.1291 5.43027 13.9791 5.43027H16.5291C19.9291 5.43027 20.7791 6.28027 20.7791 9.68027V11.4703" stroke="black" stroke-width="1.5" stroke-miterlimit="10" stroke-linecap="round" stroke-linejoin="round"/>
<path d="M9.71875 17H14.8588" stroke="black" stroke-width="1.5" stroke-miterlimit="10" stroke-linecap="round" stroke-linejoin="round"/>
</svg>
