<svg width="25" height="24" viewBox="0 0 25 24" fill="none" xmlns="http://www.w3.org/2000/svg">
<path d="M21.9957 11.8216L21.8357 11.6016C21.5557 11.2616 21.2257 10.9916 20.8457 10.7916C20.3357 10.5016 19.7557 10.3516 19.1557 10.3516H6.70574C6.10574 10.3516 5.53574 10.5016 5.01574 10.7916C4.62574 11.0016 4.27574 11.2916 3.98574 11.6516C3.41574 12.3816 3.14574 13.2816 3.23574 14.1816L3.60574 18.8516C3.73574 20.2616 3.90574 22.0016 7.07574 22.0016H18.7957C21.9657 22.0016 22.1257 20.2616 22.2657 18.8416L22.6357 14.1916C22.7257 13.3516 22.5057 12.5116 21.9957 11.8216ZM15.3257 17.3416H10.5357C10.1457 17.3416 9.83574 17.0216 9.83574 16.6416C9.83574 16.2616 10.1457 15.9416 10.5357 15.9416H15.3257C15.7157 15.9416 16.0257 16.2616 16.0257 16.6416C16.0257 17.0316 15.7157 17.3416 15.3257 17.3416Z" fill="black"/>
<path d="M21.4975 8.59643C21.535 8.97928 21.1197 9.23561 20.7549 9.11348C20.2502 8.94449 19.7188 8.86 19.1664 8.86H6.70641C6.14957 8.86 5.60131 8.95012 5.08975 9.12194C4.72935 9.24298 4.31641 8.99507 4.31641 8.61489V6.66C4.31641 3.09 5.40641 2 8.97641 2H10.1564C11.5864 2 12.0364 2.46 12.6164 3.21L13.8164 4.81C14.0664 5.15 14.0764 5.17 14.5164 5.17H16.8964C20.022 5.17 21.2434 6.00724 21.4975 8.59643Z" fill="black"/>
</svg>
