<svg width="25" height="24" viewBox="0 0 25 24" fill="none" xmlns="http://www.w3.org/2000/svg">
<path d="M9.52187 10.87C9.42187 10.86 9.30187 10.86 9.19187 10.87C6.81187 10.79 4.92188 8.84 4.92188 6.44C4.92188 3.99 6.90188 2 9.36188 2C11.8118 2 13.8018 3.99 13.8018 6.44C13.7918 8.84 11.9018 10.79 9.52187 10.87Z" stroke="black" stroke-width="1.5" stroke-linecap="round" stroke-linejoin="round"/>
<path d="M16.7706 4C18.7106 4 20.2706 5.57 20.2706 7.5C20.2706 9.39 18.7706 10.93 16.9006 11C16.8206 10.99 16.7306 10.99 16.6406 11" stroke="black" stroke-width="1.5" stroke-linecap="round" stroke-linejoin="round"/>
<path d="M4.51813 14.56C2.09812 16.18 2.09812 18.82 4.51813 20.43C7.26813 22.27 11.7781 22.27 14.5281 20.43C16.9481 18.81 16.9481 16.17 14.5281 14.56C11.7881 12.73 7.27813 12.73 4.51813 14.56Z" stroke="black" stroke-width="1.5" stroke-linecap="round" stroke-linejoin="round"/>
<path d="M18.6992 20C19.4192 19.85 20.0992 19.56 20.6592 19.13C22.2192 17.96 22.2192 16.03 20.6592 14.86C20.1092 14.44 19.4392 14.16 18.7292 14" stroke="black" stroke-width="1.5" stroke-linecap="round" stroke-linejoin="round"/>
</svg>
