<svg width="25" height="24" viewBox="0 0 25 24" fill="none" xmlns="http://www.w3.org/2000/svg">
<path d="M15.6148 2H9.81485C9.13485 2 8.17484 2.4 7.69484 2.88L3.59484 6.98001C3.11484 7.46001 2.71484 8.42001 2.71484 9.10001V14.9C2.71484 15.58 3.11484 16.54 3.59484 17.02L7.69484 21.12C8.17484 21.6 9.13485 22 9.81485 22H15.6148C16.2948 22 17.2548 21.6 17.7348 21.12L21.8348 17.02C22.3148 16.54 22.7148 15.58 22.7148 14.9V9.10001C22.7148 8.42001 22.3148 7.46001 21.8348 6.98001L17.7348 2.88C17.2548 2.4 16.2948 2 15.6148 2Z" stroke="black" stroke-width="1.5" stroke-linecap="round" stroke-linejoin="round"/>
<path d="M9.21484 15.5L16.2148 8.5" stroke="black" stroke-width="1.5" stroke-linecap="round" stroke-linejoin="round"/>
<path d="M16.2148 15.5L9.21484 8.5" stroke="black" stroke-width="1.5" stroke-linecap="round" stroke-linejoin="round"/>
</svg>
