<svg width="26" height="25" viewBox="0 0 26 25" fill="none" xmlns="http://www.w3.org/2000/svg">
<path d="M8.23828 6.25H18.7383C19.3893 6.25 19.9668 6.271 20.4813 6.3445C23.2428 6.649 23.9883 7.951 23.9883 11.5V13.6C23.9883 17.149 23.2428 18.451 20.4813 18.7555C19.9668 18.829 19.3893 18.85 18.7383 18.85H8.23828C7.58728 18.85 7.00978 18.829 6.49528 18.7555C3.73378 18.451 2.98828 17.149 2.98828 13.6V11.5C2.98828 7.951 3.73378 6.649 6.49528 6.3445C7.00978 6.271 7.58728 6.25 8.23828 6.25Z" stroke="black" stroke-width="1.575" stroke-linecap="round" stroke-linejoin="round"/>
<path d="M12.6517 12.333V12.753C12.6517 13.593 12.3746 14.2813 11.8205 14.818C11.2663 15.3488 10.543 15.6142 9.65047 15.6142C8.70547 15.6142 7.92381 15.308 7.30547 14.6955C6.69297 14.083 6.38672 13.3305 6.38672 12.438C6.38672 11.5513 6.69297 10.8017 7.30547 10.1892C7.92381 9.57088 8.68797 9.26172 9.59797 9.26172C10.1696 9.26172 10.6917 9.39297 11.1642 9.65547C11.6367 9.91797 12.0042 10.2709 12.2667 10.7142L11.4005 11.213C11.2371 10.9213 10.9951 10.688 10.6742 10.513C10.3534 10.3321 9.99464 10.2417 9.59797 10.2417C8.95631 10.2417 8.42839 10.4517 8.01422 10.8717C7.60006 11.2917 7.39297 11.8167 7.39297 12.4467C7.39297 13.0767 7.60006 13.5988 8.01422 14.013C8.43422 14.4271 8.98256 14.6342 9.65922 14.6342C10.2017 14.6342 10.6421 14.5088 10.9805 14.258C11.3246 14.0013 11.5434 13.6601 11.6367 13.2342H9.58922V12.333H12.6517ZM14.0967 9.37547H15.1029V15.5005H14.0967V9.37547ZM20.4393 10.338H17.8581V12.053H20.3518V13.0155H17.8581V15.5005H16.8518V9.37547H20.4393V10.338Z" fill="black"/>
</svg>
