<svg width="26" height="25" viewBox="0 0 26 25" fill="none" xmlns="http://www.w3.org/2000/svg">
<g clip-path="url(#clip0_1946_11400)">
<path fill-rule="evenodd" clip-rule="evenodd" d="M13.3846 0C6.49305 0 0.921875 5.61224 0.921875 12.5554C0.921875 18.1054 4.49152 22.8033 9.44356 24.4661C10.0627 24.5911 10.2895 24.1959 10.2895 23.8635C10.2895 23.5724 10.2691 22.5747 10.2691 21.5352C6.80223 22.2837 6.08029 20.0385 6.08029 20.0385C5.52315 18.5834 4.69764 18.2094 4.69764 18.2094C3.56295 17.4403 4.78029 17.4403 4.78029 17.4403C6.03897 17.5235 6.69943 18.7291 6.69943 18.7291C7.81346 20.6413 9.60861 20.101 10.3308 19.7684C10.4339 18.9577 10.7642 18.3964 11.115 18.0847C8.34994 17.7936 5.44075 16.7128 5.44075 11.8901C5.44075 10.5181 5.93565 9.39566 6.71983 8.5227C6.59611 8.21097 6.16269 6.92194 6.84381 5.19668C6.84381 5.19668 7.89611 4.86403 10.2688 6.48546C11.2847 6.21063 12.3323 6.07082 13.3846 6.06964C14.4369 6.06964 15.5096 6.21531 16.5002 6.48546C18.8732 4.86403 19.9254 5.19668 19.9254 5.19668C20.6066 6.92194 20.1729 8.21097 20.0492 8.5227C20.854 9.39566 21.3285 10.5181 21.3285 11.8901C21.3285 16.7128 18.4193 17.7727 15.6336 18.0847C16.0877 18.4796 16.4795 19.2278 16.4795 20.4128C16.4795 22.0964 16.4591 23.4477 16.4591 23.8633C16.4591 24.1959 16.6862 24.5911 17.305 24.4663C22.2571 22.8031 25.8267 18.1054 25.8267 12.5554C25.8471 5.61224 20.2555 0 13.3846 0Z" fill="#24292F"/>
</g>
<defs>
<clipPath id="clip0_1946_11400">
<rect width="25" height="24.4898" fill="white" transform="translate(0.921875)"/>
</clipPath>
</defs>
</svg>
