<svg width="25" height="24" viewBox="0 0 25 24" fill="none" xmlns="http://www.w3.org/2000/svg">
<path d="M12.0703 22C17.5931 22 22.0703 17.5228 22.0703 12C22.0703 6.47715 17.5931 2 12.0703 2C6.54746 2 2.07031 6.47715 2.07031 12C2.07031 17.5228 6.54746 22 12.0703 22Z" stroke="black" stroke-width="1.5" stroke-linecap="round" stroke-linejoin="round"/>
<path d="M8.07188 3H9.07188C7.12188 8.84 7.12188 15.16 9.07188 21H8.07188" stroke="black" stroke-width="1.5" stroke-linecap="round" stroke-linejoin="round"/>
<path d="M15.0703 3C17.0203 8.84 17.0203 15.16 15.0703 21" stroke="black" stroke-width="1.5" stroke-linecap="round" stroke-linejoin="round"/>
<path d="M3.07031 16V15C8.91031 16.95 15.2303 16.95 21.0703 15V16" stroke="black" stroke-width="1.5" stroke-linecap="round" stroke-linejoin="round"/>
<path d="M3.07031 9.00059C8.91031 7.05059 15.2303 7.05059 21.0703 9.00059" stroke="black" stroke-width="1.5" stroke-linecap="round" stroke-linejoin="round"/>
</svg>
