<svg width="25" height="24" viewBox="0 0 25 24" fill="none" xmlns="http://www.w3.org/2000/svg">
<path d="M20.5343 6.82165L14.7743 2.79165C13.2043 1.69165 10.7943 1.75165 9.28437 2.92165L4.27438 6.83165C3.27438 7.61165 2.48438 9.21165 2.48438 10.4716V17.3716C2.48438 19.9216 4.55437 22.0016 7.10437 22.0016H17.8843C20.4343 22.0016 22.5043 19.9316 22.5043 17.3816V10.6016C22.5043 9.25165 21.6343 7.59165 20.5343 6.82165ZM13.2443 18.0016C13.2443 18.4116 12.9043 18.7516 12.4943 18.7516C12.0843 18.7516 11.7443 18.4116 11.7443 18.0016V15.0016C11.7443 14.5916 12.0843 14.2516 12.4943 14.2516C12.9043 14.2516 13.2443 14.5916 13.2443 15.0016V18.0016Z" fill="black"/>
</svg>
