<svg width="25" height="24" viewBox="0 0 25 24" fill="none" xmlns="http://www.w3.org/2000/svg">
<path d="M9.5625 10C10.6671 10 11.5625 9.10457 11.5625 8C11.5625 6.89543 10.6671 6 9.5625 6C8.45793 6 7.5625 6.89543 7.5625 8C7.5625 9.10457 8.45793 10 9.5625 10Z" stroke="black" stroke-width="1.5" stroke-linecap="round" stroke-linejoin="round"/>
<path d="M13.5625 2H9.5625C4.5625 2 2.5625 4 2.5625 9V15C2.5625 20 4.5625 22 9.5625 22H15.5625C20.5625 22 22.5625 20 22.5625 15V10" stroke="black" stroke-width="1.5" stroke-linecap="round" stroke-linejoin="round"/>
<path d="M18.5625 8V2L20.5625 4" stroke="black" stroke-width="1.5" stroke-linecap="round" stroke-linejoin="round"/>
<path d="M18.5625 2L16.5625 4" stroke="black" stroke-width="1.5" stroke-linecap="round" stroke-linejoin="round"/>
<path d="M3.23047 18.9505L8.16047 15.6405C8.95047 15.1105 10.0905 15.1705 10.8004 15.7805L11.1304 16.0705C11.9104 16.7405 13.1704 16.7405 13.9504 16.0705L18.1104 12.5005C18.8904 11.8305 20.1504 11.8305 20.9304 12.5005L22.5604 13.9005" stroke="black" stroke-width="1.5" stroke-linecap="round" stroke-linejoin="round"/>
</svg>
