<svg width="26" height="25" viewBox="0 0 26 25" fill="none" xmlns="http://www.w3.org/2000/svg">
<path d="M10.0065 22.9164H16.2565C21.4648 22.9164 23.5482 20.833 23.5482 15.6247V9.37466C23.5482 4.16635 21.4648 2.08301 16.2565 2.08301H10.0065C4.79819 2.08301 2.71484 4.16635 2.71484 9.37466V15.6247C2.71484 20.833 4.79819 22.9164 10.0065 22.9164Z" stroke="black" stroke-width="1.56813" stroke-linecap="round" stroke-linejoin="round"/>
<path d="M10.0091 10.4167C11.1598 10.4167 12.0925 9.48394 12.0925 8.33334C12.0925 7.18275 11.1598 6.25 10.0091 6.25C8.85853 6.25 7.92578 7.18275 7.92578 8.33334C7.92578 9.48394 8.85853 10.4167 10.0091 10.4167Z" stroke="black" stroke-width="1.56813" stroke-linecap="round" stroke-linejoin="round"/>
<path d="M3.41406 19.7402L8.54948 16.2923C9.37239 15.7402 10.5599 15.8027 11.2994 16.4381L11.6432 16.7402C12.4557 17.4381 13.7682 17.4381 14.5807 16.7402L18.914 13.0215C19.7265 12.3236 21.039 12.3236 21.8515 13.0215L23.5494 14.4798" stroke="black" stroke-width="1.56813" stroke-linecap="round" stroke-linejoin="round"/>
</svg>
