<svg width="25" height="24" viewBox="0 0 25 24" fill="none" xmlns="http://www.w3.org/2000/svg">
<path d="M9.20703 10C10.3116 10 11.207 9.10457 11.207 8C11.207 6.89543 10.3116 6 9.20703 6C8.10246 6 7.20703 6.89543 7.20703 8C7.20703 9.10457 8.10246 10 9.20703 10Z" stroke="black" stroke-width="1.5" stroke-linecap="round" stroke-linejoin="round"/>
<path d="M13.207 2H9.20703C4.20703 2 2.20703 4 2.20703 9V15C2.20703 20 4.20703 22 9.20703 22H15.207C20.207 22 22.207 20 22.207 15V10" stroke="black" stroke-width="1.5" stroke-linecap="round" stroke-linejoin="round"/>
<path d="M2.875 18.9505L7.805 15.6405C8.595 15.1105 9.735 15.1705 10.445 15.7805L10.775 16.0705C11.555 16.7405 12.815 16.7405 13.595 16.0705L17.755 12.5005C18.535 11.8305 19.795 11.8305 20.575 12.5005L22.205 13.9005" stroke="black" stroke-width="1.5" stroke-linecap="round" stroke-linejoin="round"/>
<path d="M18.7189 4.72511C19.4413 5.67483 19.2575 7.02739 18.3082 7.74608C17.359 8.46477 16.006 8.28463 15.2873 7.33542C14.5686 6.38621 14.7487 5.03315 15.6979 4.31445" stroke="black" stroke-width="1.1" stroke-linecap="round" stroke-linejoin="round"/>
<path d="M17.6773 5.51821C16.926 4.53051 17.1179 3.11849 18.1061 2.36347C19.0943 1.60845 20.5058 1.80411 21.2609 2.79232C22.0159 3.78052 21.8202 5.19203 20.832 5.94705" stroke="black" stroke-width="1.1" stroke-linecap="round" stroke-linejoin="round"/>
</svg>
