<svg width="25" height="24" viewBox="0 0 25 24" fill="none" xmlns="http://www.w3.org/2000/svg">
<path d="M22.5325 16.9606L19.4025 9.65062C18.3425 7.17062 16.3925 7.07062 15.0825 9.43062L13.1925 12.8406C12.2325 14.5706 10.4425 14.7206 9.20246 13.1706L8.98247 12.8906C7.69247 11.2706 5.87247 11.4706 4.94247 13.3206L3.22246 16.7706C2.01246 19.1706 3.76247 22.0006 6.44247 22.0006H19.2025C21.8025 22.0006 23.5525 19.3506 22.5325 16.9606Z" stroke="black" stroke-width="1.5" stroke-linecap="round" stroke-linejoin="round"/>
<path d="M7.82031 8C9.47717 8 10.8203 6.65685 10.8203 5C10.8203 3.34315 9.47717 2 7.82031 2C6.16346 2 4.82031 3.34315 4.82031 5C4.82031 6.65685 6.16346 8 7.82031 8Z" stroke="black" stroke-width="1.5" stroke-linecap="round" stroke-linejoin="round"/>
</svg>
