<svg width="26" height="25" viewBox="0 0 26 25" fill="none" xmlns="http://www.w3.org/2000/svg">
<path d="M21.5887 15.5517C19.4429 17.6871 16.3699 18.3434 13.672 17.4996L8.76573 22.3955C8.41154 22.76 7.71364 22.9788 7.21364 22.9059L4.94279 22.5934C4.19279 22.4892 3.49488 21.7809 3.3803 21.0309L3.0678 18.76C2.99488 18.26 3.23447 17.5621 3.57822 17.208L8.47404 12.3121C7.64073 9.60383 8.28654 6.53092 10.4324 4.39552C13.5054 1.32259 18.4949 1.32259 21.5783 4.39552C24.6616 7.46842 24.6616 12.4788 21.5887 15.5517Z" stroke="black" stroke-width="1.50318" stroke-miterlimit="10" stroke-linecap="round" stroke-linejoin="round"/>
<path d="M8.15234 18.2188L10.5482 20.6146" stroke="black" stroke-width="1.50318" stroke-miterlimit="10" stroke-linecap="round" stroke-linejoin="round"/>
<path d="M16.082 11.458C16.9449 11.458 17.6445 10.7584 17.6445 9.89551C17.6445 9.03257 16.9449 8.33301 16.082 8.33301C15.2191 8.33301 14.5195 9.03257 14.5195 9.89551C14.5195 10.7584 15.2191 11.458 16.082 11.458Z" stroke="black" stroke-width="1.50318" stroke-linecap="round" stroke-linejoin="round"/>
</svg>
