<svg width="25" height="24" viewBox="0 0 25 24" fill="none" xmlns="http://www.w3.org/2000/svg">
<path fill-rule="evenodd" clip-rule="evenodd" d="M4.37658 10.6777C3.44985 11.0893 2.65625 11.777 2.65625 12.7389C2.65625 13.7044 3.45577 14.3937 4.38694 14.8047L10.3271 17.4426C10.7884 17.6489 11.3466 17.7347 11.8625 17.7347C12.3784 17.7347 12.9358 17.6493 13.397 17.443L19.3373 14.8051C20.2686 14.3941 21.0688 13.7044 21.0688 12.7389C21.0688 11.8195 20.3437 11.1505 19.4703 10.7338L17.6245 11.5534L18.7301 12.0444L18.7318 12.0451C19.5127 12.3896 19.5688 12.7025 19.5688 12.7389C19.5688 12.7754 19.5127 13.0882 18.7318 13.4327L18.7301 13.4335L12.7871 16.0726L12.7849 16.0736C12.5715 16.1691 12.2378 16.2347 11.8625 16.2347C11.4873 16.2347 11.1536 16.1691 10.9401 16.0735L10.938 16.0726L4.99495 13.4335L4.99329 13.4327C4.21243 13.0882 4.15625 12.7754 4.15625 12.7389C4.15625 12.7025 4.21243 12.3896 4.99329 12.0451L4.99495 12.0444L6.22456 11.4984L4.37658 10.6777Z" fill="black"/>
<path d="M13.1798 2.25869L19.9633 5.27103C21.9179 6.13334 21.9179 7.55903 19.9633 8.42134L13.1798 11.4337C12.4095 11.7786 11.1448 11.7786 10.3744 11.4337L3.59093 8.42134C1.63636 7.55903 1.63636 6.13334 3.59093 5.27103L10.3744 2.25869C11.1448 1.91377 12.4095 1.91377 13.1798 2.25869Z" stroke="black" stroke-width="1.5" stroke-linecap="round" stroke-linejoin="round"/>
<path fill-rule="evenodd" clip-rule="evenodd" d="M4.9481 16.1895C4.39769 16.5421 3.98828 17.0377 3.98828 17.6767C3.98828 18.5023 4.67165 19.0885 5.45956 19.4362L10.475 21.6634C10.8672 21.8388 11.3411 21.9115 11.7782 21.9115C12.2154 21.9115 12.6884 21.8392 13.0806 21.6638L18.0961 19.4366C18.884 19.0889 19.5682 18.5023 19.5682 17.6767C19.5682 17.056 19.1819 16.5706 18.6553 16.2201L17.1156 16.9038L17.57 17.1056L17.5714 17.1062C18.229 17.3963 18.2682 17.6563 18.2682 17.6767C18.2682 17.6971 18.229 17.9571 17.5714 18.2472L17.57 18.2478L12.552 20.4761L12.5502 20.4769C12.3728 20.5564 12.0935 20.6115 11.7782 20.6115C11.463 20.6115 11.1837 20.5564 11.0063 20.4769L11.0044 20.4761L5.98647 18.2478L5.98503 18.2472C5.32741 17.9571 5.28828 17.6971 5.28828 17.6767C5.28828 17.6563 5.32741 17.3963 5.98503 17.1062L5.98647 17.1056L6.49879 16.8781L4.9481 16.1895Z" fill="black"/>
</svg>
