<svg width="25" height="24" viewBox="0 0 25 24" fill="none" xmlns="http://www.w3.org/2000/svg">
<path d="M13.2156 8H19.5299C20.9227 8 21.4799 8.59429 21.4799 10.0707V13.8222C21.4799 15.2986 20.9227 15.8929 19.5299 15.8929H13.2156C11.8228 15.8929 11.2656 15.2986 11.2656 13.8222V10.0707C11.2656 8.59429 11.8228 8 13.2156 8Z" stroke="black" stroke-width="1.39285" stroke-linecap="round" stroke-linejoin="round"/>
<path d="M4.86015 8H6.53157C7.92442 8 8.48156 8.59429 8.48156 10.0707V13.8222C8.48156 15.2986 7.92442 15.8929 6.53157 15.8929H4.86015C3.4673 15.8929 2.91016 15.2986 2.91016 13.8222V10.0707C2.91016 8.59429 3.4673 8 4.86015 8Z" stroke="black" stroke-width="1.39285" stroke-linecap="round" stroke-linejoin="round"/>
</svg>
