<svg width="25" height="24" viewBox="0 0 25 24" fill="none" xmlns="http://www.w3.org/2000/svg">
<path d="M16.1341 15.9192H20.3498C21.6591 15.9192 22.1884 15.3249 22.1884 13.8485V10.0971C22.1884 8.62065 21.6591 8.02637 20.3498 8.02637H16.1434C14.8248 8.02637 14.3048 8.62065 14.3048 10.0971V13.8485C14.2955 15.3249 14.8248 15.9192 16.1341 15.9192Z" stroke="black" stroke-width="1.39286" stroke-linecap="round" stroke-linejoin="round"/>
<path d="M5.68399 15.9192H9.43541C10.9119 15.9192 11.5062 15.3249 11.5062 13.8485V10.0971C11.5062 8.62065 10.9119 8.02637 9.43541 8.02637H5.68399C4.20756 8.02637 3.61328 8.62065 3.61328 10.0971V13.8485C3.61328 15.3249 4.20756 15.9192 5.68399 15.9192Z" stroke="black" stroke-width="1.39286" stroke-linecap="round" stroke-linejoin="round"/>
</svg>
