<svg width="25" height="24" viewBox="0 0 25 24" fill="none" xmlns="http://www.w3.org/2000/svg">
<path d="M11.5259 8H5.21171C3.81886 8 3.26172 8.59429 3.26172 10.0707V13.8222C3.26172 15.2986 3.81886 15.8929 5.21171 15.8929H11.5259C12.9188 15.8929 13.4759 15.2986 13.4759 13.8222V10.0707C13.4759 8.59429 12.9188 8 11.5259 8Z" stroke="black" stroke-width="1.39285" stroke-linecap="round" stroke-linejoin="round"/>
<path d="M19.887 8H18.2156C16.8227 8 16.2656 8.59429 16.2656 10.0707V13.8222C16.2656 15.2986 16.8227 15.8929 18.2156 15.8929H19.887C21.2799 15.8929 21.837 15.2986 21.837 13.8222V10.0707C21.837 8.59429 21.2798 8 19.887 8Z" stroke="black" stroke-width="1.39285" stroke-linecap="round" stroke-linejoin="round"/>
</svg>
