<svg width="25" height="24" viewBox="0 0 25 24" fill="none" xmlns="http://www.w3.org/2000/svg">
<path d="M8.38672 18.3505L11.4867 20.7505C11.8867 21.1505 12.7867 21.3505 13.3867 21.3505H17.1867C18.3867 21.3505 19.6867 20.4505 19.9867 19.2505L22.3867 11.9505C22.8867 10.5505 21.9867 9.35046 20.4867 9.35046H16.4867C15.8867 9.35046 15.3867 8.85046 15.4867 8.15046L15.9867 4.95046C16.1867 4.05046 15.5867 3.05046 14.6867 2.75046C13.8867 2.45046 12.8867 2.85046 12.4867 3.45046L8.38672 9.55046" stroke="black" stroke-width="1.5" stroke-miterlimit="10"/>
<path d="M3.28906 18.3494V8.54941C3.28906 7.14941 3.88906 6.64941 5.28906 6.64941H6.28906C7.68906 6.64941 8.28906 7.14941 8.28906 8.54941V18.3494C8.28906 19.7494 7.68906 20.2494 6.28906 20.2494H5.28906C3.88906 20.2494 3.28906 19.7494 3.28906 18.3494Z" stroke="black" stroke-width="1.5" stroke-linecap="round" stroke-linejoin="round"/>
</svg>
