<svg width="25" height="24" viewBox="0 0 25 24" fill="none" xmlns="http://www.w3.org/2000/svg">
<path d="M20.4739 7.82141L12.7739 12.2814C12.4639 12.4614 12.0739 12.4614 11.7539 12.2814L4.05389 7.82141C3.50389 7.50141 3.36389 6.75141 3.78389 6.28141C4.07389 5.95141 4.40389 5.68141 4.75389 5.49141L10.1739 2.49141C11.3339 1.84141 13.2139 1.84141 14.3739 2.49141L19.7939 5.49141C20.1439 5.68141 20.4739 5.96141 20.7639 6.28141C21.1639 6.75141 21.0239 7.50141 20.4739 7.82141Z" fill="black"/>
<path d="M11.6961 14.1389V20.9589C11.6961 21.7189 10.9261 22.2189 10.2461 21.8889C8.18609 20.8789 4.71609 18.9889 4.71609 18.9889C3.49609 18.2989 2.49609 16.5589 2.49609 15.1289V9.9689C2.49609 9.1789 3.32609 8.6789 4.00609 9.0689L11.1961 13.2389C11.4961 13.4289 11.6961 13.7689 11.6961 14.1389Z" fill="black"/>
<path d="M12.8359 14.1389V20.9589C12.8359 21.7189 13.6059 22.2189 14.2859 21.8889C16.3459 20.8789 19.8159 18.9889 19.8159 18.9889C21.0359 18.2989 22.0359 16.5589 22.0359 15.1289V9.9689C22.0359 9.1789 21.2059 8.6789 20.5259 9.0689L13.3359 13.2389C13.0359 13.4289 12.8359 13.7689 12.8359 14.1389Z" fill="black"/>
</svg>
