<svg width="26" height="25" viewBox="0 0 26 25" fill="none" xmlns="http://www.w3.org/2000/svg">
<path d="M17.75 10.4163H19.8333C21.9167 10.4163 22.9583 9.37468 22.9583 7.29134V5.20799C22.9583 3.12468 21.9167 2.08301 19.8333 2.08301H17.75C15.6667 2.08301 14.625 3.12468 14.625 5.20799V7.29134C14.625 9.37468 15.6667 10.4163 17.75 10.4163Z" stroke="black" stroke-width="1.57059" stroke-miterlimit="10" stroke-linecap="round" stroke-linejoin="round"/>
<path d="M5.24998 22.9164H7.33333C9.41667 22.9164 10.4583 21.8747 10.4583 19.7914V17.708C10.4583 15.6247 9.41667 14.583 7.33333 14.583H5.24998C3.16667 14.583 2.125 15.6247 2.125 17.708V19.7914C2.125 21.8747 3.16667 22.9164 5.24998 22.9164Z" stroke="black" stroke-width="1.57059" stroke-miterlimit="10" stroke-linecap="round" stroke-linejoin="round"/>
<path d="M6.29167 10.4163C8.59286 10.4163 10.4583 8.55087 10.4583 6.24968C10.4583 3.94849 8.59286 2.08301 6.29167 2.08301C3.99048 2.08301 2.125 3.94849 2.125 6.24968C2.125 8.55087 3.99048 10.4163 6.29167 10.4163Z" stroke="black" stroke-width="1.57059" stroke-miterlimit="10" stroke-linecap="round" stroke-linejoin="round"/>
<path d="M18.7917 22.9164C21.0928 22.9164 22.9583 21.0508 22.9583 18.7497C22.9583 16.4485 21.0928 14.583 18.7917 14.583C16.4905 14.583 14.625 16.4485 14.625 18.7497C14.625 21.0508 16.4905 22.9164 18.7917 22.9164Z" stroke="black" stroke-width="1.57059" stroke-miterlimit="10" stroke-linecap="round" stroke-linejoin="round"/>
</svg>
