<svg width="25" height="24" viewBox="0 0 25 24" fill="none" xmlns="http://www.w3.org/2000/svg">
<path d="M17.6211 3.5H7.62109C4.62109 3.5 2.62109 5 2.62109 8.5V15.5C2.62109 19 4.62109 20.5 7.62109 20.5H17.6211C20.6211 20.5 22.6211 19 22.6211 15.5V8.5C22.6211 5 20.6211 3.5 17.6211 3.5ZM18.0911 9.59L14.9611 12.09C14.3011 12.62 13.4611 12.88 12.6211 12.88C11.7811 12.88 10.9311 12.62 10.2811 12.09L7.15109 9.59C6.83109 9.33 6.78109 8.85 7.03109 8.53C7.29109 8.21 7.76109 8.15 8.08109 8.41L11.2111 10.91C11.9711 11.52 13.2611 11.52 14.0211 10.91L17.1511 8.41C17.4711 8.15 17.9511 8.2 18.2011 8.53C18.4611 8.85 18.4111 9.33 18.0911 9.59Z" fill="black"/>
</svg>
