<svg width="25" height="24" viewBox="0 0 25 24" fill="none" xmlns="http://www.w3.org/2000/svg">
<path d="M22.4023 10V13C22.4023 17 20.4023 19 16.4023 19H15.9023C15.5923 19 15.2923 19.15 15.1023 19.4L13.6023 21.4C12.9423 22.28 11.8623 22.28 11.2023 21.4L9.70234 19.4C9.54234 19.18 9.17234 19 8.90234 19H8.40234C4.40234 19 2.40234 18 2.40234 13V8C2.40234 4 4.40234 2 8.40234 2H14.4023" stroke="black" stroke-width="1.5" stroke-miterlimit="10" stroke-linecap="round" stroke-linejoin="round"/>
<path d="M19.9023 7C21.283 7 22.4023 5.88071 22.4023 4.5C22.4023 3.11929 21.283 2 19.9023 2C18.5216 2 17.4023 3.11929 17.4023 4.5C17.4023 5.88071 18.5216 7 19.9023 7Z" stroke="black" stroke-width="1.5" stroke-linecap="round" stroke-linejoin="round"/>
<path d="M16.3984 11H16.4073" stroke="black" stroke-width="2" stroke-linecap="round" stroke-linejoin="round"/>
<path d="M12.3984 11H12.4074" stroke="black" stroke-width="2" stroke-linecap="round" stroke-linejoin="round"/>
<path d="M8.39844 11H8.40742" stroke="black" stroke-width="2" stroke-linecap="round" stroke-linejoin="round"/>
</svg>
