<svg width="25" height="24" viewBox="0 0 25 24" fill="none" xmlns="http://www.w3.org/2000/svg">
<path d="M14.1133 5C14.1133 3.9 13.2133 3 12.1133 3C11.0133 3 10.1133 3.9 10.1133 5C10.1133 6.1 11.0133 7 12.1133 7C13.2133 7 14.1133 6.1 14.1133 5Z" stroke="black" stroke-width="1.5"/>
<path d="M14.1133 19C14.1133 17.9 13.2133 17 12.1133 17C11.0133 17 10.1133 17.9 10.1133 19C10.1133 20.1 11.0133 21 12.1133 21C13.2133 21 14.1133 20.1 14.1133 19Z" stroke="black" stroke-width="1.5"/>
<path d="M14.1133 12C14.1133 10.9 13.2133 10 12.1133 10C11.0133 10 10.1133 10.9 10.1133 12C10.1133 13.1 11.0133 14 12.1133 14C13.2133 14 14.1133 13.1 14.1133 12Z" stroke="black" stroke-width="1.5"/>
</svg>
