<svg width="25" height="24" viewBox="0 0 25 24" fill="none" xmlns="http://www.w3.org/2000/svg">
<path d="M16.4688 6.3V6C16.4688 3.79 14.6788 2 12.4688 2C10.2587 2 8.46875 3.79 8.46875 6V11" stroke="black" stroke-width="1.5" stroke-linecap="round" stroke-linejoin="round"/>
<path d="M4.82031 9.64941V11.3494C4.82031 12.4094 5.03031 13.4094 5.42031 14.3294" stroke="black" stroke-width="1.5" stroke-linecap="round" stroke-linejoin="round"/>
<path d="M20.5384 2.83984L4.39844 18.9898" stroke="black" stroke-width="1.5" stroke-linecap="round" stroke-linejoin="round"/>
<path d="M11.4688 3V6" stroke="black" stroke-width="1.5" stroke-linecap="round" stroke-linejoin="round"/>
<path d="M9.50781 14.19C10.2378 15 11.2979 15.5 12.4679 15.5C14.6779 15.5 16.4679 13.71 16.4679 11.5V11" stroke="black" stroke-width="1.5" stroke-linecap="round" stroke-linejoin="round"/>
<path d="M7.25 16.9504C8.62 18.2204 10.45 19.0004 12.47 19.0004C16.69 19.0004 20.12 15.5704 20.12 11.3504V9.65039" stroke="black" stroke-width="1.5" stroke-linecap="round" stroke-linejoin="round"/>
<path d="M12.4688 19V22" stroke="black" stroke-width="1.5" stroke-linecap="round" stroke-linejoin="round"/>
</svg>
