<svg width="25" height="25" viewBox="0 0 25 25" fill="none" xmlns="http://www.w3.org/2000/svg">
<g clip-path="url(#clip0_1946_11508)">
<path d="M12.4648 24.5938C19.2562 24.5938 24.7617 19.0883 24.7617 12.2969C24.7617 5.5055 19.2562 0 12.4648 0C5.67347 0 0.167969 5.5055 0.167969 12.2969C0.167969 19.0883 5.67347 24.5938 12.4648 24.5938Z" fill="#49ACC5"/>
<path d="M14.9471 5.89497C14.6791 5.62692 14.2148 5.80997 14.2148 6.18264V8.46433C14.2148 9.41886 15.0256 10.2099 16.0128 10.2099C16.6339 10.2165 17.4969 10.2165 18.2356 10.2165C18.6083 10.2165 18.8044 9.77845 18.5429 9.51694C17.6015 8.56895 15.9147 6.86256 14.9471 5.89497Z" fill="white"/>
<path d="M18.3419 11.0457H16.3446C14.7068 11.0457 13.373 9.71193 13.373 8.07406V6.07683C13.373 5.69673 13.062 5.38574 12.6819 5.38574H9.75168C7.62314 5.38574 5.90234 6.76791 5.90234 9.23508V15.3581C5.90234 17.8253 7.62314 19.2074 9.75168 19.2074H15.1836C17.3121 19.2074 19.0329 17.8253 19.0329 15.3581V11.7368C19.0329 11.3567 18.722 11.0457 18.3419 11.0457ZM12.1221 16.2703H9.35776C9.07442 16.2703 8.83945 16.0354 8.83945 15.752C8.83945 15.4687 9.07442 15.2337 9.35776 15.2337H12.1221C12.4054 15.2337 12.6404 15.4687 12.6404 15.752C12.6404 16.0354 12.4054 16.2703 12.1221 16.2703ZM13.5043 13.506H9.35776C9.07442 13.506 8.83945 13.271 8.83945 12.9877C8.83945 12.7043 9.07442 12.4694 9.35776 12.4694H13.5043C13.7876 12.4694 14.0226 12.7043 14.0226 12.9877C14.0226 13.271 13.7876 13.506 13.5043 13.506Z" fill="white"/>
</g>
<defs>
<clipPath id="clip0_1946_11508">
<rect width="24.5938" height="24.5938" fill="white" transform="translate(0.167969)"/>
</clipPath>
</defs>
</svg>
