<svg width="26" height="25" viewBox="0 0 26 25" fill="none" xmlns="http://www.w3.org/2000/svg">
<g clip-path="url(#clip0_1946_11512)">
<path d="M12.8242 24.5938C19.6156 24.5938 25.1211 19.0883 25.1211 12.2969C25.1211 5.5055 19.6156 0 12.8242 0C6.03284 0 0.527344 5.5055 0.527344 12.2969C0.527344 19.0883 6.03284 24.5938 12.8242 24.5938Z" fill="#C5BCB1"/>
<path d="M17.6466 7.64953L13.8155 5.94317C13.2532 5.69472 12.4033 5.69472 11.841 5.94317L8.00988 7.64953C7.04226 8.08103 6.89844 8.66944 6.89844 8.98325C6.89844 9.29707 7.04226 9.88547 8.00988 10.317L11.841 12.0234C12.1222 12.1476 12.4752 12.213 12.8283 12.213C13.1813 12.213 13.5343 12.1476 13.8155 12.0234L17.6466 10.317C18.6142 9.88547 18.7581 9.29707 18.7581 8.98325C18.7581 8.66944 18.6208 8.08103 17.6466 7.64953Z" fill="white"/>
<path d="M12.8286 15.5925C12.5802 15.5925 12.3317 15.5402 12.1029 15.4422L7.69641 13.4808C7.02301 13.18 6.5 12.3759 6.5 11.6371C6.5 11.3691 6.71574 11.1533 6.98378 11.1533C7.25183 11.1533 7.46759 11.3691 7.46759 11.6371C7.46759 11.9902 7.76178 12.4478 8.08868 12.5916L12.4952 14.553C12.7044 14.6445 12.9463 14.6445 13.1555 14.553L17.562 12.5916C17.8889 12.4478 18.1831 11.9967 18.1831 11.6371C18.1831 11.3691 18.3988 11.1533 18.6669 11.1533C18.9349 11.1533 19.1507 11.3691 19.1507 11.6371C19.1507 12.3694 18.6277 13.18 17.9543 13.4808L13.5478 15.4422C13.3255 15.5402 13.0771 15.5925 12.8286 15.5925Z" fill="white"/>
<path d="M12.8286 18.8357C12.5802 18.8357 12.3317 18.7834 12.1029 18.6853L7.69641 16.724C6.97072 16.4036 6.5 15.6779 6.5 14.8803C6.5 14.6122 6.71574 14.3965 6.98378 14.3965C7.25183 14.3965 7.46759 14.6122 7.46759 14.8803C7.46759 15.2922 7.7095 15.6648 8.08868 15.8348L12.4952 17.7962C12.7044 17.8877 12.9463 17.8877 13.1555 17.7962L17.562 15.8348C17.9347 15.6714 18.1831 15.2922 18.1831 14.8803C18.1831 14.6122 18.3988 14.3965 18.6669 14.3965C18.9349 14.3965 19.1507 14.6122 19.1507 14.8803C19.1507 15.6779 18.68 16.3971 17.9543 16.724L13.5478 18.6853C13.3255 18.7834 13.0771 18.8357 12.8286 18.8357Z" fill="white"/>
</g>
<defs>
<clipPath id="clip0_1946_11512">
<rect width="24.5938" height="24.5938" fill="white" transform="translate(0.527344)"/>
</clipPath>
</defs>
</svg>
