<svg width="26" height="25" viewBox="0 0 26 25" fill="none" xmlns="http://www.w3.org/2000/svg">
<g clip-path="url(#clip0_1946_11517)">
<path d="M13.1797 24.5938C19.9711 24.5938 25.4766 19.0883 25.4766 12.2969C25.4766 5.5055 19.9711 0 13.1797 0C6.38831 0 0.882812 5.5055 0.882812 12.2969C0.882812 19.0883 6.38831 24.5938 13.1797 24.5938Z" fill="black"/>
<path d="M13.6329 19.654C12.4237 19.654 11.3547 19.488 10.4261 19.1561C9.4974 18.8281 8.71692 18.344 8.08464 17.7038C7.45236 17.0636 6.97418 16.2792 6.65013 15.3505C6.32609 14.4218 6.16406 13.3588 6.16406 12.1614C6.16406 11.0035 6.32808 9.96818 6.65606 9.05531C6.98803 8.14243 7.46817 7.3679 8.09649 6.73166C8.72877 6.09146 9.49543 5.60343 10.3964 5.26752C11.3014 4.93162 12.3249 4.76367 13.467 4.76367C14.5774 4.76367 15.5496 4.94544 16.3834 5.30901C17.2212 5.66862 17.9206 6.15666 18.4818 6.77315C19.0469 7.38568 19.4697 8.07527 19.7503 8.84191C20.0348 9.60857 20.1771 10.3989 20.1771 11.213C20.1771 11.786 20.1494 12.3669 20.0941 12.9557C20.0388 13.5446 19.9222 14.0859 19.7444 14.5799C19.5666 15.0699 19.2919 15.4651 18.9204 15.7654C18.5529 16.0658 18.055 16.2159 17.4267 16.2159C17.15 16.2159 16.8457 16.1725 16.5138 16.0856C16.1819 15.9986 15.8874 15.8544 15.6306 15.6528C15.3737 15.4513 15.2216 15.1806 15.1742 14.8407H15.103C15.0082 15.0699 14.862 15.2873 14.6644 15.4928C14.4707 15.6983 14.2158 15.8623 13.8997 15.9848C13.5875 16.1073 13.2062 16.1606 12.7557 16.1448C12.2419 16.125 11.7894 16.0105 11.3982 15.801C11.007 15.5876 10.679 15.2991 10.4142 14.9356C10.1534 14.568 9.9558 14.1432 9.82145 13.6611C9.69105 13.1751 9.62583 12.6514 9.62583 12.0903C9.62583 11.5568 9.70487 11.0687 9.86294 10.6261C10.021 10.1835 10.2403 9.79627 10.5209 9.46432C10.8054 9.13236 11.1374 8.86761 11.5168 8.67002C11.9001 8.46847 12.313 8.34398 12.7557 8.29656C13.1508 8.25704 13.5104 8.27482 13.8345 8.34991C14.1585 8.42106 14.4253 8.52971 14.6347 8.67595C14.8442 8.8182 14.9766 8.97626 15.0319 9.15014H15.103V8.48626H16.3597V13.8449C16.3597 14.1768 16.4526 14.4692 16.6383 14.7222C16.824 14.9751 17.0947 15.1016 17.4504 15.1016C17.8535 15.1016 18.1617 14.9632 18.3751 14.6866C18.5924 14.41 18.7406 13.9832 18.8197 13.4062C18.9027 12.8293 18.9442 12.0903 18.9442 11.1893C18.9442 10.6597 18.871 10.1381 18.7248 9.62436C18.5826 9.10668 18.3652 8.62258 18.0728 8.17209C17.7843 7.72159 17.4188 7.32442 16.9762 6.98063C16.5335 6.63681 16.0139 6.36809 15.4172 6.17444C14.8244 5.97686 14.1506 5.87806 13.3958 5.87806C12.4672 5.87806 11.6353 6.02231 10.9003 6.31079C10.1692 6.59532 9.54681 7.01223 9.03307 7.56153C8.52329 8.10687 8.13405 8.77078 7.86531 9.55323C7.60053 10.3317 7.46817 11.2169 7.46817 12.2088C7.46817 13.2165 7.60053 14.1116 7.86531 14.8941C8.13405 15.6765 8.52922 16.3365 9.05085 16.8739C9.57644 17.4114 10.2265 17.8184 11.0011 18.095C11.7756 18.3756 12.6687 18.5159 13.6804 18.5159C14.1151 18.5159 14.5438 18.4744 14.9667 18.3914C15.3895 18.3084 15.763 18.2175 16.087 18.1187C16.411 18.0199 16.6442 17.9468 16.7865 17.8994L17.1184 18.9901C16.8734 19.0929 16.5533 19.1956 16.1582 19.2983C15.7669 19.4011 15.348 19.4861 14.9015 19.5532C14.4589 19.6204 14.036 19.654 13.6329 19.654ZM12.9453 14.9356C13.4749 14.9356 13.9036 14.8289 14.2316 14.6155C14.5597 14.4021 14.7987 14.08 14.9489 13.6493C15.0991 13.2185 15.1742 12.6751 15.1742 12.0191C15.1742 11.3552 15.0912 10.8376 14.9252 10.4661C14.7592 10.0946 14.5142 9.83382 14.1902 9.68365C13.8661 9.53348 13.467 9.4584 12.9928 9.4584C12.5423 9.4584 12.1569 9.57694 11.8369 9.81405C11.5207 10.0472 11.2777 10.3594 11.1078 10.7506C10.9418 11.1379 10.8588 11.5607 10.8588 12.0191C10.8588 12.525 10.926 13.0012 11.0603 13.4477C11.1947 13.8903 11.414 14.2499 11.7183 14.5266C12.0226 14.7992 12.4316 14.9356 12.9453 14.9356Z" fill="white"/>
</g>
<defs>
<clipPath id="clip0_1946_11517">
<rect width="24.5938" height="24.5938" fill="white" transform="translate(0.882812)"/>
</clipPath>
</defs>
</svg>
