<svg width="25" height="25" viewBox="0 0 25 25" fill="none" xmlns="http://www.w3.org/2000/svg">
<g clip-path="url(#clip0_1946_11520)">
<path d="M12.5352 24.5938C19.3265 24.5938 24.832 19.0883 24.832 12.2969C24.832 5.5055 19.3265 0 12.5352 0C5.74378 0 0.238281 5.5055 0.238281 12.2969C0.238281 19.0883 5.74378 24.5938 12.5352 24.5938Z" fill="#77645C"/>
<path d="M10.4143 6.73958V5.7589C10.4143 5.49083 10.192 5.26855 9.92394 5.26855C9.6559 5.26855 9.43359 5.49083 9.43359 5.7589V6.77878C9.59704 6.75918 9.74741 6.73958 9.92394 6.73958H10.4143Z" fill="white"/>
<path d="M15.6486 6.77878V5.7589C15.6486 5.49083 15.4264 5.26855 15.1583 5.26855C14.8902 5.26855 14.668 5.49083 14.668 5.7589V6.73958H15.1583C15.3348 6.73958 15.4852 6.75918 15.6486 6.77878Z" fill="white"/>
<path d="M15.6419 6.77946V7.72091C15.6419 7.98896 15.4196 8.21124 15.1515 8.21124C14.8835 8.21124 14.6612 7.98896 14.6612 7.72091V6.74023H10.4116V7.72091C10.4116 7.98896 10.1893 8.21124 9.92127 8.21124C9.65322 8.21124 9.43092 7.98896 9.43092 7.72091V6.77946C7.50225 6.95597 6.65234 8.19815 6.65234 10.0091V15.5663C6.65234 17.5276 7.63302 18.8352 9.92127 18.8352H15.1515C17.4398 18.8352 18.4205 17.5276 18.4205 15.5663V10.0091C18.4205 8.19815 17.5705 6.95597 15.6419 6.77946ZM12.5364 15.4029H9.92127C9.65322 15.4029 9.43092 15.1806 9.43092 14.9125C9.43092 14.6445 9.65322 14.4222 9.92127 14.4222H12.5364C12.8044 14.4222 13.0267 14.6445 13.0267 14.9125C13.0267 15.1806 12.8044 15.4029 12.5364 15.4029ZM15.1515 12.1339H9.92127C9.65322 12.1339 9.43092 11.9117 9.43092 11.6436C9.43092 11.3755 9.65322 11.1533 9.92127 11.1533H15.1515C15.4196 11.1533 15.6419 11.3755 15.6419 11.6436C15.6419 11.9117 15.4196 12.1339 15.1515 12.1339Z" fill="white"/>
</g>
<defs>
<clipPath id="clip0_1946_11520">
<rect width="24.5938" height="24.5938" fill="white" transform="translate(0.238281)"/>
</clipPath>
</defs>
</svg>
