<svg width="26" height="25" viewBox="0 0 26 25" fill="none" xmlns="http://www.w3.org/2000/svg">
<g clip-path="url(#clip0_1946_11525)">
<path d="M12.8906 24.5938C19.682 24.5938 25.1875 19.0883 25.1875 12.2969C25.1875 5.5055 19.682 0 12.8906 0C6.09925 0 0.59375 5.5055 0.59375 12.2969C0.59375 19.0883 6.09925 24.5938 12.8906 24.5938Z" fill="#77645C"/>
<path d="M14.5469 16.7696H15.4763V18.8576C15.4763 19.165 15.8734 19.31 16.0839 19.078L18.3609 16.584C18.5594 16.3665 18.4 16.0272 18.0992 16.0272H17.1698V13.9392C17.1698 13.6318 16.7727 13.4868 16.5622 13.7188L14.2852 16.2128C14.0897 16.4303 14.2491 16.7696 14.5469 16.7696Z" fill="white"/>
<path fill-rule="evenodd" clip-rule="evenodd" d="M10.4179 5.76074H15.3605C17.8318 5.76074 18.4463 6.42106 18.4398 9.05581V15.4344C18.3336 15.3957 18.2184 15.3742 18.0972 15.3742H17.8216V13.94C17.8216 12.9877 16.6573 12.6413 16.0769 13.2793L13.8004 15.7727L13.797 15.7765C13.2058 16.4342 13.7052 17.3883 14.4999 17.4232L13.8437 18.3003C13.3141 18.9999 12.4577 18.9999 11.9281 18.3003L11.2678 17.4177C10.8036 16.7966 9.98639 16.7508 9.45029 17.3196L9.44375 17.3262C8.28654 18.5684 7.33203 18.1565 7.33203 16.4174V9.05581C7.33203 6.42106 7.94658 5.76074 10.4179 5.76074ZM17.1254 17.9358C16.8792 17.8244 16.61 17.6206 16.3281 17.3196C16.0824 17.056 15.7777 16.9228 15.4744 16.9162V16.7704H14.5449C14.2472 16.7704 14.0877 16.4311 14.2833 16.2136L16.5602 13.7196C16.7708 13.4876 17.1678 13.6326 17.1678 13.94V16.0279H18.0972C18.2789 16.0279 18.409 16.1517 18.4398 16.2976V16.4109C18.4398 16.4176 18.4398 16.4243 18.4397 16.4309C18.4282 16.4848 18.4019 16.5377 18.3589 16.5848L17.1254 17.9358ZM10.9278 12.1351H14.8505C15.1186 12.1351 15.3409 11.9128 15.3409 11.6448C15.3409 11.3767 15.1186 11.1544 14.8505 11.1544H10.9278C10.6598 11.1544 10.4375 11.3767 10.4375 11.6448C10.4375 11.9128 10.6598 12.1351 10.9278 12.1351ZM10.2741 9.51999H15.5043C15.7724 9.51999 15.9947 9.29769 15.9947 9.02965C15.9947 8.7616 15.7724 8.53932 15.5043 8.53932H10.2741C10.006 8.53932 9.78371 8.7616 9.78371 9.02965C9.78371 9.29769 10.006 9.51999 10.2741 9.51999Z" fill="white"/>
</g>
<defs>
<clipPath id="clip0_1946_11525">
<rect width="24.5938" height="24.5938" fill="white" transform="translate(0.59375)"/>
</clipPath>
</defs>
</svg>
