<svg width="25" height="25" viewBox="0 0 25 25" fill="none" xmlns="http://www.w3.org/2000/svg">
<g clip-path="url(#clip0_1946_11536)">
<path d="M12.6055 24.5938C19.3968 24.5938 24.9023 19.0883 24.9023 12.2969C24.9023 5.5055 19.3968 0 12.6055 0C5.81409 0 0.308594 5.5055 0.308594 12.2969C0.308594 19.0883 5.81409 24.5938 12.6055 24.5938Z" fill="#E9546A"/>
<path d="M13.0621 18.7971C12.8113 18.8857 12.3981 18.8857 12.1472 18.7971C10.0076 18.0667 5.22656 15.0195 5.22656 9.85484C5.22656 7.575 7.06372 5.73047 9.3288 5.73047C10.6716 5.73047 11.8595 6.37974 12.6047 7.38317C13.3499 6.37974 14.5451 5.73047 15.8806 5.73047C18.1457 5.73047 19.9828 7.575 19.9828 9.85484C19.9828 15.0195 15.2018 18.0667 13.0621 18.7971Z" fill="white"/>
</g>
<defs>
<clipPath id="clip0_1946_11536">
<rect width="24.5938" height="24.5938" fill="white" transform="translate(0.308594)"/>
</clipPath>
</defs>
</svg>
