<svg width="26" height="25" viewBox="0 0 26 25" fill="none" xmlns="http://www.w3.org/2000/svg">
<g clip-path="url(#clip0_1946_11539)">
<path d="M12.9609 24.5938C19.7523 24.5938 25.2578 19.0883 25.2578 12.2969C25.2578 5.5055 19.7523 0 12.9609 0C6.16956 0 0.664062 5.5055 0.664062 12.2969C0.664062 19.0883 6.16956 24.5938 12.9609 24.5938Z" fill="#3984E9"/>
<path fill-rule="evenodd" clip-rule="evenodd" d="M10.0483 17.3965H10.4126C10.6094 17.3965 10.879 17.5277 10.9956 17.688L12.0887 19.1455C12.5697 19.7868 13.3568 19.7868 13.8378 19.1455L14.9309 17.688C15.0693 17.5058 15.288 17.3965 15.5139 17.3965H15.8783C18.7932 17.3965 20.2507 15.939 20.2507 13.024V9.38029C20.2507 6.46529 18.7932 5.00781 15.8783 5.00781H10.0483C7.13328 5.00781 5.67578 6.46529 5.67578 9.38029V13.024C5.67578 16.6678 7.13328 17.3965 10.0483 17.3965ZM15.5761 10.9899C15.215 10.9899 14.9223 11.2827 14.9223 11.6437C14.9223 12.0048 15.215 12.2975 15.5761 12.2975H15.5819C15.943 12.2975 16.2357 12.0048 16.2357 11.6437C16.2357 11.2827 15.943 10.9899 15.5819 10.9899H15.5761ZM12.3065 11.6437C12.3065 11.2827 12.5992 10.9899 12.9603 10.9899H12.9662C13.3272 10.9899 13.62 11.2827 13.62 11.6437C13.62 12.0048 13.3272 12.2975 12.9662 12.2975H12.9603C12.5992 12.2975 12.3065 12.0048 12.3065 11.6437ZM10.3445 10.9899C9.98345 10.9899 9.69074 11.2827 9.69074 11.6437C9.69074 12.0048 9.98345 12.2975 10.3445 12.2975H10.3504C10.7115 12.2975 11.0042 12.0048 11.0042 11.6437C11.0042 11.2827 10.7115 10.9899 10.3504 10.9899H10.3445Z" fill="white"/>
</g>
<defs>
<clipPath id="clip0_1946_11539">
<rect width="24.5938" height="24.5938" fill="white" transform="translate(0.664062)"/>
</clipPath>
</defs>
</svg>
