<svg width="25" height="25" viewBox="0 0 25 25" fill="none" xmlns="http://www.w3.org/2000/svg">
<g clip-path="url(#clip0_1946_11553)">
<path d="M12.6719 24.5938C19.4633 24.5938 24.9688 19.0883 24.9688 12.2969C24.9688 5.5055 19.4633 0 12.6719 0C5.8805 0 0.375 5.5055 0.375 12.2969C0.375 19.0883 5.8805 24.5938 12.6719 24.5938Z" fill="#37C49C"/>
<path d="M16.2123 6.81264L14.6746 5.27494C13.5762 4.17658 11.7718 4.17658 10.6734 5.27494L9.13573 6.81264C8.82976 7.11861 8.82976 7.62072 9.13573 7.92669L12.1248 10.9158C12.4308 11.2218 12.9251 11.2218 13.231 10.9158L16.2201 7.92669C16.5183 7.62072 16.5183 7.11861 16.2123 6.81264Z" fill="white"/>
<path d="M7.18569 8.75877L5.64799 10.2965C4.54963 11.3948 4.54963 13.1993 5.64799 14.2976L7.18569 15.8353C7.49166 16.1413 7.98592 16.1413 8.29189 15.8353L11.281 12.8462C11.587 12.5403 11.587 12.046 11.281 11.74L8.29973 8.75877C7.99376 8.4528 7.49166 8.4528 7.18569 8.75877Z" fill="white"/>
<path d="M19.6906 10.2965L18.1529 8.75877C17.8469 8.4528 17.3527 8.4528 17.0467 8.75877L14.0576 11.7479C13.7516 12.0538 13.7516 12.5481 14.0576 12.8541L17.0467 15.8432C17.3527 16.1491 17.8469 16.1491 18.1529 15.8432L19.6906 14.3055C20.789 13.1993 20.789 11.3948 19.6906 10.2965Z" fill="white"/>
<path d="M9.13672 17.7808L10.6744 19.3185C11.7728 20.4169 13.5772 20.4169 14.6756 19.3185L16.2133 17.7808C16.5192 17.4749 16.5192 16.9806 16.2133 16.6746L13.2242 13.6855C12.9182 13.3796 12.4239 13.3796 12.118 13.6855L9.12887 16.6746C8.83075 16.9728 8.83075 17.4749 9.13672 17.7808Z" fill="white"/>
</g>
<defs>
<clipPath id="clip0_1946_11553">
<rect width="24.5938" height="24.5938" fill="white" transform="translate(0.375)"/>
</clipPath>
</defs>
</svg>
