<svg width="25" height="24" viewBox="0 0 25 24" fill="none" xmlns="http://www.w3.org/2000/svg">
<g clip-path="url(#clip0_1946_11548)">
<path d="M18.1164 3.612L15.7644 1.26C14.0844 -0.42 11.3244 -0.42 9.64441 1.26L7.29241 3.612C6.82441 4.08 6.82441 4.848 7.29241 5.316L11.8644 9.888C12.3324 10.356 13.0884 10.356 13.5564 9.888L18.1284 5.316C18.5844 4.848 18.5844 4.08 18.1164 3.612Z" fill="black"/>
<path d="M4.31513 6.58733L1.96313 8.93937C0.283124 10.6194 0.283124 13.3794 1.96313 15.0594L4.31513 17.4114C4.78312 17.8794 5.53912 17.8794 6.00712 17.4114L10.5791 12.8394C11.0471 12.3714 11.0471 11.6154 10.5791 11.1474L6.01912 6.58733C5.55112 6.11933 4.78312 6.11933 4.31513 6.58733Z" fill="black"/>
<path d="M23.4436 8.93937L21.0916 6.58733C20.6236 6.11933 19.8676 6.11933 19.3996 6.58733L14.8276 11.1594C14.3596 11.6274 14.3596 12.3834 14.8276 12.8514L19.3996 17.4234C19.8676 17.8914 20.6236 17.8914 21.0916 17.4234L23.4436 15.0714C25.1236 13.3794 25.1236 10.6194 23.4436 8.93937Z" fill="black"/>
<path d="M7.29001 20.3884L9.64201 22.7404C11.322 24.4204 14.082 24.4204 15.762 22.7404L18.114 20.3884C18.5821 19.9204 18.5821 19.1644 18.114 18.6964L13.542 14.1244C13.074 13.6564 12.318 13.6564 11.85 14.1244L7.27801 18.6964C6.82201 19.1524 6.82201 19.9204 7.29001 20.3884Z" fill="black"/>
</g>
<defs>
<clipPath id="clip0_1946_11548">
<rect width="24" height="24" fill="white" transform="translate(0.703125)"/>
</clipPath>
</defs>
</svg>
