<svg width="25" height="25" viewBox="0 0 25 25" fill="none" xmlns="http://www.w3.org/2000/svg">
<g clip-path="url(#clip0_1946_11559)">
<path d="M12.1407 24.0782C18.7897 24.0782 24.1798 18.6881 24.1798 12.0391C24.1798 5.39009 18.7897 0 12.1407 0C5.49165 0 0.101562 5.39009 0.101562 12.0391C0.101562 18.6881 5.49165 24.0782 12.1407 24.0782Z" fill="#C5D773"/>
<path d="M12.574 17.1334C12.7499 17.1743 12.7659 17.4047 12.5947 17.4618L11.5833 17.7946C9.04225 18.6139 7.70449 17.9291 6.87878 15.3879L6.05947 12.8596C5.24018 10.3185 5.91866 8.97435 8.45978 8.15504L8.79519 8.04397C9.05304 7.95856 9.30398 8.21721 9.23076 8.47879C9.19447 8.60843 9.15956 8.74375 9.12547 8.88473L8.49818 11.5667C7.79409 14.5814 8.82461 16.2456 11.8394 16.9625L12.574 17.1334Z" fill="white"/>
<path d="M15.4516 6.41152L14.3827 6.1619C12.2448 5.65624 10.9711 6.07228 10.2221 7.62128C10.0301 8.01174 9.8765 8.48538 9.74848 9.02945L9.12122 11.7114C8.49393 14.3869 9.31962 15.7054 11.9888 16.3391L13.0641 16.5952C13.4354 16.6848 13.781 16.7424 14.101 16.768C16.0981 16.96 17.1606 16.0255 17.6983 13.7148L18.3255 11.0393C18.9528 8.36378 18.1335 7.03881 15.4516 6.41152ZM14.2483 12.8891C14.1906 13.1067 13.9986 13.2475 13.781 13.2475C13.7426 13.2475 13.7042 13.2412 13.6594 13.2348L11.7967 12.7611C11.5407 12.6971 11.3871 12.4347 11.4511 12.1786C11.5151 11.9226 11.7776 11.769 12.0336 11.833L13.8962 12.3066C14.1586 12.3706 14.3123 12.6331 14.2483 12.8891ZM16.1237 10.7257C16.0661 10.9433 15.874 11.0841 15.6564 11.0841C15.618 11.0841 15.5796 11.0777 15.5348 11.0713L12.4304 10.284C12.1744 10.22 12.0208 9.95757 12.0848 9.70154C12.1488 9.4455 12.4112 9.29188 12.6673 9.3559L15.7716 10.1432C16.0341 10.2008 16.1877 10.4632 16.1237 10.7257Z" fill="white"/>
</g>
<defs>
<clipPath id="clip0_1946_11559">
<rect width="24.0782" height="24.0782" fill="white" transform="translate(0.101562)"/>
</clipPath>
</defs>
</svg>
