<svg width="25" height="25" viewBox="0 0 25 25" fill="none" xmlns="http://www.w3.org/2000/svg">
<g clip-path="url(#clip0_1946_11563)">
<path d="M12.4961 24.0782C19.1451 24.0782 24.5352 18.6881 24.5352 12.0391C24.5352 5.39009 19.1451 0 12.4961 0C5.84712 0 0.457031 5.39009 0.457031 12.0391C0.457031 18.6881 5.84712 24.0782 12.4961 24.0782Z" fill="#EC5757"/>
<path d="M17.8144 7.68537L13.6094 5.25728C12.9228 4.86086 12.0733 4.86086 11.3795 5.25728L7.18171 7.68537C6.49505 8.0818 6.07031 8.81801 6.07031 9.61794V14.46C6.07031 15.2528 6.49505 15.989 7.18171 16.3925L11.3866 18.8206C12.0733 19.217 12.9227 19.217 13.6165 18.8206L17.8214 16.3925C18.5081 15.9961 18.9328 15.2599 18.9328 14.46V9.61794C18.9258 8.81801 18.501 8.08887 17.8144 7.68537ZM14.0908 13.03L13.3546 13.4547L12.6184 13.8795C11.6768 14.4246 10.9053 13.9786 10.9053 12.8884V12.039V11.1895C10.9053 10.0993 11.6768 9.65333 12.6184 10.1984L13.3546 10.6232L14.0908 11.0479C15.0323 11.593 15.0323 12.4849 14.0908 13.03Z" fill="white"/>
</g>
<defs>
<clipPath id="clip0_1946_11563">
<rect width="24.0782" height="24.0782" fill="white" transform="translate(0.457031)"/>
</clipPath>
</defs>
</svg>
