<svg width="25" height="24" viewBox="0 0 25 24" fill="none" xmlns="http://www.w3.org/2000/svg">
<path d="M11.5692 2.4425C12.2592 1.8525 13.3892 1.8525 14.0892 2.4425L15.6692 3.80261C15.9692 4.06261 16.5292 4.27258 16.9292 4.27258H18.6292C19.6892 4.27258 20.5592 5.14251 20.5592 6.20251V7.90258C20.5592 8.29258 20.7692 8.86259 21.0292 9.16259L22.3892 10.7425C22.9792 11.4325 22.9792 12.5626 22.3892 13.2626L21.0292 14.8425C20.7692 15.1425 20.5592 15.7025 20.5592 16.1025V17.8026C20.5592 18.8626 19.6892 19.7325 18.6292 19.7325H16.9292C16.5392 19.7325 15.9692 19.9425 15.6692 20.2025L14.0892 21.5625C13.3992 22.1525 12.2692 22.1525 11.5692 21.5625L9.98923 20.2025C9.68923 19.9425 9.12922 19.7325 8.72922 19.7325H6.99921C5.93921 19.7325 5.06922 18.8626 5.06922 17.8026V16.0925C5.06922 15.7025 4.85923 15.1425 4.60923 14.8425L3.25922 13.2526C2.67922 12.5626 2.67922 11.4426 3.25922 10.7526L4.60923 9.16259C4.85923 8.86259 5.06922 8.30259 5.06922 7.91259V6.20251C5.06922 5.14251 5.93921 4.27258 6.99921 4.27258H8.72922C9.11922 4.27258 9.68923 4.06261 9.98923 3.80261L11.5692 2.4425Z" stroke="black" stroke-width="1.5" stroke-linecap="round" stroke-linejoin="round"/>
<path d="M17.6444 9.5H14.5842L13.8242 11.7901H16.1143C16.9544 11.7901 17.6444 12.4702 17.6444 13.3202C17.6444 14.1602 16.9644 14.8502 16.1143 14.8502H13.8242" stroke="black" stroke-width="1.50007" stroke-linecap="round" stroke-linejoin="round"/>
<path d="M9.82422 9.5C10.9242 9.5 11.8242 10.4 11.8242 11.5V12.85C11.8242 13.95 10.9242 14.85 9.82422 14.85C8.72422 14.85 7.82422 13.95 7.82422 12.85V11.5C7.82422 10.39 8.72422 9.5 9.82422 9.5Z" stroke="black" stroke-width="1.5" stroke-linecap="round" stroke-linejoin="round"/>
</svg>
