<svg width="25" height="24" viewBox="0 0 25 24" fill="none" xmlns="http://www.w3.org/2000/svg">
<path d="M9.18359 10C10.2882 10 11.1836 9.10457 11.1836 8C11.1836 6.89543 10.2882 6 9.18359 6C8.07902 6 7.18359 6.89543 7.18359 8C7.18359 9.10457 8.07902 10 9.18359 10Z" stroke="black" stroke-width="1.5" stroke-linecap="round" stroke-linejoin="round"/>
<path d="M13.1836 2H9.18359C4.18359 2 2.18359 4 2.18359 9V15C2.18359 20 4.18359 22 9.18359 22H15.1836C20.1836 22 22.1836 20 22.1836 15V10" stroke="black" stroke-width="1.5" stroke-linecap="round" stroke-linejoin="round"/>
<path d="M16.7422 6.94055L20.6222 3.06055" stroke="black" stroke-width="1.5" stroke-linecap="round"/>
<path d="M20.6222 6.94055L16.7422 3.06055" stroke="black" stroke-width="1.5" stroke-linecap="round"/>
<path d="M2.85156 18.9505L7.78156 15.6405C8.57156 15.1105 9.71156 15.1705 10.4215 15.7805L10.7515 16.0705C11.5315 16.7405 12.7915 16.7405 13.5715 16.0705L17.7315 12.5005C18.5115 11.8305 19.7715 11.8305 20.5515 12.5005L22.1815 13.9005" stroke="black" stroke-width="1.5" stroke-linecap="round" stroke-linejoin="round"/>
</svg>
