<svg width="25" height="24" viewBox="0 0 25 24" fill="none" xmlns="http://www.w3.org/2000/svg">
<path d="M18.4287 10.7091C18.8229 13.4399 15.9962 14.0178 14.37 13.9672C14.2655 13.964 14.1671 14.0148 14.1054 14.0992C13.9372 14.3291 13.6683 14.6265 13.4607 14.6265C13.2275 14.6265 13.0177 15.0749 12.922 15.3539C12.912 15.3831 12.9408 15.4102 12.9702 15.4006C15.5458 14.5643 16.5564 14.2775 16.9917 14.3581C17.3432 14.4232 18.0006 15.5999 18.2854 16.1801C17.5775 16.2207 17.3416 15.5863 17.1789 15.4724C17.0487 15.3813 16.9999 15.7978 16.9917 16.0174C16.8372 15.9361 16.6419 15.8222 16.6256 15.4724C16.6094 15.1227 16.4304 15.2122 16.292 15.2284C16.1537 15.2447 14.0302 15.9279 13.7129 16.0174C13.3956 16.1069 13.0295 16.2289 12.7285 16.4404C12.224 16.6844 11.8986 16.5136 11.8091 16.0987C11.7375 15.7669 12.2023 14.7458 12.4437 14.2768C12.1454 14.3879 11.526 14.6135 11.4348 14.6265C11.3465 14.6391 10.2256 15.5045 9.62611 15.9747C9.59114 16.0021 9.56863 16.0423 9.56059 16.086C9.46469 16.6071 9.15859 16.7529 8.62791 17.026C8.20087 17.2457 6.70943 19.5377 5.94252 20.7749C5.88949 20.8605 5.81166 20.9262 5.72809 20.9823C5.24096 21.3093 4.74484 22.1416 4.54363 22.5489C4.25724 21.7225 4.63041 21.0116 4.8528 20.7594C4.75516 20.6748 4.53007 20.7242 4.42972 20.7594C4.70635 19.8078 5.67454 19.8078 5.64199 19.8078C5.82098 19.6532 7.92008 16.6518 7.96889 16.5136C8.01732 16.3764 7.93765 15.735 8.99264 15.3833C9.0094 15.3777 9.02601 15.3701 9.04087 15.3605C9.86279 14.8323 10.4794 13.9807 10.6863 13.6179C9.58898 13.5425 8.33237 12.9307 7.67534 12.5377C7.5337 12.453 7.38349 12.3793 7.2195 12.3607C6.31989 12.2589 5.41915 12.8344 5.0562 13.1624C4.90649 12.9542 5.07518 12.3491 5.17824 12.0725C4.81374 12.0204 4.27785 12.5497 4.05547 12.8208C3.81464 12.4434 4.02563 11.7688 4.16123 11.4787C3.67958 11.4917 3.35306 11.7119 3.25 11.8204C3.64867 8.85151 6.69808 9.71493 6.73222 9.75436C6.5695 9.58518 6.58306 9.36394 6.61018 9.27447C8.45705 9.32327 9.31947 9.01418 9.86459 8.69696C14.1604 6.29749 16.0114 7.76971 16.6948 8.1398C17.3782 8.50989 18.6189 8.66036 19.4773 8.31874C20.5024 7.85511 20.3481 6.66006 20.1404 6.20395C19.9126 5.70372 18.6271 5.01233 18.1715 4.13796C17.7158 3.26359 18.1129 2.20029 18.6407 2.05209C19.1436 1.91088 19.5027 2.07516 19.7783 2.32411C19.9621 2.49008 20.478 2.60879 20.6936 2.68606C20.9092 2.76334 21.2672 2.86501 21.2469 2.92601C21.2265 2.98702 20.8814 2.97887 20.8279 2.97887C20.718 2.97887 20.5879 2.99514 20.718 3.05615C20.8707 3.11805 21.1011 3.20802 21.2114 3.26725C21.2258 3.27495 21.2228 3.295 21.2071 3.29923C20.4584 3.50073 19.7899 3.08496 19.2942 3.56451C18.7898 4.05254 19.8638 4.42669 20.417 5.01233C20.9703 5.59796 21.5398 6.29747 21.0842 7.8917C20.7314 9.1259 19.2531 10.1753 18.4895 10.5857C18.4456 10.6093 18.4215 10.6598 18.4287 10.7091Z" fill="white"/>
</svg>
