<svg width="26" height="25" viewBox="0 0 26 25" fill="none" xmlns="http://www.w3.org/2000/svg">
<path d="M15.5265 9.86702L10.2557 15.1378C9.90963 14.7918 9.63509 14.3809 9.44778 13.9287C9.26047 13.4765 9.16406 12.9919 9.16406 12.5024C9.16406 12.013 9.26047 11.5283 9.44778 11.0761C9.63509 10.624 9.90963 10.2131 10.2557 9.86702C10.6018 9.52092 11.0127 9.24639 11.4648 9.05908C11.917 8.8718 12.4017 8.77539 12.8911 8.77539C13.3806 8.77539 13.8652 8.8718 14.3174 9.05908C14.7696 9.24639 15.1804 9.52092 15.5265 9.86702Z" stroke="black" stroke-width="1.5" stroke-linecap="round" stroke-linejoin="round"/>
<path d="M18.9505 6.01074C17.1276 4.63574 15.0443 3.88574 12.888 3.88574C9.21093 3.88574 5.78387 6.05243 3.39844 9.80243C2.46094 11.2712 2.46094 13.7399 3.39844 15.2087C4.22137 16.5003 5.17968 17.6149 6.22137 18.5108" stroke="black" stroke-width="1.5" stroke-linecap="round" stroke-linejoin="round"/>
<path d="M9.16016 20.3441C10.3477 20.8441 11.6081 21.1149 12.8893 21.1149C16.5664 21.1149 19.9935 18.9483 22.3789 15.1983C23.3164 13.7295 23.3164 11.2607 22.3789 9.79199C22.0352 9.25034 21.6602 8.73993 21.2747 8.26074" stroke="black" stroke-width="1.5" stroke-linecap="round" stroke-linejoin="round"/>
<path d="M16.543 13.2295C16.4019 13.9561 16.0468 14.624 15.5234 15.1474C15 15.6708 14.3321 16.0259 13.6055 16.167" stroke="black" stroke-width="1.5" stroke-linecap="round" stroke-linejoin="round"/>
<path d="M10.25 15.1361L2.46875 22.9174M23.3031 2.08301L15.5219 9.86424" stroke="black" stroke-width="1.5" stroke-linecap="round" stroke-linejoin="round"/>
</svg>
