<svg width="25" height="24" viewBox="0 0 25 24" fill="none" xmlns="http://www.w3.org/2000/svg">
<path d="M9.35547 3.5V2C9.35547 1.59 9.01547 1.25 8.60547 1.25C8.19547 1.25 7.85547 1.59 7.85547 2V3.56C8.10547 3.53 8.33547 3.5 8.60547 3.5H9.35547Z" fill="black"/>
<path d="M17.3555 3.56V2C17.3555 1.59 17.0155 1.25 16.6055 1.25C16.1955 1.25 15.8555 1.59 15.8555 2V3.5H16.6055C16.8755 3.5 17.1055 3.53 17.3555 3.56Z" fill="black"/>
<path d="M17.3555 3.56V5C17.3555 5.41 17.0155 5.75 16.6055 5.75C16.1955 5.75 15.8555 5.41 15.8555 5V3.5H9.35547V5C9.35547 5.41 9.01547 5.75 8.60547 5.75C8.19547 5.75 7.85547 5.41 7.85547 5V3.56C4.90547 3.83 3.60547 5.73 3.60547 8.5V17C3.60547 20 5.10547 22 8.60547 22H16.6055C20.1055 22 21.6055 20 21.6055 17V8.5C21.6055 5.73 20.3055 3.83 17.3555 3.56ZM12.6055 16.75H8.60547C8.19547 16.75 7.85547 16.41 7.85547 16C7.85547 15.59 8.19547 15.25 8.60547 15.25H12.6055C13.0155 15.25 13.3555 15.59 13.3555 16C13.3555 16.41 13.0155 16.75 12.6055 16.75ZM16.6055 11.75H8.60547C8.19547 11.75 7.85547 11.41 7.85547 11C7.85547 10.59 8.19547 10.25 8.60547 10.25H16.6055C17.0155 10.25 17.3555 10.59 17.3555 11C17.3555 11.41 17.0155 11.75 16.6055 11.75Z" fill="black"/>
</svg>
