<svg width="25" height="24" viewBox="0 0 25 24" fill="none" xmlns="http://www.w3.org/2000/svg">
<path d="M12.6944 2.91016C9.3844 2.91016 6.6944 5.60016 6.6944 8.91016V11.8002C6.6944 12.4102 6.4344 13.3402 6.1244 13.8602L4.9744 15.7702C4.2644 16.9502 4.7544 18.2602 6.0544 18.7002C10.3644 20.1402 15.0144 20.1402 19.3244 18.7002C20.5344 18.3002 21.0644 16.8702 20.4044 15.7702L19.2544 13.8602C18.9544 13.3402 18.6944 12.4102 18.6944 11.8002V8.91016C18.6944 5.61016 15.9944 2.91016 12.6944 2.91016Z" stroke="black" stroke-width="1.5" stroke-miterlimit="10" stroke-linecap="round"/>
<path d="M14.5437 3.19945C14.2337 3.10945 13.9137 3.03945 13.5837 2.99945C12.6237 2.87945 11.7038 2.94945 10.8438 3.19945C11.1337 2.45945 11.8538 1.93945 12.6938 1.93945C13.5338 1.93945 14.2537 2.45945 14.5437 3.19945Z" stroke="black" stroke-width="1.5" stroke-miterlimit="10" stroke-linecap="round" stroke-linejoin="round"/>
<path d="M15.6953 19.0605C15.6953 20.7105 14.3453 22.0605 12.6953 22.0605C11.8753 22.0605 11.1153 21.7205 10.5753 21.1805C10.0353 20.6405 9.69531 19.8805 9.69531 19.0605" stroke="black" stroke-width="1.5" stroke-miterlimit="10"/>
</svg>
