<svg width="25" height="24" viewBox="0 0 25 24" fill="none" xmlns="http://www.w3.org/2000/svg">
<path d="M19.6583 14.49L18.6583 12.83C18.4483 12.46 18.2583 11.76 18.2583 11.35V8.82C18.2583 6.47 16.8783 4.44 14.8883 3.49C14.3683 2.57 13.4083 2 12.3083 2C11.2183 2 10.2383 2.59 9.7183 3.52C7.7683 4.49 6.4183 6.5 6.4183 8.82V11.35C6.4183 11.76 6.2283 12.46 6.0183 12.82L5.0083 14.49C4.6083 15.16 4.5183 15.9 4.7683 16.58C5.0083 17.25 5.5783 17.77 6.3183 18.02C8.2583 18.68 10.2983 19 12.3383 19C14.3783 19 16.4183 18.68 18.3583 18.03C19.0583 17.8 19.5983 17.27 19.8583 16.58C20.1183 15.89 20.0483 15.13 19.6583 14.49Z" fill="black"/>
<path d="M15.15 20.01C14.73 21.17 13.62 22 12.32 22C11.53 22 10.75 21.68 10.2 21.11C9.88 20.81 9.64 20.41 9.5 20C9.63 20.02 9.76 20.03 9.9 20.05C10.13 20.08 10.37 20.11 10.61 20.13C11.18 20.18 11.76 20.21 12.34 20.21C12.91 20.21 13.48 20.18 14.04 20.13C14.25 20.11 14.46 20.1 14.66 20.07C14.82 20.05 14.98 20.03 15.15 20.01Z" fill="black"/>
</svg>
