<svg width="24" height="24" viewBox="0 0 24 24" fill="none" xmlns="http://www.w3.org/2000/svg">
<path d="M8.03288 11.8246C8.82471 11.8156 9.60282 12.0813 10.1501 12.6439C10.3355 12.8332 10.4852 13.032 10.6423 13.2406C10.8418 13.5044 11.0565 13.7903 11.3512 14.058C11.5688 14.2562 11.784 14.4121 11.9938 14.5228C12.1934 14.6258 12.3909 14.6901 12.5866 14.7132H12.5876C13.5558 14.8239 14.0531 14.0978 14.5192 13.4154C14.9028 12.8542 15.2708 12.3147 15.8796 12.0726C16.1319 11.9722 16.3949 11.9256 16.6549 11.932C16.9202 11.9397 17.1808 12.001 17.4216 12.1156C17.8385 12.3139 18.1464 12.5675 18.3639 12.8597C18.5866 13.1584 18.7128 13.4917 18.7643 13.8431C18.8274 14.2718 18.7772 14.7249 18.6589 15.1742C18.3421 16.3781 17.605 17.5518 16.696 18.3939C16.1424 18.9062 15.508 19.3338 14.8258 19.6595C13.9644 20.0703 13.0201 20.3224 12.0622 20.3881C11.1428 20.4511 10.2088 20.339 9.31901 20.0287C8.21317 19.6424 6.99157 18.901 6.1071 17.933C5.35516 17.1076 4.84073 16.1147 4.8278 15.0228C4.81621 14.0545 5.1797 13.2918 5.7321 12.7523C6.04239 12.4498 6.41205 12.2196 6.80729 12.0638C7.1974 11.9106 7.61702 11.8297 8.03288 11.8246ZM7.44499 13.8314C7.32792 13.856 7.25323 13.9721 7.27897 14.0892C7.31116 14.2334 7.35346 14.378 7.40495 14.5209C7.7707 15.4852 8.6184 16.2987 9.67546 16.8021C10.7248 17.3017 11.9853 17.4989 13.1852 17.2377C13.4131 17.1874 13.6402 17.1215 13.863 17.0365C13.9749 16.994 14.0314 16.8692 13.9889 16.7572C13.9464 16.6452 13.8217 16.5887 13.7096 16.6312C13.5089 16.7072 13.3029 16.7678 13.0944 16.8129C11.9922 17.0536 10.8313 16.8705 9.86296 16.4095C8.90263 15.9525 8.13669 15.2236 7.81218 14.3675C7.76711 14.2478 7.72984 14.1236 7.7028 13.9974C7.67825 13.8804 7.5621 13.8057 7.44499 13.8314ZM16.6071 13.7943C16.4913 13.766 16.3739 13.8378 16.3454 13.9535C16.2758 14.2419 16.1611 14.5117 16.0104 14.764C15.8572 15.0202 15.6651 15.2598 15.445 15.4877C15.3616 15.574 15.3627 15.7107 15.4489 15.7943C15.5351 15.8779 15.6718 15.8764 15.7555 15.7904C15.9988 15.5394 16.21 15.2727 16.3825 14.9857C16.555 14.6974 16.6864 14.3881 16.7663 14.056C16.7946 13.9402 16.7228 13.8228 16.6071 13.7943ZM8.21843 4.74743C9.61423 4.43196 11.0554 4.57593 12.2799 5.1322C13.5186 5.69363 14.5396 6.67371 15.0778 8.01794C15.1847 8.28316 15.2719 8.56424 15.3376 8.85778C15.3839 9.06241 15.4192 9.26972 15.4411 9.47692C15.4617 9.67506 15.469 9.87449 15.4626 10.0726C15.4484 10.4678 15.382 10.8608 15.2301 11.2123C15.0898 11.5355 14.8791 11.8255 14.5778 12.0521C14.3694 12.209 14.138 12.334 13.8962 12.4203C13.4829 12.5683 13.0306 12.6059 12.5993 12.5004C12.1602 12.3935 11.748 12.1407 11.4235 11.7093C11.2651 11.4982 11.1287 11.2457 11.0231 10.9496H11.0241C10.867 10.5312 10.6762 10.2003 10.4548 9.94665C10.2424 9.70342 10.0005 9.52966 9.73405 9.41637C9.56934 9.34689 9.39692 9.30387 9.2155 9.28454C9.0275 9.26522 8.82702 9.2705 8.61198 9.29626C8.39064 9.32331 8.15987 9.37157 7.91667 9.43591C7.66575 9.50284 7.40928 9.58381 7.14421 9.67516C7.11735 9.68664 7.08795 9.69542 7.05729 9.70055C6.63366 9.78039 6.26343 9.7759 5.95182 9.70251C5.58113 9.61493 5.28892 9.43304 5.0778 9.18591C4.88465 8.95799 4.76465 8.71297 4.70671 8.45544C4.64496 8.18382 4.65539 7.9054 4.72233 7.63122C4.8614 7.04942 5.17055 6.53974 5.58757 6.11364C6.02921 5.66298 6.59217 5.30751 7.20378 5.06286C7.53597 4.93024 7.87465 4.82469 8.21843 4.74743ZM8.97917 6.88122C8.41647 6.76791 7.89674 6.79058 7.42546 6.95153C6.95303 7.1138 6.53227 7.41428 6.16667 7.85583C6.08952 7.94723 6.10366 8.08328 6.19499 8.16052C6.28639 8.23776 6.42369 8.22485 6.49968 8.1322C6.81386 7.75235 7.1695 7.4972 7.56608 7.36071C7.96268 7.22551 8.40717 7.20816 8.89518 7.30602C9.01221 7.33038 9.12676 7.25306 9.15007 7.1361C9.17322 7.01907 9.0961 6.90459 8.97917 6.88122Z" fill="black"/>
</svg>
