<svg width="26" height="25" viewBox="0 0 26 25" fill="none" xmlns="http://www.w3.org/2000/svg">
<g clip-path="url(#clip0_1946_11619)">
<mask id="mask0_1946_11619" style="mask-type:luminance" maskUnits="userSpaceOnUse" x="1" y="1" width="25" height="23">
<path d="M25.2461 1.25H1.24609V23.75H25.2461V1.25Z" fill="white"/>
</mask>
<g mask="url(#mask0_1946_11619)">
<mask id="mask1_1946_11619" style="mask-type:luminance" maskUnits="userSpaceOnUse" x="1" y="1" width="25" height="23">
<path d="M1.24609 1.25H25.2461V23.7331H1.24609V1.25Z" fill="white"/>
</mask>
<g mask="url(#mask1_1946_11619)">
<path d="M25.0977 13.5633C24.1358 14.5214 22.8045 14.2908 21.8445 13.3289L14.082 5.5289L17.7195 1.87826C17.9632 1.63368 18.2626 1.45202 18.5921 1.34898C18.9216 1.24593 19.2712 1.22458 19.6107 1.28677C19.9503 1.34896 20.2697 1.49283 20.5412 1.70596C20.8128 1.91909 21.0284 2.19509 21.1695 2.51015L25.2158 13.0514C25.2484 13.1362 25.2557 13.2287 25.2367 13.3176C25.2178 13.4065 25.1734 13.4879 25.1089 13.552L22.5533 16.0964L25.0995 13.5633H25.0977Z" fill="#472459"/>
<path d="M21.8432 13.3282L11.6882 3.12824C11.4602 2.89899 11.1893 2.71686 10.8909 2.59234C10.5926 2.46778 10.2726 2.40323 9.94924 2.40235C9.62592 2.40148 9.30557 2.46431 9.00654 2.58726C8.70749 2.71019 8.43559 2.89084 8.20637 3.11886L1.97199 9.32511C1.74273 9.55311 1.56062 9.82404 1.43607 10.1224C1.31153 10.4208 1.24697 10.7408 1.2461 11.0641C1.24523 11.3874 1.30806 11.7078 1.431 12.0068C1.55394 12.3059 1.73458 12.5778 1.96261 12.807L12.1176 23.007C12.3457 23.2361 12.6167 23.4181 12.9152 23.5425C13.2136 23.6669 13.5337 23.7312 13.857 23.7319C14.1803 23.7326 14.5006 23.6696 14.7996 23.5465C15.0986 23.4234 15.3704 23.2426 15.5995 23.0145L17.6057 21.0195L18.1907 20.4345L16.3157 18.5539C15.6287 18.9979 14.81 19.1925 13.9967 19.1051C13.1833 19.0177 12.4247 18.6537 11.8476 18.0739L10.5726 16.7895C10.5292 16.7466 10.4947 16.6955 10.4712 16.6392C10.4476 16.5828 10.4355 16.5224 10.4355 16.4614C10.4355 16.4003 10.4476 16.3399 10.4712 16.2836C10.4947 16.2272 10.5292 16.1761 10.5726 16.1332L11.2007 15.5107L9.62574 13.9245C9.50347 13.8063 9.42929 13.647 9.41752 13.4774C9.40574 13.3077 9.45722 13.1397 9.56199 13.0057C9.62167 12.9337 9.69579 12.875 9.77957 12.8334C9.86334 12.7917 9.95489 12.7681 10.0484 12.7641C10.1418 12.76 10.2351 12.7756 10.3221 12.8098C10.4092 12.844 10.4882 12.896 10.5539 12.9626L12.1495 14.5676L13.402 13.3245L11.8251 11.7382C11.7031 11.6198 11.6293 11.4604 11.6178 11.2907C11.6064 11.1211 11.6582 10.9532 11.7632 10.8195C11.823 10.7473 11.8971 10.6884 11.981 10.6466C12.0648 10.6048 12.1565 10.581 12.2501 10.5767C12.3437 10.5725 12.4372 10.5879 12.5245 10.622C12.6118 10.656 12.691 10.708 12.757 10.7745L14.3507 12.3814L14.9807 11.7551C15.0239 11.712 15.0751 11.6779 15.1315 11.6547C15.1879 11.6315 15.2483 11.6196 15.3092 11.6198C15.3702 11.6199 15.4306 11.6321 15.4868 11.6557C15.543 11.6792 15.5941 11.7137 15.637 11.757L16.912 13.0395C17.4891 13.6202 17.849 14.3817 17.9313 15.1962C18.0136 16.0108 17.8132 16.8289 17.3639 17.5132L19.2389 19.3939L20.3057 18.3307L21.8357 16.8082L25.0982 13.5626C24.1326 14.5207 22.8014 14.2901 21.8432 13.3282Z" fill="url(#paint0_linear_1946_11619)"/>
</g>
</g>
</g>
<defs>
<linearGradient id="paint0_linear_1946_11619" x1="13.1714" y1="2.40262" x2="13.1714" y2="23.7326" gradientUnits="userSpaceOnUse">
<stop stop-color="#FFCA4A"/>
<stop offset="1" stop-color="#F7931A"/>
</linearGradient>
<clipPath id="clip0_1946_11619">
<rect width="25" height="25" fill="white" transform="translate(0.746094)"/>
</clipPath>
</defs>
</svg>
