<svg width="24" height="24" viewBox="0 0 24 24" fill="none" xmlns="http://www.w3.org/2000/svg">
<mask id="path-1-outside-1_616_85" maskUnits="userSpaceOnUse" x="-0.823941" y="-2.72304" width="25.4558" height="25.4558" fill="black">
<rect fill="white" x="-0.823941" y="-2.72304" width="25.4558" height="25.4558"/>
<path d="M8.21615 3.90178C8.40227 3.83722 8.56546 3.8156 8.76172 3.81736C8.79124 3.81722 8.82076 3.81708 8.85118 3.81693C8.94929 3.81659 9.04739 3.81697 9.1455 3.81734C9.21617 3.81725 9.28684 3.81711 9.3575 3.81693C9.54884 3.81658 9.74018 3.81686 9.93152 3.81728C10.132 3.81763 10.3324 3.81746 10.5328 3.81737C10.8693 3.81731 11.2057 3.81765 11.5422 3.81823C11.9311 3.8189 12.32 3.81894 12.7089 3.81865C13.0832 3.81838 13.4576 3.81853 13.832 3.81889C13.9912 3.81903 14.1504 3.81903 14.3097 3.81891C14.4971 3.81879 14.6846 3.81905 14.872 3.81959C14.9408 3.81973 15.0096 3.81974 15.0783 3.81962C15.1722 3.81947 15.2661 3.81978 15.36 3.82022C15.4008 3.81999 15.4008 3.81999 15.4424 3.81976C15.7223 3.8221 15.8879 3.88663 16.084 4.08507C16.1161 4.11684 16.1483 4.1486 16.1814 4.18132C16.3291 4.36516 16.3485 4.54312 16.3484 4.77409C16.3486 4.81211 16.3486 4.81211 16.3487 4.85089C16.3489 4.93401 16.3486 5.0171 16.3482 5.10021C16.3482 5.15827 16.3482 5.21633 16.3482 5.27439C16.3482 5.39575 16.348 5.51712 16.3475 5.63848C16.3469 5.79394 16.3469 5.94939 16.3471 6.10484C16.3472 6.2246 16.347 6.34436 16.3468 6.46412C16.3467 6.52145 16.3467 6.57877 16.3467 6.6361C16.3467 6.71617 16.3464 6.79624 16.346 6.87631C16.3459 6.92184 16.3457 6.96736 16.3456 7.01427C16.3327 7.24233 16.2485 7.34501 16.0862 7.49895C15.8656 7.67538 15.5235 7.61376 15.2557 7.60908C15.2071 7.73257 15.1976 7.84 15.1948 7.9723C15.1938 8.01485 15.1929 8.05741 15.1919 8.10125C15.1889 8.29534 15.1865 8.48941 15.1849 8.68351C15.184 8.78588 15.1823 8.88818 15.1797 8.99052C15.1767 9.11452 15.1752 9.23847 15.1747 9.36251C15.174 9.43233 15.1719 9.50213 15.1698 9.57191C15.1668 9.8063 15.1668 9.8063 15.269 10.009C15.3454 10.0735 15.4223 10.1268 15.5077 10.1789C15.5523 10.2138 15.5523 10.2138 15.5978 10.2495C15.6224 10.2679 15.6469 10.2864 15.6722 10.3054C16.6309 11.0384 17.641 11.9874 17.8482 13.2387C17.9033 13.7268 17.9033 13.7268 17.8003 13.9328C17.6444 14.1106 17.5205 14.1895 17.2786 14.2227C16.8335 14.242 16.3881 14.2382 15.9427 14.2376C15.8508 14.2375 15.7588 14.2375 15.6669 14.2374C15.4508 14.2374 15.2347 14.2372 15.0186 14.2369C14.7723 14.2366 14.5259 14.2365 14.2796 14.2364C13.7736 14.2361 13.2675 14.2357 12.7615 14.2351C12.7132 14.3571 12.7051 14.4594 12.7057 14.5902C12.7058 14.6316 12.7059 14.673 12.706 14.7156C12.7063 14.7609 12.7067 14.8061 12.707 14.8527C12.7072 14.901 12.7073 14.9492 12.7075 14.9975C12.7078 15.1014 12.7083 15.2052 12.7089 15.309C12.7098 15.4734 12.7103 15.6377 12.7107 15.802C12.7119 16.2693 12.7137 16.7366 12.716 17.2038C12.7172 17.462 12.7181 17.7201 12.7186 17.9782C12.7189 18.1415 12.7197 18.3047 12.7208 18.4679C12.7214 18.5696 12.7215 18.6714 12.7216 18.7731C12.7218 18.8425 12.7224 18.9119 12.7231 18.9812C12.7226 19.268 12.7056 19.4572 12.5222 19.6864C12.384 19.8123 12.2227 19.8819 12.0343 19.8765C11.8623 19.8427 11.7534 19.7506 11.6301 19.6305C11.4633 19.3791 11.4915 19.0736 11.4932 18.7845C11.4933 18.7353 11.4932 18.6861 11.4932 18.6369C11.4932 18.5041 11.4936 18.3713 11.4941 18.2385C11.4946 18.0994 11.4947 17.9603 11.4948 17.8213C11.495 17.5582 11.4956 17.2952 11.4964 17.0322C11.4972 16.7326 11.4976 16.433 11.498 16.1334C11.4988 15.5174 11.5001 14.9015 11.5018 14.2855C11.3857 14.2404 11.2897 14.2289 11.1655 14.2294C11.1283 14.2294 11.091 14.2294 11.0527 14.2294C11.0121 14.2296 10.9715 14.2299 10.9296 14.2302C10.8867 14.2302 10.8438 14.2303 10.7995 14.2304C10.7062 14.2306 10.6129 14.2309 10.5196 14.2313C10.372 14.232 10.2245 14.2323 10.0769 14.2325C9.73685 14.2331 9.39685 14.2342 9.05684 14.2354C8.74531 14.2364 8.43378 14.2373 8.12225 14.2378C7.97562 14.238 7.82899 14.2385 7.68237 14.2392C7.56959 14.2397 7.45681 14.2398 7.34403 14.24C7.30353 14.2403 7.26303 14.2405 7.2213 14.2408C7.18393 14.2408 7.14657 14.2408 7.10807 14.2408C7.07575 14.2409 7.04343 14.241 7.01014 14.2412C6.77615 14.226 6.62313 14.1506 6.46302 13.9832C6.28366 13.6757 6.34959 13.3168 6.43192 12.9858C6.76559 11.7926 7.75276 10.8302 8.75724 10.1588C8.94215 10.0234 8.94215 10.0234 9.02882 9.81964C9.02842 9.77975 9.02803 9.73986 9.02763 9.69876C9.02762 9.65337 9.0276 9.60799 9.02759 9.56123C9.02669 9.51205 9.02577 9.46288 9.02483 9.4137C9.0245 9.36311 9.02425 9.31253 9.02407 9.26194C9.0234 9.12918 9.02167 8.99645 9.01972 8.86371C9.01791 8.7281 9.01711 8.59248 9.01622 8.45687C9.01433 8.19105 9.01132 7.92526 9.00761 7.65947C8.82889 7.59378 8.66341 7.60889 8.4747 7.61469C8.29846 7.60659 8.18277 7.55448 8.05654 7.43272C8.03796 7.41557 8.01938 7.39843 8.00024 7.38076C7.87514 7.19844 7.86435 6.97706 7.8637 6.76243C7.86353 6.73732 7.86335 6.71221 7.86318 6.68634C7.86272 6.60423 7.86281 6.52213 7.86295 6.44002C7.86284 6.3824 7.86271 6.32477 7.86255 6.26715C7.86233 6.14672 7.86239 6.02629 7.86264 5.90586C7.86293 5.75217 7.86242 5.59849 7.86169 5.4448C7.86122 5.3259 7.86123 5.207 7.86137 5.0881C7.86138 5.03146 7.86123 4.97482 7.86091 4.91818C7.85683 4.06166 7.85683 4.06166 8.21615 3.90178Z"/>
</mask>
<path d="M8.21615 3.90178C8.40227 3.83722 8.56546 3.8156 8.76172 3.81736C8.79124 3.81722 8.82076 3.81708 8.85118 3.81693C8.94929 3.81659 9.04739 3.81697 9.1455 3.81734C9.21617 3.81725 9.28684 3.81711 9.3575 3.81693C9.54884 3.81658 9.74018 3.81686 9.93152 3.81728C10.132 3.81763 10.3324 3.81746 10.5328 3.81737C10.8693 3.81731 11.2057 3.81765 11.5422 3.81823C11.9311 3.8189 12.32 3.81894 12.7089 3.81865C13.0832 3.81838 13.4576 3.81853 13.832 3.81889C13.9912 3.81903 14.1504 3.81903 14.3097 3.81891C14.4971 3.81879 14.6846 3.81905 14.872 3.81959C14.9408 3.81973 15.0096 3.81974 15.0783 3.81962C15.1722 3.81947 15.2661 3.81978 15.36 3.82022C15.4008 3.81999 15.4008 3.81999 15.4424 3.81976C15.7223 3.8221 15.8879 3.88663 16.084 4.08507C16.1161 4.11684 16.1483 4.1486 16.1814 4.18132C16.3291 4.36516 16.3485 4.54312 16.3484 4.77409C16.3486 4.81211 16.3486 4.81211 16.3487 4.85089C16.3489 4.93401 16.3486 5.0171 16.3482 5.10021C16.3482 5.15827 16.3482 5.21633 16.3482 5.27439C16.3482 5.39575 16.348 5.51712 16.3475 5.63848C16.3469 5.79394 16.3469 5.94939 16.3471 6.10484C16.3472 6.2246 16.347 6.34436 16.3468 6.46412C16.3467 6.52145 16.3467 6.57877 16.3467 6.6361C16.3467 6.71617 16.3464 6.79624 16.346 6.87631C16.3459 6.92184 16.3457 6.96736 16.3456 7.01427C16.3327 7.24233 16.2485 7.34501 16.0862 7.49895C15.8656 7.67538 15.5235 7.61376 15.2557 7.60908C15.2071 7.73257 15.1976 7.84 15.1948 7.9723C15.1938 8.01485 15.1929 8.05741 15.1919 8.10125C15.1889 8.29534 15.1865 8.48941 15.1849 8.68351C15.184 8.78588 15.1823 8.88818 15.1797 8.99052C15.1767 9.11452 15.1752 9.23847 15.1747 9.36251C15.174 9.43233 15.1719 9.50213 15.1698 9.57191C15.1668 9.8063 15.1668 9.8063 15.269 10.009C15.3454 10.0735 15.4223 10.1268 15.5077 10.1789C15.5523 10.2138 15.5523 10.2138 15.5978 10.2495C15.6224 10.2679 15.6469 10.2864 15.6722 10.3054C16.6309 11.0384 17.641 11.9874 17.8482 13.2387C17.9033 13.7268 17.9033 13.7268 17.8003 13.9328C17.6444 14.1106 17.5205 14.1895 17.2786 14.2227C16.8335 14.242 16.3881 14.2382 15.9427 14.2376C15.8508 14.2375 15.7588 14.2375 15.6669 14.2374C15.4508 14.2374 15.2347 14.2372 15.0186 14.2369C14.7723 14.2366 14.5259 14.2365 14.2796 14.2364C13.7736 14.2361 13.2675 14.2357 12.7615 14.2351C12.7132 14.3571 12.7051 14.4594 12.7057 14.5902C12.7058 14.6316 12.7059 14.673 12.706 14.7156C12.7063 14.7609 12.7067 14.8061 12.707 14.8527C12.7072 14.901 12.7073 14.9492 12.7075 14.9975C12.7078 15.1014 12.7083 15.2052 12.7089 15.309C12.7098 15.4734 12.7103 15.6377 12.7107 15.802C12.7119 16.2693 12.7137 16.7366 12.716 17.2038C12.7172 17.462 12.7181 17.7201 12.7186 17.9782C12.7189 18.1415 12.7197 18.3047 12.7208 18.4679C12.7214 18.5696 12.7215 18.6714 12.7216 18.7731C12.7218 18.8425 12.7224 18.9119 12.7231 18.9812C12.7226 19.268 12.7056 19.4572 12.5222 19.6864C12.384 19.8123 12.2227 19.8819 12.0343 19.8765C11.8623 19.8427 11.7534 19.7506 11.6301 19.6305C11.4633 19.3791 11.4915 19.0736 11.4932 18.7845C11.4933 18.7353 11.4932 18.6861 11.4932 18.6369C11.4932 18.5041 11.4936 18.3713 11.4941 18.2385C11.4946 18.0994 11.4947 17.9603 11.4948 17.8213C11.495 17.5582 11.4956 17.2952 11.4964 17.0322C11.4972 16.7326 11.4976 16.433 11.498 16.1334C11.4988 15.5174 11.5001 14.9015 11.5018 14.2855C11.3857 14.2404 11.2897 14.2289 11.1655 14.2294C11.1283 14.2294 11.091 14.2294 11.0527 14.2294C11.0121 14.2296 10.9715 14.2299 10.9296 14.2302C10.8867 14.2302 10.8438 14.2303 10.7995 14.2304C10.7062 14.2306 10.6129 14.2309 10.5196 14.2313C10.372 14.232 10.2245 14.2323 10.0769 14.2325C9.73685 14.2331 9.39685 14.2342 9.05684 14.2354C8.74531 14.2364 8.43378 14.2373 8.12225 14.2378C7.97562 14.238 7.82899 14.2385 7.68237 14.2392C7.56959 14.2397 7.45681 14.2398 7.34403 14.24C7.30353 14.2403 7.26303 14.2405 7.2213 14.2408C7.18393 14.2408 7.14657 14.2408 7.10807 14.2408C7.07575 14.2409 7.04343 14.241 7.01014 14.2412C6.77615 14.226 6.62313 14.1506 6.46302 13.9832C6.28366 13.6757 6.34959 13.3168 6.43192 12.9858C6.76559 11.7926 7.75276 10.8302 8.75724 10.1588C8.94215 10.0234 8.94215 10.0234 9.02882 9.81964C9.02842 9.77975 9.02803 9.73986 9.02763 9.69876C9.02762 9.65337 9.0276 9.60799 9.02759 9.56123C9.02669 9.51205 9.02577 9.46288 9.02483 9.4137C9.0245 9.36311 9.02425 9.31253 9.02407 9.26194C9.0234 9.12918 9.02167 8.99645 9.01972 8.86371C9.01791 8.7281 9.01711 8.59248 9.01622 8.45687C9.01433 8.19105 9.01132 7.92526 9.00761 7.65947C8.82889 7.59378 8.66341 7.60889 8.4747 7.61469C8.29846 7.60659 8.18277 7.55448 8.05654 7.43272C8.03796 7.41557 8.01938 7.39843 8.00024 7.38076C7.87514 7.19844 7.86435 6.97706 7.8637 6.76243C7.86353 6.73732 7.86335 6.71221 7.86318 6.68634C7.86272 6.60423 7.86281 6.52213 7.86295 6.44002C7.86284 6.3824 7.86271 6.32477 7.86255 6.26715C7.86233 6.14672 7.86239 6.02629 7.86264 5.90586C7.86293 5.75217 7.86242 5.59849 7.86169 5.4448C7.86122 5.3259 7.86123 5.207 7.86137 5.0881C7.86138 5.03146 7.86123 4.97482 7.86091 4.91818C7.85683 4.06166 7.85683 4.06166 8.21615 3.90178Z" stroke="black" stroke-width="3" mask="url(#path-1-outside-1_616_85)"/>
</svg>
