<svg width="26" height="25" viewBox="0 0 26 25" fill="none" xmlns="http://www.w3.org/2000/svg">
<path d="M21.0758 17.9902H4.64825C3.08868 17.9902 2.46484 18.3509 2.46484 19.2468V21.5234C2.46484 22.4193 3.08868 22.78 4.64825 22.78H21.0758C22.6354 22.78 23.2592 22.4193 23.2592 21.5234V19.2468C23.2592 18.3509 22.6354 17.9902 21.0758 17.9902Z" stroke="black" stroke-width="1.5625" stroke-linecap="round" stroke-linejoin="round"/>
<path d="M17.9391 2.10254H4.28026C2.98354 2.10254 2.46484 2.46318 2.46484 3.35914V5.63566C2.46484 6.53162 2.98354 6.89226 4.28026 6.89226H17.9391C19.2359 6.89226 19.7546 6.53162 19.7546 5.63566V3.35914C19.7546 2.46318 19.2359 2.10254 17.9391 2.10254Z" stroke="black" stroke-width="1.5625" stroke-linecap="round" stroke-linejoin="round"/>
<path d="M12.064 10.0469H4.31424C2.99324 10.0469 2.46484 10.4075 2.46484 11.3035V13.5801C2.46484 14.476 2.99324 14.8366 4.31424 14.8366H12.064C13.3851 14.8366 13.9134 14.476 13.9134 13.5801V11.3035C13.9134 10.4075 13.3851 10.0469 12.064 10.0469Z" stroke="black" stroke-width="1.5625" stroke-linecap="round" stroke-linejoin="round"/>
</svg>
