<svg width="26" height="25" viewBox="0 0 26 25" fill="none" xmlns="http://www.w3.org/2000/svg">
<path d="M10.1745 22.9163H16.4245C21.6328 22.9163 23.7162 20.833 23.7162 15.6247V9.37467C23.7162 4.16635 21.6328 2.08301 16.4245 2.08301H10.1745C4.96616 2.08301 2.88281 4.16635 2.88281 9.37467V15.6247C2.88281 20.833 4.96616 22.9163 10.1745 22.9163Z" stroke="black" stroke-width="1.42164" stroke-linecap="round" stroke-linejoin="round"/>
<path d="M17.0209 19.2733V15.2108M17.0209 7.76076V5.72949M17.0209 7.76076C17.3765 7.76076 17.7276 7.8308 18.0562 7.96692C18.3848 8.10304 18.6834 8.30251 18.9349 8.55401C19.1864 8.8055 19.3859 9.10408 19.522 9.43266C19.6581 9.76125 19.7281 10.1134 19.7281 10.4691C19.7281 10.8248 19.6581 11.177 19.522 11.5055C19.3859 11.8341 19.1864 12.1327 18.9349 12.3842C18.6834 12.6356 18.3848 12.8352 18.0562 12.9713C17.7276 13.1074 17.3754 13.1774 17.0198 13.1774C16.3015 13.1774 15.6126 12.8921 15.1047 12.3842C14.5968 11.8762 14.3115 11.1874 14.3115 10.4691C14.3115 9.7508 14.5968 9.06192 15.1047 8.55401C15.6126 8.0461 16.3025 7.76076 17.0209 7.76076ZM9.58336 19.2712V17.2399M9.58336 9.79199V5.72949M9.58336 17.242C9.93899 17.242 10.2912 17.172 10.6198 17.0358C10.9484 16.8998 11.2469 16.7002 11.4984 16.4487C11.7499 16.1973 11.9494 15.8987 12.0855 15.5701C12.2216 15.2415 12.2917 14.8893 12.2917 14.5337C12.2917 14.178 12.2216 13.8258 12.0855 13.4973C11.9494 13.1686 11.7499 12.8701 11.4984 12.6186C11.2469 12.3671 10.9484 12.1676 10.6198 12.0315C10.2912 11.8954 9.93899 11.8254 9.58336 11.8254C8.86504 11.8254 8.17616 12.1107 7.66825 12.6186C7.16034 13.1265 6.875 13.8154 6.875 14.5337C6.875 15.252 7.16034 15.9408 7.66825 16.4487C8.17616 16.9567 8.86504 17.242 9.58336 17.242Z" stroke="black" stroke-width="1.42164" stroke-miterlimit="10" stroke-linecap="round" stroke-linejoin="round"/>
</svg>
