<svg width="25" height="24" viewBox="0 0 25 24" fill="none" xmlns="http://www.w3.org/2000/svg">
<path d="M16.6353 2H8.25531C4.61531 2 2.44531 4.17 2.44531 7.81V16.18C2.44531 19.83 4.61531 22 8.25531 22H16.6253C20.2653 22 22.4353 19.83 22.4353 16.19V7.81C22.4453 4.17 20.2753 2 16.6353 2ZM8.11531 5.5C8.11531 5.09 8.45531 4.75 8.86531 4.75C9.27531 4.75 9.61531 5.09 9.61531 5.5V9.4C9.61531 9.81 9.27531 10.15 8.86531 10.15C8.45531 10.15 8.11531 9.81 8.11531 9.4V5.5ZM9.96813 16.4313C9.76469 16.5216 9.61531 16.7132 9.61531 16.9358V18.5C9.61531 18.91 9.27531 19.25 8.86531 19.25C8.45531 19.25 8.11531 18.91 8.11531 18.5V16.9358C8.11531 16.7132 7.96591 16.5216 7.76254 16.4311C6.80806 16.0064 6.14531 15.058 6.14531 13.95C6.14531 12.45 7.36531 11.22 8.86531 11.22C10.3653 11.22 11.5953 12.44 11.5953 13.95C11.5953 15.0582 10.9244 16.0066 9.96813 16.4313ZM16.7753 18.5C16.7753 18.91 16.4353 19.25 16.0253 19.25C15.6153 19.25 15.2753 18.91 15.2753 18.5V14.6C15.2753 14.19 15.6153 13.85 16.0253 13.85C16.4353 13.85 16.7753 14.19 16.7753 14.6V18.5ZM16.0253 12.77C14.5253 12.77 13.2953 11.55 13.2953 10.04C13.2953 8.93185 13.9662 7.98342 14.9225 7.55873C15.1259 7.46839 15.2753 7.27681 15.2753 7.05421V5.5C15.2753 5.09 15.6153 4.75 16.0253 4.75C16.4353 4.75 16.7753 5.09 16.7753 5.5V7.06421C16.7753 7.28681 16.9247 7.47835 17.1281 7.56885C18.0825 7.9936 18.7453 8.94195 18.7453 10.05C18.7453 11.55 17.5253 12.77 16.0253 12.77Z" fill="black"/>
</svg>
