<svg width="25" height="24" viewBox="0 0 25 24" fill="none" xmlns="http://www.w3.org/2000/svg">
<path d="M11.4121 2.23055L6.42203 4.11055C5.27203 4.54055 4.33203 5.90055 4.33203 7.12055V14.5506C4.33203 15.7306 5.11203 17.2806 6.06203 17.9906L10.362 21.2006C11.7721 22.2606 14.0921 22.2606 15.5021 21.2006L19.8021 17.9906C20.7521 17.2806 21.5321 15.7306 21.5321 14.5506V7.12055C21.5321 5.89055 20.5921 4.53055 19.4421 4.10055L14.4521 2.23055C13.6021 1.92055 12.2421 1.92055 11.4121 2.23055Z" stroke="black" stroke-width="1.5" stroke-linecap="round" stroke-linejoin="round"/>
<path d="M12.9219 12.5C14.0265 12.5 14.9219 11.6046 14.9219 10.5C14.9219 9.39543 14.0265 8.5 12.9219 8.5C11.8173 8.5 10.9219 9.39543 10.9219 10.5C10.9219 11.6046 11.8173 12.5 12.9219 12.5Z" stroke="black" stroke-width="1.5" stroke-miterlimit="10" stroke-linecap="round" stroke-linejoin="round"/>
<path d="M12.9219 12.5V15.5" stroke="black" stroke-width="1.5" stroke-miterlimit="10" stroke-linecap="round" stroke-linejoin="round"/>
</svg>
