<svg width="26" height="25" viewBox="0 0 26 25" fill="none" xmlns="http://www.w3.org/2000/svg">
<path d="M7.96875 6.25H18.4688C19.1198 6.25 19.6973 6.271 20.2118 6.3445C22.9732 6.649 23.7188 7.951 23.7188 11.5V13.6C23.7188 17.149 22.9732 18.451 20.2118 18.7555C19.6973 18.829 19.1198 18.85 18.4688 18.85H7.96875C7.31775 18.85 6.74025 18.829 6.22575 18.7555C3.46425 18.451 2.71875 17.149 2.71875 13.6V11.5C2.71875 7.951 3.46425 6.649 6.22575 6.3445C6.74025 6.271 7.31775 6.25 7.96875 6.25Z" stroke="black" stroke-width="1.575" stroke-linecap="round" stroke-linejoin="round"/>
<path d="M8.96328 9.375H9.96953V15.5H8.96328V12.8488H6.33828V15.5H5.33203V9.375H6.33828V11.8862H8.96328V9.375ZM12.7251 14.5375H15.4377V15.5H11.7188V9.375H15.3939V10.3375H12.7251V11.93H15.1752V12.8837H12.7251V14.5375ZM21.39 15.5H20.2438L18.8963 13.2863L17.5488 15.5H16.4025L18.3275 12.35L16.5163 9.375H17.6538L18.8963 11.4137L20.1388 9.375H21.285L19.4738 12.35L21.39 15.5Z" fill="black"/>
</svg>
