<svg width="25" height="24" viewBox="0 0 25 24" fill="none" xmlns="http://www.w3.org/2000/svg">
<path d="M2.15625 9V6.5C2.15625 4.01 4.16625 2 6.65625 2H9.15625" stroke="black" stroke-width="1.5" stroke-linecap="round" stroke-linejoin="round"/>
<path d="M15.1562 2H17.6562C20.1463 2 22.1562 4.01 22.1562 6.5V9" stroke="black" stroke-width="1.5" stroke-linecap="round" stroke-linejoin="round"/>
<path d="M22.1562 16V17.5C22.1562 19.99 20.1463 22 17.6562 22H16.1562" stroke="black" stroke-width="1.5" stroke-linecap="round" stroke-linejoin="round"/>
<path d="M9.15625 22H6.65625C4.16625 22 2.15625 19.99 2.15625 17.5V15" stroke="black" stroke-width="1.5" stroke-linecap="round" stroke-linejoin="round"/>
<path d="M10.6562 7V9C10.6562 10 10.1562 10.5 9.15625 10.5H7.15625C6.15625 10.5 5.65625 10 5.65625 9V7C5.65625 6 6.15625 5.5 7.15625 5.5H9.15625C10.1562 5.5 10.6562 6 10.6562 7Z" stroke="black" stroke-width="1.5" stroke-linecap="round" stroke-linejoin="round"/>
<path d="M18.6562 7V9C18.6562 10 18.1562 10.5 17.1562 10.5H15.1562C14.1562 10.5 13.6562 10 13.6562 9V7C13.6562 6 14.1562 5.5 15.1562 5.5H17.1562C18.1562 5.5 18.6562 6 18.6562 7Z" stroke="black" stroke-width="1.5" stroke-linecap="round" stroke-linejoin="round"/>
<path d="M10.6562 15V17C10.6562 18 10.1562 18.5 9.15625 18.5H7.15625C6.15625 18.5 5.65625 18 5.65625 17V15C5.65625 14 6.15625 13.5 7.15625 13.5H9.15625C10.1562 13.5 10.6562 14 10.6562 15Z" stroke="black" stroke-width="1.5" stroke-linecap="round" stroke-linejoin="round"/>
<path d="M18.6562 15V17C18.6562 18 18.1562 18.5 17.1562 18.5H15.1562C14.1562 18.5 13.6562 18 13.6562 17V15C13.6562 14 14.1562 13.5 15.1562 13.5H17.1562C18.1562 13.5 18.6562 14 18.6562 15Z" stroke="black" stroke-width="1.5" stroke-linecap="round" stroke-linejoin="round"/>
</svg>
