<svg width="25" height="24" viewBox="0 0 25 24" fill="none" xmlns="http://www.w3.org/2000/svg">
<path d="M22.5089 11.6505H16.7089C15.1789 11.6505 14.1289 10.4905 14.1289 9.0705V5.85047C14.1289 4.43047 15.1789 3.27051 16.7089 3.27051H19.9289C21.3489 3.27051 22.5089 4.43047 22.5089 5.85047V11.6505Z" stroke="black" stroke-width="1.5" stroke-linecap="round" stroke-linejoin="round"/>
<path d="M22.5105 11.6494C22.5105 17.6994 21.3805 18.6993 17.9805 20.7193" stroke="black" stroke-width="1.5" stroke-linecap="round" stroke-linejoin="round"/>
<path d="M10.88 11.6505H5.08C3.55 11.6505 2.5 10.4905 2.5 9.0705V5.85047C2.5 4.43047 3.55 3.27051 5.08 3.27051H8.31C9.73 3.27051 10.89 4.43047 10.89 5.85047V11.6505" stroke="black" stroke-width="1.5" stroke-linecap="round" stroke-linejoin="round"/>
<path d="M10.8815 11.6504C10.8815 17.7004 9.75156 18.7003 6.35156 20.7203" stroke="black" stroke-width="1.5" stroke-linecap="round" stroke-linejoin="round"/>
</svg>
