<svg width="26" height="29" viewBox="0 0 26 29" fill="none" xmlns="http://www.w3.org/2000/svg">
<g clip-path="url(#clip0_1946_11745)">
<path d="M24.1161 11.4263C24.1161 11.4263 22.6996 12.7484 20.2916 14.3066C19.6305 10.482 17.7891 5.7604 14.2006 0C14.2006 0 13.0202 6.18535 9.10126 11.993C7.4015 9.34884 6.64603 7.27134 6.64603 7.27134C-5.63021 19.5948 4.56851 28.3298 10.9899 28.3298C19.2056 28.3298 26.4297 24.3637 24.1161 11.4263Z" fill="#FF9D33"/>
<path d="M19.2494 22.3806C19.9576 20.8224 20.477 18.7921 20.5714 16.2425C20.5714 16.2425 19.5799 17.0924 17.8801 18.1784C17.4079 15.6286 16.1331 12.5124 13.6306 8.64062C13.6306 8.64062 12.8279 12.7485 10.0894 16.6674C8.90896 14.9204 8.3896 13.5039 8.3896 13.5039C6.35931 16.7146 5.55663 19.2643 5.50941 21.2946C4.37622 20.8697 3.66797 20.5392 3.66797 20.5392C5.60384 26.2996 9.61722 27.5744 11.4115 27.5744C14.6222 27.5744 17.8801 26.63 21.0908 22.0501C21.0908 22.0028 20.3826 22.1917 19.2494 22.3806Z" fill="#FFCE31"/>
<path d="M7.54023 19.7833C7.54023 19.7833 8.86232 21.5775 9.85384 21.1526C9.85384 21.1526 11.7425 18.1779 14.481 16.5254C14.481 16.5254 13.9145 21.0582 14.5755 21.8609C15.4253 22.9468 17.739 20.6804 17.739 20.6804C17.739 23.3718 14.8116 26.7241 12.1674 26.7241C9.61779 26.7241 5.93488 23.7967 7.54023 19.7833Z" fill="#FFDF85"/>
<path d="M20.7153 7.60208C21.7068 6.18562 22.3679 4.67468 22.3679 4.67468C24.0204 7.41324 23.0289 9.0658 22.3207 9.58516C21.3291 10.3406 19.5821 9.25464 20.7153 7.60208ZM2.67865 7.12993C1.68711 5.47736 1.59267 3.39983 1.59267 3.39983C-0.768142 6.94109 0.128968 8.92417 0.931643 9.49074C1.9704 10.2934 3.76463 9.0658 2.67865 7.12993ZM8.15573 3.44705C8.29742 2.31386 7.82521 1.18066 7.82521 1.18066C10.0444 2.64437 10.0444 3.872 9.76108 4.39138C9.33614 5.00519 8.0141 4.72189 8.15573 3.44705Z" fill="#FF9D33"/>
</g>
<defs>
<clipPath id="clip0_1946_11745">
<rect width="25" height="28.4884" fill="white" transform="translate(0.0742188)"/>
</clipPath>
</defs>
</svg>
