<svg width="26" height="24" viewBox="0 0 26 24" fill="none" xmlns="http://www.w3.org/2000/svg">
<g clip-path="url(#clip0_1946_11750)">
<path d="M0.429688 23.7019L3.94413 22.4759L1.28786 21.25L0.429688 23.7019Z" fill="#F7B600"/>
<path d="M10.6058 13.6487L5.66106 8.66309L4.84375 10.9516L10.6058 13.6487Z" fill="#FFDD7D"/>
<path d="M4.84045 10.9521L3.94141 13.5267L14.8934 18.6349L15.4247 18.4714L10.6025 13.6493L4.84045 10.9521Z" fill="#F7B600"/>
<path d="M3.08594 16.1009L11.259 19.9014L14.8961 18.6346L3.94411 13.5264L3.08594 16.1009Z" fill="#FFDD7D"/>
<path d="M2.1875 18.6751L7.58178 21.2088L11.2596 19.9011L3.08654 16.1006L2.1875 18.6751Z" fill="#F7B600"/>
<path d="M2.18811 18.6758L1.28906 21.2503L3.94532 22.4763L7.58234 21.2095L2.18811 18.6758Z" fill="#FFDD7D"/>
<path d="M12.6494 11.5237C15.3874 14.2208 16.8177 17.2448 15.8369 18.2256C14.8153 19.2064 11.7912 17.8169 9.01237 15.079C6.27435 12.3818 4.84407 9.35781 5.82484 8.37699C6.8465 7.39624 9.87051 8.82653 12.6494 11.5237Z" fill="#493816"/>
<path d="M9.21459 4.69899C8.56075 3.75908 9.25546 3.35043 10.1545 3.51389C9.29633 2.49225 9.82761 1.75667 11.1762 2.04273C11.5848 2.12446 11.0127 2.81917 10.6449 2.81917C11.7483 3.63649 11.1353 4.53553 9.95017 4.3312C11.0127 5.7615 9.21459 5.39371 8.39732 5.47543C8.19296 6.53794 9.41895 7.76393 9.01029 7.76393C8.11122 7.76393 6.64011 4.37207 9.21459 4.69899Z" fill="#42ADE2"/>
<path d="M17.799 6.66071C17.1861 6.94675 15.4697 4.24964 17.5947 4.20878C16.3687 3.1054 16.5322 2.57415 18.1668 2.53329C16.287 0.653474 19.2702 -0.00037732 19.5562 0.980398C19.638 1.26646 18.6572 0.7352 18.3303 1.26646C17.9625 1.87944 20.6187 3.47319 17.8808 3.3506C18.9024 4.37224 18.9433 4.86262 17.3495 5.02609C17.5538 5.35301 18.2077 6.49728 17.799 6.66071Z" fill="#FF8736"/>
<path d="M18.4922 13.0362L19.1052 12.505C19.1052 12.505 19.6773 13.3632 20.086 13.6901C20.4129 12.2189 20.3311 11.3607 22.0066 12.3415C21.0667 9.80788 22.6196 10.7478 24.1317 11.4425C24.0499 10.7886 24.1317 10.8704 24.7855 10.666C25.3576 12.8319 23.8047 12.1781 22.5788 11.4833C23.3143 13.4449 22.5379 13.3223 20.985 12.6685C20.9441 13.4858 20.6989 14.4257 20.2085 14.5074C19.6364 14.6708 18.4922 13.0362 18.4922 13.0362Z" fill="#ED4C5C"/>
<path d="M13.9162 6.98802C13.1806 7.96878 11.9955 8.50006 11.1373 9.3582C10.2383 10.2573 9.70703 12.7092 9.70703 12.7092C9.70703 12.7092 10.0339 10.1347 10.8921 9.1539C11.6685 8.25483 12.8128 7.60099 13.4258 6.57936C14.4883 4.69954 13.5075 2.2476 12.1181 0.817314C12.4041 0.572118 12.8128 0.245194 13.0171 0C14.3657 1.67549 15.5099 4.90387 13.9162 6.98802Z" fill="#C28FEF"/>
<path d="M15.1797 9.07209C14.1172 9.84854 13.3408 10.9928 12.6052 12.0553C11.9514 12.9952 9.86719 14.1803 9.86719 14.1803C9.86719 14.1803 11.8288 12.8317 12.4417 11.851C13.1773 10.625 13.9129 9.35819 15.0571 8.45912C17.3456 6.70192 20.6557 6.86535 23.2303 7.80529C23.0668 8.17308 22.7807 8.94953 22.7807 8.94953C22.7807 8.94953 17.3456 7.47837 15.1797 9.07209Z" fill="#FF8736"/>
<path d="M19.7199 8.86756C19.0252 9.76663 18.6982 10.87 18.167 11.8916C17.6766 12.8315 17.0227 13.7306 16.0828 14.2209C15.0203 14.7522 12.691 14.5887 12.691 14.5887C12.691 14.5887 15.0203 14.5479 16.0011 13.894C16.9818 13.2402 17.5131 12.0959 17.8809 11.0334C18.6165 8.99018 19.5155 6.78344 21.6405 5.88437C21.7631 6.25216 22.0492 7.02861 22.0492 7.02861C22.0492 7.02861 20.8641 7.35553 19.7199 8.86756ZM0.925781 4.62777L2.08146 3.47168L3.23755 4.62736L2.08187 5.78385L0.925781 4.62777Z" fill="#42ADE2"/>
<path d="M2.54297 8.25335L3.69824 7.09766L4.85392 8.25335L3.69824 9.40899L2.54297 8.25335Z" fill="#FF8736"/>
<path d="M5.48047 2.78752L6.63614 1.63184L7.79184 2.78752L6.63614 3.9432L5.48047 2.78752Z" fill="#ED4C5C"/>
<path d="M18.0859 16.6307L19.2416 15.4746L20.3973 16.6307L19.2416 17.7864L18.0859 16.6307Z" fill="#C28FEF"/>
<path d="M15.5078 20.5922L16.6635 19.4365L17.8196 20.5926L16.6635 21.7483L15.5078 20.5922Z" fill="#ED4C5C"/>
<path d="M20.5703 21.4978L21.726 20.3418L22.8817 21.4978L21.726 22.6535L20.5703 21.4978Z" fill="#FF8736"/>
<path d="M21.7109 16.2366L22.8666 15.0809L24.0222 16.2366L22.8666 17.3926L21.7109 16.2366ZM19.7812 4.01448L20.9369 2.8584L22.093 4.01448L20.9373 5.17016L19.7812 4.01448Z" fill="#42ADE2"/>
<path d="M7.39453 10.9487L8.55058 9.79297L9.70628 10.9487L8.55058 12.1047L7.39453 10.9487Z" fill="#ED4C5C"/>
</g>
<defs>
<clipPath id="clip0_1946_11750">
<rect width="25" height="23.8372" fill="white" transform="translate(0.429688)"/>
</clipPath>
</defs>
</svg>
