<svg width="24" height="24" viewBox="0 0 24 24" fill="none" xmlns="http://www.w3.org/2000/svg">
<path d="M14.7266 14.6306L12.0435 13.0294C11.5761 12.7525 11.1953 12.086 11.1953 11.5408V7.99219" stroke="black" stroke-width="1.50042" stroke-linecap="round" stroke-linejoin="round"/>
<path d="M3.5494 16.9983C3.28204 16.5352 3.05691 16.0604 2.87244 15.5776M2.24486 11.4308C2.23584 11.5774 2.22997 11.7242 2.22729 11.8711C2.22398 12.0533 2.22558 12.2356 2.23217 12.418C2.24105 12.664 2.25901 12.9099 2.28622 13.1555" stroke="black" stroke-width="1.50042" stroke-linecap="round" stroke-linejoin="round"/>
<path d="M3.66419 6.40124C4.65451 6.40072 3.9452 6.27805 5.10958 5.11149C8.9523 1.26877 15.1898 1.26877 19.0325 5.11149C22.8752 8.95421 22.8752 15.1917 19.0325 19.0344C16.9497 21.1171 14.1635 22.071 11.4364 21.8961M5.10958 19.0344C6.05159 19.9764 7.1375 20.6875 8.29676 21.1676" stroke="black" stroke-width="1.50042" stroke-linecap="round" stroke-linejoin="round"/>
<path d="M3.47414 6.55674L4.42439 1.66553" stroke="black" stroke-width="1.50042" stroke-linecap="round" stroke-linejoin="round"/>
<path d="M3.47656 6.55762L8.18264 7.06907" stroke="black" stroke-width="1.50042" stroke-linecap="round" stroke-linejoin="round"/>
</svg>
