<svg width="25" height="24" viewBox="0 0 25 24" fill="none" xmlns="http://www.w3.org/2000/svg">
<path d="M11.1201 19.8701H17.7194C21.4933 19.8701 22.4317 18.9501 22.4317 15.2501C21.1261 15.2501 20.0755 14.2101 20.0755 12.9401C20.0755 11.6601 21.1261 10.6201 22.4317 10.6201V9.70008C22.4317 6.00008 21.4933 5.08008 17.7194 5.08008H11.2119V11.8701" stroke="black" stroke-width="1.5" stroke-linecap="round" stroke-linejoin="round"/>
<path d="M11.2133 16.87V19.87H8.38794C6.87837 19.87 5.99099 18.86 5.01181 16.54L4.82821 16.09C6.06239 15.61 6.66417 14.21 6.14399 13C5.6442 11.79 4.22643 11.21 2.98205 11.71L2.80866 11.28C1.33989 7.76 1.84988 6.53 5.4402 5.08L8.13294 4L11.2133 11.32V13.87" stroke="black" stroke-width="1.5" stroke-linecap="round" stroke-linejoin="round"/>
<path d="M8.32525 19.8701H8.15186" stroke="black" stroke-width="1.5" stroke-linecap="round" stroke-linejoin="round"/>
</svg>
