<svg width="26" height="25" viewBox="0 0 26 25" fill="none" xmlns="http://www.w3.org/2000/svg">
<path d="M21.1133 10.4167H5.8737C4.33204 10.4167 3.08203 9.15626 3.08203 7.62501V4.88542C3.08203 3.34376 4.34245 2.09375 5.8737 2.09375H21.1133C22.655 2.09375 23.905 3.35417 23.905 4.88542V7.62501C23.905 9.15626 22.6446 10.4167 21.1133 10.4167Z" stroke="black" stroke-width="1.50318" stroke-linecap="round" stroke-linejoin="round"/>
<path d="M21.1133 22.9167H5.8737C4.33204 22.9167 3.08203 21.6563 3.08203 20.125V17.3854C3.08203 15.8438 4.34245 14.5938 5.8737 14.5938H21.1133C22.655 14.5938 23.905 15.8542 23.905 17.3854V20.125C23.905 21.6563 22.6446 22.9167 21.1133 22.9167Z" stroke="black" stroke-width="1.50318" stroke-linecap="round" stroke-linejoin="round"/>
<path d="M7.23828 5.20801V7.29135" stroke="black" stroke-width="1.50318" stroke-linecap="round" stroke-linejoin="round"/>
<path d="M11.4062 5.20801V7.29135" stroke="black" stroke-width="1.50318" stroke-linecap="round" stroke-linejoin="round"/>
<path d="M7.23828 17.708V19.7914" stroke="black" stroke-width="1.50318" stroke-linecap="round" stroke-linejoin="round"/>
<path d="M11.4062 17.708V19.7914" stroke="black" stroke-width="1.50318" stroke-linecap="round" stroke-linejoin="round"/>
<path d="M15.5703 6.25H19.737" stroke="black" stroke-width="1.50318" stroke-linecap="round" stroke-linejoin="round"/>
<path d="M15.5703 18.75H19.737" stroke="black" stroke-width="1.50318" stroke-linecap="round" stroke-linejoin="round"/>
</svg>
