<svg width="24" height="24" viewBox="0 0 24 24" fill="none" xmlns="http://www.w3.org/2000/svg">
<path d="M5.2334 16.2188C6.72384 16.2188 7.93236 17.4266 7.93262 18.917C7.93262 20.4076 6.72399 21.6162 5.2334 21.6162C3.74302 21.616 2.53516 20.4074 2.53516 18.917C2.53541 17.4268 3.74318 16.219 5.2334 16.2188Z" stroke="black" stroke-width="1.41455"/>
<path d="M18.9863 3.04785C20.0918 3.04803 20.9883 3.94431 20.9883 5.0498C20.9881 6.15515 20.0917 7.05158 18.9863 7.05176C17.8808 7.05176 16.9846 6.15526 16.9844 5.0498C16.9844 3.9442 17.8807 3.04785 18.9863 3.04785Z" stroke="black" stroke-width="1.41455"/>
<path d="M21.2188 6.5957C22.1671 8.18956 22.7138 10.0507 22.7139 12.04C22.7139 17.9304 17.9382 22.7058 12.0479 22.7061C10.3534 22.706 8.75183 22.3087 7.3291 21.6055C7.71646 21.3041 8.03687 20.9215 8.26465 20.4824C9.41975 21.001 10.6998 21.2919 12.0479 21.292C17.1569 21.2918 21.2998 17.1492 21.2998 12.04C21.2997 10.3956 20.8677 8.8528 20.1152 7.51465C20.561 7.31204 20.9415 6.99342 21.2188 6.5957ZM12.0479 1.375C14.014 1.37508 15.855 1.90894 17.4365 2.83691C17.0412 3.11606 16.7253 3.49806 16.5254 3.94434C15.1985 3.20891 13.6723 2.78914 12.0479 2.78906C6.93896 2.78929 2.79717 6.93116 2.79688 12.04C2.79688 13.4214 3.10176 14.731 3.64453 15.9082C3.20821 16.1401 2.82876 16.4643 2.53125 16.8545C1.79805 15.4079 1.38281 13.7728 1.38281 12.04C1.38311 6.14992 6.15772 1.37523 12.0479 1.375Z" fill="black"/>
<path d="M12.0362 15.5266C13.9612 15.5266 15.5217 13.9661 15.5217 12.0411C15.5217 10.1162 13.9612 8.55566 12.0362 8.55566C10.1113 8.55566 8.55078 10.1162 8.55078 12.0411C8.55078 13.9661 10.1113 15.5266 12.0362 15.5266Z" stroke="black" stroke-width="1.41455"/>
</svg>
