<svg width="25" height="25" viewBox="0 0 25 25" fill="none" xmlns="http://www.w3.org/2000/svg">
<path d="M14.5459 16.3176H9.44604" stroke="black" stroke-width="1.5" stroke-miterlimit="10" stroke-linecap="round" stroke-linejoin="round"/>
<path d="M12.9122 2.56853L12.8816 2.63992L9.92364 9.50437H7.01671C6.32312 9.50437 5.66014 9.64717 5.05835 9.90216L6.84331 5.63866L6.88411 5.53666L6.95551 5.37346C6.97591 5.31227 6.99631 5.25107 7.02691 5.20007C8.36308 2.10954 9.87264 1.40575 12.9122 2.56853Z" stroke="black" stroke-width="1.5" stroke-linecap="round" stroke-linejoin="round"/>
<path d="M18.4098 9.7082C17.9508 9.56541 17.4612 9.50421 16.9716 9.50421H9.92358L12.8815 2.63976L12.9121 2.56836C13.0651 2.61936 13.2079 2.69076 13.3609 2.75196L15.6151 3.70053C16.8696 4.22072 17.7468 4.76131 18.2772 5.4141C18.3792 5.53649 18.4608 5.64869 18.5322 5.78129C18.624 5.92409 18.6954 6.06688 18.7362 6.21988C18.777 6.31168 18.8076 6.40348 18.828 6.48507C19.1034 7.34185 18.9402 8.39243 18.4098 9.7082Z" stroke="black" stroke-width="1.5" stroke-linecap="round" stroke-linejoin="round"/>
<path d="M21.951 14.4819V16.4708C21.951 16.6748 21.9408 16.8788 21.9306 17.0828C21.7368 20.6425 19.7479 22.4377 15.974 22.4377H8.01814C7.77334 22.4377 7.52855 22.4173 7.29395 22.3867C4.05043 22.1725 2.31646 20.4386 2.10227 17.195C2.07167 16.9604 2.05127 16.7156 2.05127 16.4708V14.4819C2.05127 12.4317 3.29564 10.6672 5.0704 9.90219C5.68239 9.64719 6.33518 9.50439 7.02876 9.50439H16.9837C17.4835 9.50439 17.9731 9.57579 18.4219 9.70839C20.4517 10.3306 21.951 12.2277 21.951 14.4819Z" stroke="black" stroke-width="1.5" stroke-linecap="round" stroke-linejoin="round"/>
<path d="M6.8434 5.63843L5.05844 9.90193C3.28368 10.6669 2.03931 12.4315 2.03931 14.4816V11.4931C2.03931 8.59636 4.09966 6.17902 6.8434 5.63843Z" stroke="black" stroke-width="1.5" stroke-linecap="round" stroke-linejoin="round"/>
<path d="M21.9478 11.4928V14.4813C21.9478 12.2373 20.4587 10.33 18.4187 9.718C18.9491 8.39203 19.1021 7.35166 18.8471 6.48468C18.8267 6.39288 18.7961 6.30108 18.7553 6.21948C20.6525 7.19866 21.9478 9.20802 21.9478 11.4928Z" stroke="black" stroke-width="1.5" stroke-linecap="round" stroke-linejoin="round"/>
</svg>
