<svg width="26" height="25" viewBox="0 0 26 25" fill="none" xmlns="http://www.w3.org/2000/svg">
<path d="M3.78125 5.36719H18.1761C19.9026 5.36719 21.2963 6.7609 21.2963 8.48744V11.9405" stroke="black" stroke-width="2.26928" stroke-miterlimit="10" stroke-linecap="round" stroke-linejoin="round"/>
<path d="M7.06793 2.08008L3.78125 5.36672L7.06793 8.65344" stroke="black" stroke-width="2.26928" stroke-miterlimit="10" stroke-linecap="round" stroke-linejoin="round"/>
<path fill-rule="evenodd" clip-rule="evenodd" d="M4.91772 13.0224C4.91772 12.3957 4.40972 11.8877 3.78308 11.8877C3.15643 11.8877 2.64844 12.3957 2.64844 13.0224V16.4755C2.64844 18.8286 4.55015 20.7303 6.90333 20.7303H18.5592L17.2093 22.0802C16.7662 22.5233 16.7662 23.2417 17.2093 23.6848C17.6524 24.1279 18.3709 24.1279 18.814 23.6848L22.1006 20.3982C22.1841 20.3148 22.2533 20.2196 22.3065 20.1166C22.3574 20.0183 22.3943 19.9115 22.4147 19.799C22.4267 19.7324 22.433 19.6644 22.433 19.5959C22.433 19.5449 22.4295 19.4942 22.4228 19.4441C22.3887 19.1883 22.2692 18.9594 22.0941 18.787L18.814 15.5068C18.3709 15.0637 17.6524 15.0637 17.2093 15.5068C16.7662 15.9499 16.7662 16.6684 17.2093 17.1115L18.5589 18.461H6.90333C5.80344 18.461 4.91772 17.5753 4.91772 16.4755V13.0224Z" fill="black"/>
</svg>
