<svg width="24" height="24" viewBox="0 0 24 24" fill="none" xmlns="http://www.w3.org/2000/svg">
<path d="M12.5009 14.8858C12.4801 14.9052 12.4584 14.9231 12.436 14.9397C12.3111 15.033 12.1571 15.0894 11.9892 15.0896C11.8177 15.0895 11.6612 15.0291 11.5349 14.9321C11.5227 14.9228 11.5113 14.9126 11.4997 14.9024C11.4789 14.8844 11.4582 14.8667 11.4396 14.8465L7.95721 11.3641C7.66451 11.0712 7.66438 10.5963 7.95721 10.3035C8.25009 10.0112 8.72515 10.0109 9.01787 10.3035L11.2393 12.5249V2.99969C11.2395 2.58577 11.5753 2.24995 11.9892 2.24977C12.4032 2.25007 12.7398 2.5864 12.7399 3.00038L12.7392 12.5277L14.9958 10.271C15.2887 9.97845 15.7637 9.97823 16.0565 10.271C16.3491 10.5638 16.349 11.0388 16.0565 11.3317L12.5258 14.8624C12.5178 14.8705 12.5092 14.878 12.5009 14.8858Z" fill="black"/>
<path d="M2.82983 18.906H21.1601" stroke="black" stroke-width="1.5" stroke-linecap="round" stroke-linejoin="round"/>
</svg>
