<svg width="25" height="24" viewBox="0 0 25 24" fill="none" xmlns="http://www.w3.org/2000/svg">
<path d="M13.0078 16.5V18.6" stroke="black" stroke-width="1.5" stroke-linecap="round" stroke-linejoin="round"/>
<path d="M8.00391 22H18.0039V21C18.0039 19.9 17.1039 19 16.0039 19H10.0039C8.90391 19 8.00391 19.9 8.00391 21V22Z" stroke="black" stroke-width="1.5" stroke-miterlimit="10"/>
<path d="M7.00391 22H19.0039" stroke="black" stroke-width="1.5" stroke-linecap="round" stroke-linejoin="round"/>
<path d="M12.8555 16C8.98547 16 5.85547 12.87 5.85547 9V6C5.85547 3.79 7.64547 2 9.85547 2H15.8555C18.0655 2 19.8555 3.79 19.8555 6V9C19.8555 12.87 16.7255 16 12.8555 16Z" stroke="black" stroke-width="1.5" stroke-linecap="round" stroke-linejoin="round"/>
<path d="M6.32453 11.6506C5.57453 11.4106 4.91453 10.9706 4.39453 10.4506C3.49453 9.45059 2.89453 8.25059 2.89453 6.85059C2.89453 5.45059 3.99453 4.35059 5.39453 4.35059H6.04453C5.84453 4.81059 5.74453 5.32059 5.74453 5.85059V8.85059C5.74453 9.85059 5.95453 10.7906 6.32453 11.6506Z" stroke="black" stroke-width="1.5" stroke-linecap="round" stroke-linejoin="round"/>
<path d="M19.3867 11.6506C20.1367 11.4106 20.7967 10.9706 21.3167 10.4506C22.2167 9.45059 22.8167 8.25059 22.8167 6.85059C22.8167 5.45059 21.7167 4.35059 20.3167 4.35059H19.6667C19.8667 4.81059 19.9667 5.32059 19.9667 5.85059V8.85059C19.9667 9.85059 19.7567 10.7906 19.3867 11.6506Z" stroke="black" stroke-width="1.5" stroke-linecap="round" stroke-linejoin="round"/>
</svg>
