<svg width="25" height="24" viewBox="0 0 25 24" fill="none" xmlns="http://www.w3.org/2000/svg">
<path d="M10.7109 19.9V4.1C10.7109 2.6 10.0709 2 8.48094 2H4.44094C2.85094 2 2.21094 2.6 2.21094 4.1V19.9C2.21094 21.4 2.85094 22 4.44094 22H8.48094C10.0709 22 10.7109 21.4 10.7109 19.9Z" stroke="black" stroke-width="1.5" stroke-linecap="round" stroke-linejoin="round"/>
<path d="M22.2109 19.9V4.1C22.2109 2.6 21.5709 2 19.9809 2H15.9409C14.3509 2 13.7109 2.6 13.7109 4.1V19.9C13.7109 21.4 14.3509 22 15.9409 22H19.9809C21.5709 22 22.2109 21.4 22.2109 19.9Z" stroke="black" stroke-width="1.5" stroke-linecap="round" stroke-linejoin="round"/>
</svg>
