<svg width="25" height="24" viewBox="0 0 25 24" fill="none" xmlns="http://www.w3.org/2000/svg">
<path d="M12.5664 22C18.0893 22 22.5664 17.5228 22.5664 12C22.5664 6.47715 18.0893 2 12.5664 2C7.04356 2 2.56641 6.47715 2.56641 12C2.56641 17.5228 7.04356 22 12.5664 22Z" stroke="black" stroke-width="1.386" stroke-linecap="round" stroke-linejoin="round"/>
<path fill-rule="evenodd" clip-rule="evenodd" d="M17.3772 10.6719L8.89069 8.37941L9.26447 6.7552L17.751 9.04762L17.3772 10.6719ZM14.5798 6.96197L15.0316 4.99081L13.4231 4.55469L12.9711 6.52584L14.5798 6.96197ZM12.1603 17.473L11.707 19.4438L10.098 19.009L10.5514 17.0382L12.1603 17.473ZM8.1337 11.6654L16.6192 13.9616L16.9923 12.3373L8.50685 10.0411L8.1337 11.6654ZM15.8652 17.2434L7.37891 14.9503L7.75258 13.3261L16.2389 15.6192L15.8652 17.2434Z" fill="black"/>
</svg>
