<svg width="25" height="24" viewBox="0 0 25 24" fill="none" xmlns="http://www.w3.org/2000/svg">
<path d="M12.2773 22H17.2773C20.2773 22 22.2773 20 22.2773 17V12C22.2773 9.3 20.5773 7.3 18.0773 7C17.8773 7 17.5773 7 17.2773 7H7.27734C6.97734 7 6.77734 6.99998 6.47734 7.09998C3.87734 7.39998 2.27734 9.3 2.27734 12C2.27734 12.3 2.27734 12.7 2.27734 13" stroke="black" stroke-width="1.5" stroke-linecap="round" stroke-linejoin="round"/>
<path d="M18.0765 7.0002C17.8765 7.0002 17.5765 7.0002 17.2765 7.0002H7.27656C6.97656 7.0002 6.77656 7.00017 6.47656 7.10017C6.57656 6.80017 6.77656 6.60018 7.07656 6.30018L10.2766 3.0002C11.6765 1.6002 13.8765 1.6002 15.2765 3.0002L17.0765 4.80018C17.6765 5.40018 17.9765 6.2002 18.0765 7.0002Z" stroke="black" stroke-width="1.5" stroke-linecap="round" stroke-linejoin="round"/>
<path d="M22.2773 12.5H19.2773C18.1773 12.5 17.2773 13.4 17.2773 14.5C17.2773 15.6 18.1773 16.5 19.2773 16.5H22.2773" stroke="black" stroke-width="1.5" stroke-linecap="round" stroke-linejoin="round"/>
<path d="M6.07891 21.4C7.84891 21.4 9.27891 19.97 9.27891 18.2C9.27891 16.43 7.84891 15 6.07891 15C4.30891 15 2.87891 16.43 2.87891 18.2C2.87891 19.97 4.30891 21.4 6.07891 21.4Z" stroke="black" stroke-width="1.5" stroke-linecap="round" stroke-linejoin="round"/>
<path d="M2.27734 22L3.27734 21" stroke="black" stroke-width="1.5" stroke-linecap="round" stroke-linejoin="round"/>
</svg>
