<svg width="25" height="24" viewBox="0 0 25 24" fill="none" xmlns="http://www.w3.org/2000/svg">
<path d="M16.2622 4.32251C18.0378 4.32251 19.5128 4.51778 20.4731 5.45923C21.4398 6.40701 21.6401 7.86816 21.6401 9.61353V10.4885C21.6398 10.9945 21.2292 11.4045 20.7231 11.4045C19.9812 11.4048 19.4097 11.9913 19.4097 12.675C19.4098 13.3587 19.9813 13.9453 20.7231 13.9456C21.2293 13.9456 21.6399 14.3555 21.6401 14.8616C21.6401 16.6068 21.4398 18.0681 20.4731 19.0159C19.5128 19.9572 18.0377 20.1526 16.2622 20.1526H7.33936C5.56413 20.1525 4.08967 19.957 3.12939 19.0159C2.16274 18.0681 1.96145 16.6068 1.96143 14.8616V14.425C1.96143 13.9189 2.37228 13.5082 2.87842 13.5081C3.62053 13.5081 4.19173 12.9213 4.19189 12.2375C4.19181 11.5537 3.62059 10.967 2.87842 10.967C2.37247 10.9669 1.96173 10.5569 1.96143 10.051V9.61353C1.96143 7.86833 2.16293 6.40702 3.12939 5.45923C4.08967 4.51818 5.56421 4.32255 7.33936 4.32251H16.2622ZM7.33936 6.15649C5.54666 6.15655 4.7906 6.3983 4.4126 6.7688C4.06629 7.10856 3.8318 7.7633 3.80127 9.27075C5.08045 9.65817 6.02581 10.8293 6.02588 12.2375C6.02575 13.6457 5.08036 14.8169 3.80127 15.2043C3.8318 16.7122 4.06615 17.3666 4.4126 17.7063C4.79056 18.0769 5.5465 18.3195 7.33936 18.3196H9.09912V17.4866C9.09912 16.9805 9.51006 16.5698 10.0161 16.5696C10.5224 16.5696 10.9331 16.9803 10.9331 17.4866V18.3196H16.2622C18.0548 18.3196 18.8108 18.0767 19.189 17.7063C19.5003 17.401 19.7205 16.8415 19.7847 15.637C18.5137 15.2446 17.5758 14.0773 17.5757 12.675C17.5757 11.2644 18.5246 10.0908 19.8071 9.70532V9.61353C19.8071 7.85982 19.5606 7.13318 19.189 6.7688C18.8109 6.39834 18.0551 6.1565 16.2622 6.15649H10.9331V6.9895C10.9327 7.49542 10.5221 7.90552 10.0161 7.90552C9.51031 7.90527 9.09953 7.49526 9.09912 6.9895V6.15649H7.33936ZM10.0161 9.57153C10.5224 9.57153 10.9331 9.98226 10.9331 10.4885V13.9875C10.9328 14.4935 10.5222 14.9036 10.0161 14.9036C9.51027 14.9033 9.09945 14.4934 9.09912 13.9875V10.4885C9.09912 9.98242 9.51006 9.57178 10.0161 9.57153Z" fill="black"/>
</svg>
