<svg width="26" height="25" viewBox="0 0 26 25" fill="none" xmlns="http://www.w3.org/2000/svg">
<path d="M13.1836 15.625C14.9095 15.625 16.3086 14.2259 16.3086 12.5C16.3086 10.7741 14.9095 9.375 13.1836 9.375C11.4577 9.375 10.0586 10.7741 10.0586 12.5C10.0586 14.2259 11.4577 15.625 13.1836 15.625Z" stroke="black" stroke-width="1.5625" stroke-miterlimit="10" stroke-linecap="round" stroke-linejoin="round"/>
<path d="M2.76562 13.4168V11.5835C2.76562 10.5002 3.65104 9.60432 4.74478 9.60432C6.63022 9.60432 7.40103 8.27098 6.45312 6.63557C5.91147 5.69807 6.23438 4.47932 7.18228 3.93767L8.98437 2.90641C9.80728 2.41682 10.8698 2.70849 11.3594 3.53142L11.474 3.72932C12.4115 5.36473 13.9531 5.36473 14.901 3.72932L15.0156 3.53142C15.5052 2.70849 16.5677 2.41682 17.3906 2.90641L19.1927 3.93767C20.1406 4.47932 20.4635 5.69807 19.9219 6.63557C18.974 8.27098 19.7448 9.60432 21.6302 9.60432C22.7135 9.60432 23.6094 10.4897 23.6094 11.5835V13.4168C23.6094 14.5002 22.724 15.396 21.6302 15.396C19.7448 15.396 18.974 16.7293 19.9219 18.3647C20.4635 19.3127 20.1406 20.521 19.1927 21.0627L17.3906 22.0939C16.5677 22.5835 15.5052 22.2918 15.0156 21.4689L14.901 21.271C13.9635 19.6356 12.4219 19.6356 11.474 21.271L11.3594 21.4689C10.8698 22.2918 9.80728 22.5835 8.98437 22.0939L7.18228 21.0627C6.23438 20.521 5.91147 19.3022 6.45312 18.3647C7.40103 16.7293 6.63022 15.396 4.74478 15.396C3.65104 15.396 2.76562 14.5002 2.76562 13.4168Z" stroke="black" stroke-width="1.5625" stroke-miterlimit="10" stroke-linecap="round" stroke-linejoin="round"/>
</svg>
