<svg width="25" height="24" viewBox="0 0 25 24" fill="none" xmlns="http://www.w3.org/2000/svg">
<path d="M20.7328 9.2214C18.9228 9.2214 18.1828 7.9414 19.0828 6.3714C19.6028 5.4614 19.2928 4.3014 18.3828 3.7814L16.6528 2.7914C15.8628 2.3214 14.8428 2.6014 14.3728 3.3914L14.2628 3.5814C13.3628 5.1514 11.8828 5.1514 10.9728 3.5814L10.8628 3.3914C10.4128 2.6014 9.39281 2.3214 8.60281 2.7914L6.87281 3.7814C5.96281 4.3014 5.65281 5.4714 6.17281 6.3814C7.08281 7.9414 6.34281 9.2214 4.53281 9.2214C3.49281 9.2214 2.63281 10.0714 2.63281 11.1214V12.8814C2.63281 13.9214 3.48281 14.7814 4.53281 14.7814C6.34281 14.7814 7.08281 16.0614 6.17281 17.6314C5.65281 18.5414 5.96281 19.7014 6.87281 20.2214L8.60281 21.2114C9.39281 21.6814 10.4128 21.4014 10.8828 20.6114L10.9928 20.4214C11.8928 18.8514 13.3728 18.8514 14.2828 20.4214L14.3928 20.6114C14.8628 21.4014 15.8828 21.6814 16.6728 21.2114L18.4028 20.2214C19.3128 19.7014 19.6228 18.5314 19.1028 17.6314C18.1928 16.0614 18.9328 14.7814 20.7428 14.7814C21.7828 14.7814 22.6428 13.9314 22.6428 12.8814V11.1214C22.6328 10.0814 21.7828 9.2214 20.7328 9.2214ZM12.6328 15.2514C10.8428 15.2514 9.38281 13.7914 9.38281 12.0014C9.38281 10.2114 10.8428 8.7514 12.6328 8.7514C14.4228 8.7514 15.8828 10.2114 15.8828 12.0014C15.8828 13.7914 14.4228 15.2514 12.6328 15.2514Z" fill="black"/>
</svg>
