<svg width="26" height="25" viewBox="0 0 26 25" fill="none" xmlns="http://www.w3.org/2000/svg">
<path d="M18.683 6.85449C20.2028 6.89303 21.423 8.13705 21.423 9.66614V20.1874L21.4221 20.2599C21.3842 21.7556 20.1787 22.9611 18.683 22.9991L18.6103 22.9999H6.33997L6.26746 22.9991C4.77174 22.9612 3.56621 21.7556 3.52832 20.2599L3.52734 20.1874V9.66614C3.52736 8.11279 4.78663 6.85357 6.33997 6.85352H8.80762V8.46814H6.33997C5.67837 8.46819 5.14198 9.00454 5.14197 9.66614V20.1874C5.14201 20.8489 5.67838 21.3853 6.33997 21.3853H18.6103C19.272 21.3853 19.8083 20.8489 19.8083 20.1874V9.66614C19.8083 9.00452 19.272 8.46814 18.6103 8.46814H16.1426V6.85352H18.6103L18.683 6.85449Z" fill="black"/>
<path d="M12.3555 14.9526L12.3556 2.87207" stroke="black" stroke-width="1.61465" stroke-linecap="round" stroke-linejoin="round"/>
<path d="M15.3464 4.86661L12.3549 1.875L9.36328 4.86661" stroke="black" stroke-width="1.61465" stroke-linecap="round" stroke-linejoin="round"/>
</svg>
