<svg width="25" height="24" viewBox="0 0 25 24" fill="none" xmlns="http://www.w3.org/2000/svg">
<path d="M17.7305 6.16992C19.7305 7.55992 21.1105 9.76992 21.3905 12.3199" stroke="black" stroke-width="1.5" stroke-linecap="round" stroke-linejoin="round"/>
<path d="M4.25781 12.3697C4.51781 9.82973 5.87781 7.61973 7.85781 6.21973" stroke="black" stroke-width="1.5" stroke-linecap="round" stroke-linejoin="round"/>
<path d="M8.95703 20.9395C10.117 21.5295 11.4371 21.8595 12.8271 21.8595C14.1671 21.8595 15.4271 21.5595 16.5571 21.0095" stroke="black" stroke-width="1.5" stroke-linecap="round" stroke-linejoin="round"/>
<path d="M12.8308 7.70062C14.3661 7.70062 15.6108 6.45597 15.6108 4.92062C15.6108 3.38527 14.3661 2.14062 12.8308 2.14062C11.2954 2.14062 10.0508 3.38527 10.0508 4.92062C10.0508 6.45597 11.2954 7.70062 12.8308 7.70062Z" stroke="black" stroke-width="1.5" stroke-linecap="round" stroke-linejoin="round"/>
<path d="M5.60031 19.9204C7.13566 19.9204 8.38031 18.6757 8.38031 17.1404C8.38031 15.605 7.13566 14.3604 5.60031 14.3604C4.06496 14.3604 2.82031 15.605 2.82031 17.1404C2.82031 18.6757 4.06496 19.9204 5.60031 19.9204Z" stroke="black" stroke-width="1.5" stroke-linecap="round" stroke-linejoin="round"/>
<path d="M19.9402 19.9204C21.4756 19.9204 22.7202 18.6757 22.7202 17.1404C22.7202 15.605 21.4756 14.3604 19.9402 14.3604C18.4049 14.3604 17.1602 15.605 17.1602 17.1404C17.1602 18.6757 18.4049 19.9204 19.9402 19.9204Z" stroke="black" stroke-width="1.5" stroke-linecap="round" stroke-linejoin="round"/>
</svg>
