<svg width="25" height="24" viewBox="0 0 25 24" fill="none" xmlns="http://www.w3.org/2000/svg">
<path d="M3.4768 2H12.3769C13.1169 2 13.7269 2.61001 13.7269 3.35001V4.82999C13.7269 5.36999 13.3869 6.04 13.0569 6.38L10.1568 8.94C9.75686 9.28 9.48681 9.94999 9.48681 10.49V13.39C9.48681 13.79 9.21683 14.33 8.87683 14.54L7.93682 15.15C7.05682 15.69 5.8468 15.08 5.8468 14V10.43C5.8468 9.95999 5.57682 9.35001 5.30682 9.01001L2.74682 6.31C2.40682 5.97 2.13684 5.36999 2.13684 4.95999V3.41C2.12684 2.61 2.7368 2 3.4768 2Z" stroke="black" stroke-width="1.5" stroke-miterlimit="10" stroke-linecap="round" stroke-linejoin="round"/>
<path d="M2.125 12.0002V15.0002C2.125 20.0002 4.125 22.0002 9.125 22.0002H15.125C20.125 22.0002 22.125 20.0002 22.125 15.0002V9.00024C22.125 5.88024 21.345 3.92024 19.535 2.90024C19.025 2.61024 18.005 2.39023 17.075 2.24023" stroke="black" stroke-width="1.5" stroke-linecap="round" stroke-linejoin="round"/>
<path d="M13.125 13H18.125" stroke="black" stroke-width="1.5" stroke-linecap="round" stroke-linejoin="round"/>
<path d="M11.125 17H18.125" stroke="black" stroke-width="1.5" stroke-linecap="round" stroke-linejoin="round"/>
</svg>
