<svg width="24" height="24" viewBox="0 0 24 24" fill="none" xmlns="http://www.w3.org/2000/svg">
<path d="M22 15.73L22 19.77C22 21.36 21.36 22 19.77 22L15.73 22C14.14 22 13.5 21.36 13.5 19.77L13.5 15.73C13.5 14.14 14.14 13.5 15.73 13.5L19.77 13.5C21.36 13.5 22 14.14 22 15.73Z" stroke="black" stroke-width="1.5" stroke-linecap="round" stroke-linejoin="round"/>
<path d="M10.5 15.48L10.5 20.02C10.5 21.43 9.86 22 8.27 22L4.23 22C2.64 22 2 21.43 2 20.02L2 15.49C2 14.07 2.64 13.51 4.23 13.51L8.27 13.51C9.86 13.5 10.5 14.07 10.5 15.48Z" stroke="black" stroke-width="1.5" stroke-linecap="round" stroke-linejoin="round"/>
<path d="M10.5 4.23L10.5 8.27C10.5 9.86 9.86 10.5 8.27 10.5L4.23 10.5C2.64 10.5 2 9.86 2 8.27L2 4.23C2 2.64 2.64 2 4.23 2L8.27 2C9.86 2 10.5 2.64 10.5 4.23Z" stroke="black" stroke-width="1.5" stroke-linecap="round" stroke-linejoin="round"/>
<path d="M14.5 6.5L20.5 6.5" stroke="black" stroke-width="1.5" stroke-linecap="round"/>
<path d="M17.5 3.5L17.5 9.5" stroke="black" stroke-width="1.5" stroke-linecap="round"/>
</svg>
