<svg width="24" height="24" viewBox="0 0 24 24" fill="none" xmlns="http://www.w3.org/2000/svg">
<path d="M20.5 7.25L18.25 7.25L18.25 9.5C18.25 9.91 17.91 10.25 17.5 10.25C17.09 10.25 16.75 9.91 16.75 9.5L16.75 7.25L14.5 7.25C14.09 7.25 13.75 6.91 13.75 6.5C13.75 6.09 14.09 5.75 14.5 5.75L16.75 5.75L16.75 3.5C16.75 3.09 17.09 2.75 17.5 2.75C17.91 2.75 18.25 3.09 18.25 3.5L18.25 5.75L20.5 5.75C20.91 5.75 21.25 6.09 21.25 6.5C21.25 6.91 20.91 7.25 20.5 7.25Z" fill="black"/>
<path d="M22 15.48L22 20.02C22 21.43 21.36 22 19.77 22L15.73 22C14.14 22 13.5 21.43 13.5 20.02L13.5 15.49C13.5 14.07 14.14 13.51 15.73 13.51L19.77 13.51C21.36 13.5 22 14.07 22 15.48Z" fill="black"/>
<path d="M10.5 15.48L10.5 20.02C10.5 21.43 9.86 22 8.27 22L4.23 22C2.64 22 2 21.43 2 20.02L2 15.49C2 14.07 2.64 13.51 4.23 13.51L8.27 13.51C9.86 13.5 10.5 14.07 10.5 15.48Z" fill="black"/>
<path d="M10.5 4.23L10.5 8.27C10.5 9.86 9.86 10.5 8.27 10.5L4.23 10.5C2.64 10.5 2 9.86 2 8.27L2 4.23C2 2.64 2.64 2 4.23 2L8.27 2C9.86 2 10.5 2.64 10.5 4.23Z" fill="black"/>
</svg>
