<svg width="25" height="24" viewBox="0 0 25 24" fill="none" xmlns="http://www.w3.org/2000/svg">
<path d="M12.5469 20.5H7.54688C4.54688 20.5 2.54688 19 2.54688 15.5V8.5C2.54688 5 4.54688 3.5 7.54688 3.5H17.5469C20.5469 3.5 22.5469 5 22.5469 8.5V11.5" stroke="black" stroke-width="1.5" stroke-miterlimit="10" stroke-linecap="round" stroke-linejoin="round"/>
<path d="M17.5469 9L14.4169 11.5C13.3869 12.32 11.6969 12.32 10.6669 11.5L7.54688 9" stroke="black" stroke-width="1.5" stroke-miterlimit="10" stroke-linecap="round" stroke-linejoin="round"/>
<path d="M19.7579 14.7703L16.2179 18.3103C16.0779 18.4503 15.9479 18.7103 15.9179 18.9003L15.7279 20.2503C15.6579 20.7403 15.9979 21.0803 16.4879 21.0103L17.8379 20.8203C18.0279 20.7903 18.2979 20.6603 18.4279 20.5203L21.9679 16.9803C22.5779 16.3703 22.8679 15.6603 21.9679 14.7603C21.0779 13.8703 20.3679 14.1603 19.7579 14.7703Z" stroke="black" stroke-width="1.5" stroke-miterlimit="10" stroke-linecap="round" stroke-linejoin="round"/>
<path d="M19.2461 15.2803C19.5461 16.3603 20.3861 17.2003 21.4661 17.5003" stroke="black" stroke-width="1.5" stroke-miterlimit="10" stroke-linecap="round" stroke-linejoin="round"/>
</svg>
