<svg width="24" height="24" viewBox="0 0 24 24" fill="none" xmlns="http://www.w3.org/2000/svg">
<path d="M22.3477 15.73L22.3477 19.77C22.3477 21.36 21.7077 22 20.1177 22L16.0777 22C14.4877 22 13.8477 21.36 13.8477 19.77L13.8477 15.73C13.8477 14.14 14.4877 13.5 16.0777 13.5L20.1177 13.5C21.7077 13.5 22.3477 14.14 22.3477 15.73Z" stroke="black" stroke-width="1.5" stroke-linecap="round" stroke-linejoin="round"/>
<path d="M10.5 15.48L10.5 20.02C10.5 21.43 9.86 22 8.27 22L4.23 22C2.64 22 2 21.43 2 20.02L2 15.49C2 14.07 2.64 13.51 4.23 13.51L8.27 13.51C9.86 13.5 10.5 14.07 10.5 15.48Z" stroke="black" stroke-width="1.5" stroke-linecap="round" stroke-linejoin="round"/>
<path d="M10.5 4.23L10.5 8.27C10.5 9.86 9.86 10.5 8.27 10.5L4.23 10.5C2.64 10.5 2 9.86 2 8.27L2 4.23C2 2.64 2.64 2 4.23 2L8.27 2C9.86 2 10.5 2.64 10.5 4.23Z" stroke="black" stroke-width="1.5" stroke-linecap="round" stroke-linejoin="round"/>
<path d="M17.7161 10.0583C19.9023 10.0583 21.6745 8.28606 21.6745 6.09994C21.6745 3.91381 19.9023 2.1416 17.7161 2.1416C15.53 2.1416 13.7578 3.91381 13.7578 6.09994C13.7578 8.28606 15.53 10.0583 17.7161 10.0583Z" stroke="black" stroke-width="1.66667" stroke-linecap="round" stroke-linejoin="round"/>
<path d="M22.0911 10.4749L21.2578 9.6416" stroke="black" stroke-width="1.66667" stroke-linecap="round" stroke-linejoin="round"/>
</svg>
