<svg width="25" height="24" viewBox="0 0 25 24" fill="none" xmlns="http://www.w3.org/2000/svg">
<path d="M18.7979 16.83L19.1879 19.99C19.2879 20.82 18.3979 21.4 17.6879 20.97L13.4979 18.48C13.0379 18.48 12.588 18.45 12.148 18.39C12.888 17.52 13.3279 16.42 13.3279 15.23C13.3279 12.39 10.8679 10.09 7.82798 10.09C6.66798 10.09 5.59798 10.42 4.70798 11C4.67798 10.75 4.66797 10.5 4.66797 10.24C4.66797 5.68999 8.61798 2 13.4979 2C18.3779 2 22.3279 5.68999 22.3279 10.24C22.3279 12.94 20.9379 15.33 18.7979 16.83Z" stroke="black" stroke-width="1.5" stroke-linecap="round" stroke-linejoin="round"/>
<path d="M13.3281 15.2298C13.3281 16.4198 12.8881 17.5198 12.1481 18.3898C11.1581 19.5898 9.58812 20.3598 7.82812 20.3598L5.21812 21.9098C4.77812 22.1798 4.21813 21.8098 4.27813 21.2998L4.52812 19.3298C3.18812 18.3998 2.32812 16.9098 2.32812 15.2298C2.32812 13.4698 3.26813 11.9198 4.70813 10.9998C5.59813 10.4198 6.66813 10.0898 7.82812 10.0898C10.8681 10.0898 13.3281 12.3898 13.3281 15.2298Z" stroke="black" stroke-width="1.5" stroke-linecap="round" stroke-linejoin="round"/>
</svg>
