<svg width="26" height="25" viewBox="0 0 26 25" fill="none" xmlns="http://www.w3.org/2000/svg">
<path d="M23.8189 3.27592C23.4439 2.95792 22.8549 2.91242 22.2459 3.15692H22.2449C21.6044 3.41392 4.1144 10.9159 3.4024 11.2224C3.2729 11.2674 2.1419 11.6894 2.2584 12.6294C2.3624 13.4769 3.2714 13.8279 3.3824 13.8684L7.8289 15.3909C8.1239 16.3729 9.2114 19.9959 9.4519 20.7699C9.6019 21.2524 9.8464 21.8864 10.2749 22.0169C10.6509 22.1619 11.0249 22.0294 11.2669 21.8394L13.9854 19.3179L18.3739 22.7404L18.4784 22.8029C18.7764 22.9349 19.0619 23.0009 19.3344 23.0009C19.5449 23.0009 19.7469 22.9614 19.9399 22.8824C20.5974 22.6124 20.8604 21.9859 20.8879 21.9149L24.1659 4.87642C24.3659 3.96642 24.0879 3.50342 23.8189 3.27592ZM11.7504 15.9999L10.2504 19.9999L8.7504 14.9999L20.2504 6.49992L11.7504 15.9999Z" fill="white"/>
</svg>
