<svg width="25" height="24" viewBox="0 0 25 24" fill="none" xmlns="http://www.w3.org/2000/svg">
<path d="M19.237 18.6694L17.097 14.3994L14.957 18.6694" stroke="black" stroke-width="1.5" stroke-linecap="round" stroke-linejoin="round"/>
<path d="M15.3438 17.9102H18.8637" stroke="black" stroke-width="1.5" stroke-linecap="round" stroke-linejoin="round"/>
<path d="M17.0956 21.9998C14.2956 21.9998 12.0156 19.7298 12.0156 16.9198C12.0156 14.1198 14.2856 11.8398 17.0956 11.8398C19.8956 11.8398 22.1756 14.1098 22.1756 16.9198C22.1756 19.7298 19.9056 21.9998 17.0956 21.9998Z" stroke="black" stroke-width="1.5" stroke-linecap="round" stroke-linejoin="round"/>
<path d="M5.19578 2H9.11578C11.1858 2 12.1858 3.00002 12.1358 5.02002V8.94C12.1858 11.01 11.1858 12.01 9.11578 11.96H5.19578C3.17578 12 2.17578 11 2.17578 8.92999V5.01001C2.17578 3.00001 3.17578 2 5.19578 2Z" stroke="black" stroke-width="1.5" stroke-linecap="round" stroke-linejoin="round"/>
<path d="M9.185 5.85059H5.125" stroke="black" stroke-width="1.5" stroke-linecap="round" stroke-linejoin="round"/>
<path d="M7.14453 5.16992V5.84991" stroke="black" stroke-width="1.5" stroke-linecap="round" stroke-linejoin="round"/>
<path d="M8.16329 5.83984C8.16329 7.58984 6.79328 9.00983 5.11328 9.00983" stroke="black" stroke-width="1.5" stroke-linecap="round" stroke-linejoin="round"/>
<path d="M9.18593 9.01001C8.45593 9.01001 7.79594 8.62 7.33594 8" stroke="black" stroke-width="1.5" stroke-linecap="round" stroke-linejoin="round"/>
<path d="M2.17578 15C2.17578 18.87 5.30578 22 9.17578 22L8.12578 20.25" stroke="black" stroke-width="1.5" stroke-linecap="round" stroke-linejoin="round"/>
<path d="M22.1758 9C22.1758 5.13 19.0458 2 15.1758 2L16.2258 3.75" stroke="black" stroke-width="1.5" stroke-linecap="round" stroke-linejoin="round"/>
</svg>
