<svg width="26" height="25" viewBox="0 0 26 25" fill="none" xmlns="http://www.w3.org/2000/svg">
<path d="M21.9898 6.38079C18.6472 6.04957 15.2846 5.87891 11.932 5.87891C9.94454 5.87891 7.95704 5.9793 5.96957 6.18007L3.92188 6.38079" stroke="black" stroke-width="1.50566" stroke-linecap="round" stroke-linejoin="round"/>
<path d="M9.44141 5.36695L9.66224 4.05201C9.82279 3.09842 9.94329 2.38574 11.6396 2.38574H14.2695C15.9659 2.38574 16.0964 3.13858 16.247 4.06204L16.4678 5.36695" stroke="black" stroke-width="1.50566" stroke-linecap="round" stroke-linejoin="round"/>
<path d="M19.8337 9.55273L19.1813 19.6607C19.0708 21.2366 18.9805 22.4612 16.18 22.4612H9.73574C6.93524 22.4612 6.8449 21.2366 6.73446 19.6607L6.08203 9.55273" stroke="black" stroke-width="1.50566" stroke-linecap="round" stroke-linejoin="round"/>
<path d="M11.2812 16.9404H14.6238" stroke="black" stroke-width="1.50566" stroke-linecap="round" stroke-linejoin="round"/>
<path d="M10.4453 12.9258H15.4641" stroke="black" stroke-width="1.50566" stroke-linecap="round" stroke-linejoin="round"/>
</svg>
