<svg width="25" height="24" viewBox="0 0 25 24" fill="none" xmlns="http://www.w3.org/2000/svg">
<g clip-path="url(#clip0_1946_11975)">
<path d="M24.2691 5.01004C23.3822 5.40379 22.4316 5.66816 21.4322 5.78816C22.4522 5.17691 23.2359 4.20941 23.6034 3.05816C22.6509 3.62254 21.5916 4.03316 20.4684 4.25441C19.5684 3.29441 18.2859 2.69629 16.8666 2.69629C14.1403 2.69629 11.9297 4.90504 11.9297 7.63129C11.9297 8.01754 11.9747 8.39441 12.0591 8.75629C7.95656 8.55004 4.32094 6.58504 1.88531 3.59816C1.45969 4.32941 1.21781 5.17691 1.21781 6.08066C1.21781 7.79254 2.08781 9.30379 3.41344 10.1907C2.60344 10.1644 1.84219 9.94129 1.17656 9.57191C1.17656 9.59254 1.17656 9.61316 1.17656 9.63379C1.17656 12.0263 2.87906 14.0194 5.13469 14.475C4.72219 14.5875 4.28531 14.6475 3.83531 14.6475C3.51656 14.6475 3.20719 14.6175 2.90531 14.5575C3.53531 16.5169 5.35781 17.9475 7.51594 17.9869C5.82844 19.3107 3.70031 20.0982 1.38656 20.0982C0.987188 20.0982 0.595313 20.0757 0.210938 20.0288C2.39344 21.4313 4.98844 22.2469 7.77656 22.2469C16.8553 22.2469 21.8203 14.7263 21.8203 8.20504C21.8203 7.99129 21.8147 7.77566 21.8072 7.56566C22.7709 6.87004 23.6072 6.00004 24.2691 5.01004Z" fill="black"/>
</g>
<defs>
<clipPath id="clip0_1946_11975">
<rect width="24" height="24" fill="white" transform="translate(0.242188)"/>
</clipPath>
</defs>
</svg>
