<svg width="25" height="24" viewBox="0 0 25 24" fill="none" xmlns="http://www.w3.org/2000/svg">
<path d="M4.85938 11.0194V15.9894C4.85938 17.8094 4.85938 17.8094 6.57938 18.9694L11.3094 21.6994C12.0194 22.1094 13.1794 22.1094 13.8894 21.6994L18.6194 18.9694C20.3394 17.8094 20.3394 17.8094 20.3394 15.9894V11.0194C20.3394 9.19945 20.3394 9.19945 18.6194 8.03945L13.8894 5.30945C13.1794 4.89945 12.0194 4.89945 11.3094 5.30945L6.57938 8.03945C4.85938 9.19945 4.85938 9.19945 4.85938 11.0194Z" stroke="black" stroke-width="1.5" stroke-linecap="round" stroke-linejoin="round"/>
<path d="M18.0977 7.63V5C18.0977 3 17.0977 2 15.0977 2H10.0977C8.09766 2 7.09766 3 7.09766 5V7.56" stroke="black" stroke-width="1.5" stroke-linecap="round" stroke-linejoin="round"/>
<path d="M13.2255 10.99L13.7955 11.88C13.8855 12.02 14.0855 12.16 14.2355 12.2L15.2555 12.46C15.8855 12.62 16.0555 13.16 15.6455 13.66L14.9755 14.47C14.8755 14.6 14.7955 14.83 14.8055 14.99L14.8655 16.04C14.9055 16.69 14.4455 17.02 13.8455 16.78L12.8655 16.39C12.7155 16.33 12.4655 16.33 12.3155 16.39L11.3355 16.78C10.7355 17.02 10.2755 16.68 10.3155 16.04L10.3755 14.99C10.3855 14.83 10.3055 14.59 10.2055 14.47L9.53548 13.66C9.12548 13.16 9.29548 12.62 9.92548 12.46L10.9455 12.2C11.1055 12.16 11.3055 12.01 11.3855 11.88L11.9555 10.99C12.3155 10.45 12.8755 10.45 13.2255 10.99Z" stroke="black" stroke-width="1.5" stroke-linecap="round" stroke-linejoin="round"/>
</svg>
