<svg width="25" height="24" viewBox="0 0 25 24" fill="none" xmlns="http://www.w3.org/2000/svg">
<path d="M21.9688 10.4405L20.9888 14.6205C20.1488 18.2305 18.4888 19.6905 15.3688 19.3905C14.8688 19.3505 14.3288 19.2605 13.7488 19.1205L12.0688 18.7205C7.89877 17.7305 6.60877 15.6705 7.58877 11.4905L8.56877 7.3005C8.76877 6.4505 9.00877 5.7105 9.30877 5.1005C10.4788 2.6805 12.4688 2.0305 15.8088 2.8205L17.4788 3.2105C21.6688 4.1905 22.9488 6.2605 21.9688 10.4405Z" stroke="black" stroke-width="1.5" stroke-linecap="round" stroke-linejoin="round"/>
<path d="M15.3669 19.3906C14.7469 19.8106 13.9669 20.1606 13.0169 20.4706L11.4369 20.9906C7.46698 22.2706 5.37698 21.2006 4.08698 17.2306L2.80698 13.2806C1.52698 9.31059 2.58698 7.21059 6.55698 5.93059L8.13698 5.41059C8.54698 5.28059 8.93698 5.17059 9.30698 5.10059C9.00698 5.71059 8.76698 6.45059 8.56698 7.30059L7.58698 11.4906C6.60698 15.6706 7.89698 17.7306 12.0669 18.7206L13.7469 19.1206C14.3269 19.2606 14.8669 19.3506 15.3669 19.3906Z" stroke="black" stroke-width="1.5" stroke-linecap="round" stroke-linejoin="round"/>
<path d="M12.9492 8.53027L17.7992 9.76027" stroke="black" stroke-width="1.5" stroke-linecap="round" stroke-linejoin="round"/>
<path d="M11.9688 12.3994L14.8687 13.1394" stroke="black" stroke-width="1.5" stroke-linecap="round" stroke-linejoin="round"/>
</svg>
