<svg width="25" height="24" viewBox="0 0 25 24" fill="none" xmlns="http://www.w3.org/2000/svg">
<path d="M13.6292 19.9589C13.904 20.0228 13.9291 20.3827 13.6615 20.4719L12.0815 20.9919C8.11151 22.2719 6.02151 21.2019 4.73151 17.2319L3.45151 13.2819C2.17151 9.31191 3.23151 7.21191 7.20151 5.93191L7.72551 5.75838C8.12837 5.62497 8.52044 6.02903 8.40604 6.4377C8.34934 6.64027 8.29479 6.85168 8.24151 7.07192L7.26151 11.2619C6.16151 15.9719 7.77151 18.5719 12.4815 19.6919L13.6292 19.9589Z" fill="black"/>
<path d="M18.1233 3.20854L16.4533 2.81854C13.1133 2.02854 11.1233 2.67854 9.95331 5.09854C9.6533 5.70854 9.41331 6.44854 9.21331 7.29854L8.2333 11.4885C7.2533 15.6685 8.5433 17.7285 12.7133 18.7185L14.3933 19.1185C14.9733 19.2585 15.5133 19.3485 16.0133 19.3885C19.1333 19.6885 20.7933 18.2285 21.6333 14.6185L22.6133 10.4385C23.5933 6.25854 22.3133 4.18854 18.1233 3.20854ZM16.2433 13.3285C16.1533 13.6685 15.8533 13.8885 15.5133 13.8885C15.4533 13.8885 15.3933 13.8785 15.3233 13.8685L12.4133 13.1285C12.0133 13.0285 11.7733 12.6185 11.8733 12.2185C11.9733 11.8185 12.3833 11.5785 12.7833 11.6785L15.6933 12.4185C16.1033 12.5185 16.3433 12.9285 16.2433 13.3285ZM19.1733 9.94854C19.0833 10.2885 18.7833 10.5085 18.4433 10.5085C18.3833 10.5085 18.3233 10.4985 18.2533 10.4885L13.4033 9.25854C13.0033 9.15854 12.7633 8.74854 12.8633 8.34854C12.9633 7.94854 13.3733 7.70854 13.7733 7.80854L18.6233 9.03854C19.0333 9.12854 19.2733 9.53854 19.1733 9.94854Z" fill="black"/>
</svg>
