<svg width="25" height="24" viewBox="0 0 25 24" fill="none" xmlns="http://www.w3.org/2000/svg">
<path d="M12.0195 15.5C14.2295 15.5 16.0195 13.71 16.0195 11.5V6C16.0195 3.79 14.2295 2 12.0195 2C9.80953 2 8.01953 3.79 8.01953 6V11.5C8.01953 13.71 9.80953 15.5 12.0195 15.5Z" stroke="black" stroke-width="1.5" stroke-linecap="round" stroke-linejoin="round"/>
<path d="M10.6289 6.43012C11.5289 6.10012 12.5089 6.10012 13.4089 6.43012" stroke="black" stroke-width="1.5" stroke-linecap="round" stroke-linejoin="round"/>
<path d="M11.2188 8.54934C11.7487 8.40934 12.2988 8.40934 12.8288 8.54934" stroke="black" stroke-width="1.5" stroke-linecap="round" stroke-linejoin="round"/>
<path d="M4.37109 9.65039V11.3504C4.37109 15.5704 7.80109 19.0004 12.0211 19.0004C16.2411 19.0004 19.6711 15.5704 19.6711 11.3504V9.65039" stroke="black" stroke-width="1.5" stroke-linecap="round" stroke-linejoin="round"/>
<path d="M12.0195 19V22" stroke="black" stroke-width="1.5" stroke-linecap="round" stroke-linejoin="round"/>
</svg>
