<svg width="24" height="24" viewBox="0 0 24 24" fill="none" xmlns="http://www.w3.org/2000/svg">
<path d="M14.6025 15.7072C14.0595 15.7068 13.5165 15.7068 12.9736 15.7062C12.9101 15.8665 12.8995 16.0012 12.9003 16.173C12.9004 16.2272 12.9002 16.2821 12.9003 16.338C12.9008 16.3974 12.9018 16.4575 12.9023 16.5187C12.9025 16.582 12.9021 16.6457 12.9023 16.7091C12.9027 16.8456 12.9034 16.9827 12.9042 17.1193C12.9054 17.3353 12.9066 17.5516 12.9071 17.7677C12.9087 18.3822 12.911 18.997 12.914 19.6115C12.9156 19.951 12.9163 20.2915 12.9169 20.631C12.9173 20.8454 12.9184 21.0601 12.9198 21.2745C12.9206 21.4083 12.9208 21.5431 12.9208 21.6769C12.921 21.7679 12.9219 21.8593 12.9228 21.9503C12.9222 22.3275 12.9002 22.5766 12.6591 22.8781C12.4774 23.0436 12.2643 23.1352 12.0165 23.1281C11.7906 23.0835 11.6473 22.9626 11.4853 22.8048C11.266 22.474 11.3023 22.0717 11.3046 21.6915C11.3046 21.6269 11.3047 21.5618 11.3046 21.4972C11.3046 21.3226 11.3059 21.1474 11.3066 20.9728C11.3072 20.79 11.3064 20.6067 11.3066 20.424C11.3069 20.0781 11.3085 19.7317 11.3095 19.3859C11.3106 18.9919 11.3109 18.5972 11.3114 18.2033C11.3125 17.3931 11.3141 16.5827 11.3163 15.7726C11.1637 15.7134 11.0372 15.6978 10.8739 15.6984C10.825 15.6984 10.7759 15.6984 10.7255 15.6984C10.6721 15.6987 10.6184 15.699 10.5634 15.6993C10.507 15.6994 10.4506 15.7002 10.3925 15.7003C10.2699 15.7006 10.147 15.7007 10.0243 15.7013C9.83019 15.7022 9.63547 15.7029 9.44132 15.7033C8.99414 15.704 8.54672 15.7047 8.09953 15.7062C7.68975 15.7075 7.27981 15.7094 6.87004 15.7101C6.67718 15.7104 6.48379 15.7111 6.29093 15.712C6.14286 15.7127 5.99467 15.7128 5.8466 15.713C5.79335 15.7134 5.73935 15.7136 5.68449 15.714H5.40715C5.09954 15.6941 4.89792 15.5952 4.68742 15.3751C4.45163 14.9707 4.53812 14.498 4.6464 14.0626C5.08547 12.4929 6.38453 11.2261 7.70597 10.3429C7.92303 10.1839 7.94429 10.1662 8.02824 9.97278L14.6025 15.7072ZM3.18351 3.45228C3.45158 3.15193 3.91477 3.12297 4.21867 3.38782L19.7519 16.9367C20.0556 17.2017 20.0844 17.6607 19.8163 17.9611C19.5482 18.2612 19.084 18.2904 18.7802 18.0255L3.24797 4.47571C2.94437 4.21068 2.91568 3.75263 3.18351 3.45228ZM11.3691 2.00208H15.0107C15.257 2.00192 15.5035 2.00234 15.7499 2.00306C15.8403 2.00324 15.931 2.00322 16.0214 2.00306C16.1449 2.00286 16.269 2.00346 16.3925 2.00403C16.4458 2.00374 16.4464 2.00434 16.5009 2.00403C16.8689 2.00717 17.0869 2.09182 17.3446 2.35267C17.3869 2.39439 17.4291 2.43663 17.4726 2.47962C17.6667 2.72132 17.6924 2.95532 17.6923 3.25892C17.6925 3.30885 17.6931 3.3097 17.6933 3.36048C17.6935 3.46964 17.6928 3.57944 17.6923 3.6886C17.6923 3.76469 17.6923 3.84103 17.6923 3.91712C17.6923 4.07671 17.6919 4.23702 17.6913 4.39661C17.6906 4.60096 17.6911 4.80555 17.6913 5.00989C17.6914 5.16735 17.6907 5.32509 17.6903 5.48255C17.6902 5.55788 17.6903 5.63378 17.6903 5.70911C17.6904 5.81417 17.6899 5.91948 17.6894 6.02454C17.6892 6.08429 17.6895 6.14463 17.6894 6.20618C17.6724 6.50616 17.561 6.64141 17.3476 6.84388C17.0573 7.07599 16.6071 6.99554 16.2548 6.98938C16.191 7.15158 16.1785 7.29315 16.1747 7.46692C16.1734 7.52278 16.1721 7.5793 16.1708 7.63685C16.167 7.89196 16.1641 8.14733 16.162 8.40247C16.1608 8.53706 16.1585 8.67221 16.1552 8.80677C16.1512 8.96969 16.149 9.13305 16.1484 9.29603C16.1475 9.38771 16.1443 9.47977 16.1415 9.57142C16.1375 9.87951 16.1381 9.88023 16.2724 10.1466C16.3729 10.2314 16.4747 10.3018 16.5868 10.3702C16.645 10.4158 16.6454 10.4164 16.705 10.463C16.7371 10.4872 16.7696 10.5114 16.8027 10.5363C18.0639 11.5005 19.3932 12.7496 19.6659 14.3956C19.7383 15.0374 19.7378 15.038 19.6025 15.3087C19.5726 15.3427 19.5413 15.3718 19.5126 15.4005L6.52726 4.07337C6.52689 3.93975 6.5271 3.80562 6.52726 3.672C6.52727 3.59766 6.5267 3.52271 6.52629 3.44837C6.52092 2.32212 6.52143 2.32175 6.99406 2.11145C7.23871 2.02664 7.45383 1.99782 7.71183 2.00013H10.0419C10.4843 2.00004 10.9267 2.00131 11.3691 2.00208Z" fill="black"/>
</svg>
