<svg width="25" height="24" viewBox="0 0 25 24" fill="none" xmlns="http://www.w3.org/2000/svg">
<path d="M12.7305 2C7.20762 2 2.73047 6.47715 2.73047 12C2.73047 17.5228 7.20762 22 12.7305 22C18.2533 22 22.7305 17.5228 22.7305 12C22.7305 6.47715 18.2533 2 12.7305 2Z" stroke="black" stroke-width="1.5" stroke-linecap="round" stroke-linejoin="round"/>
<path fill-rule="evenodd" clip-rule="evenodd" d="M2.73047 12C2.73047 6.47715 7.20762 2 12.7305 2C18.2533 2 22.7305 6.47715 22.7305 12C22.7305 17.5228 18.2533 22 12.7305 22C7.20762 22 2.73047 17.5228 2.73047 12ZM12.7305 16.25C12.3163 16.25 11.9805 15.9142 11.9805 15.5V10.3107L10.2608 12.0303C9.96791 12.3232 9.49303 12.3232 9.20014 12.0303C8.90725 11.7374 8.90725 11.2626 9.20014 10.9697L12.2002 7.96967C12.4931 7.67678 12.9679 7.67678 13.2608 7.96967L16.2608 10.9697C16.5537 11.2626 16.5537 11.7374 16.2608 12.0303C15.9679 12.3232 15.4931 12.3232 15.2002 12.0303L13.4805 10.3107V15.5C13.4805 15.9142 13.1447 16.25 12.7305 16.25Z" fill="black"/>
</svg>
