<svg width="25" height="24" viewBox="0 0 25 24" fill="none" xmlns="http://www.w3.org/2000/svg">
<path d="M12.6742 10.87C12.5742 10.86 12.4542 10.86 12.3442 10.87C9.96422 10.79 8.07422 8.83998 8.07422 6.43998C8.07422 3.99 10.0542 2 12.5142 2C14.9642 2 16.9542 3.99 16.9542 6.43998C16.9442 8.83998 15.0542 10.79 12.6742 10.87Z" stroke="black" stroke-width="1.5" stroke-linecap="round" stroke-linejoin="round"/>
<path d="M7.67438 14.56C5.25437 16.18 5.25437 18.82 7.67438 20.43C10.4244 22.27 14.9344 22.27 17.6844 20.43C20.1044 18.81 20.1044 16.17 17.6844 14.56C14.9444 12.73 10.4344 12.73 7.67438 14.56Z" stroke="black" stroke-width="1.5" stroke-linecap="round" stroke-linejoin="round"/>
</svg>
