<svg width="25" height="24" viewBox="0 0 25 24" fill="none" xmlns="http://www.w3.org/2000/svg">
<path d="M19.3008 19.5H15.3008" stroke="black" stroke-width="1.5" stroke-linecap="round" stroke-linejoin="round"/>
<path d="M17.3008 21.5V17.5" stroke="black" stroke-width="1.5" stroke-linecap="round" stroke-linejoin="round"/>
<path d="M12.9594 10.87C12.8594 10.86 12.7394 10.86 12.6294 10.87C10.2494 10.79 8.35941 8.84 8.35941 6.44C8.34941 3.99 10.3394 2 12.7894 2C15.2394 2 17.2294 3.99 17.2294 6.44C17.2294 8.84 15.3294 10.79 12.9594 10.87Z" stroke="black" stroke-width="1.5" stroke-linecap="round" stroke-linejoin="round"/>
<path d="M12.7899 21.8107C10.9699 21.8107 9.15984 21.3507 7.77984 20.4307C5.35984 18.8107 5.35984 16.1707 7.77984 14.5607C10.5298 12.7207 15.0399 12.7207 17.7899 14.5607" stroke="black" stroke-width="1.5" stroke-linecap="round" stroke-linejoin="round"/>
</svg>
