<svg width="25" height="24" viewBox="0 0 25 24" fill="none" xmlns="http://www.w3.org/2000/svg">
<path d="M14.8867 19.0503L16.4067 20.5703L19.4467 17.5303" stroke="black" stroke-width="1.5" stroke-linecap="round" stroke-linejoin="round"/>
<path d="M12.604 10.87C12.504 10.86 12.384 10.86 12.274 10.87C9.89394 10.79 8.00394 8.84 8.00394 6.44C7.99394 3.99 9.98394 2 12.434 2C14.884 2 16.874 3.99 16.874 6.44C16.874 8.84 14.974 10.79 12.604 10.87Z" stroke="black" stroke-width="1.5" stroke-linecap="round" stroke-linejoin="round"/>
<path d="M12.4344 21.8107C10.6144 21.8107 8.80438 21.3507 7.42438 20.4307C5.00437 18.8107 5.00437 16.1707 7.42438 14.5607C10.1744 12.7207 14.6844 12.7207 17.4344 14.5607" stroke="black" stroke-width="1.5" stroke-linecap="round" stroke-linejoin="round"/>
</svg>
