<svg width="25" height="24" viewBox="0 0 25 24" fill="none" xmlns="http://www.w3.org/2000/svg">
<path fill-rule="evenodd" clip-rule="evenodd" d="M13.3963 2.7638C12.9732 2.40965 12.2562 2.41491 11.8496 2.76253L10.2712 4.1112C10.0326 4.31726 9.72854 4.47349 9.44718 4.57803C9.16504 4.68287 8.83374 4.7625 8.52219 4.7625H6.79219C6.14641 4.7625 5.61219 5.29671 5.61219 5.9425V7.6625C5.61219 7.97454 5.53231 8.30333 5.4293 8.58161C5.32591 8.86092 5.17369 9.15824 4.97836 9.39264L4.97394 9.39794L3.62631 10.9851L3.62526 10.9863C3.28117 11.3971 3.28117 12.1079 3.62526 12.5187L3.62631 12.5199L4.97838 14.1123C5.17372 14.3467 5.32591 14.6441 5.4293 14.9234C5.53231 15.2017 5.61219 15.5305 5.61219 15.8425V17.5525C5.61219 18.1983 6.14641 18.7325 6.79219 18.7325H8.52219C8.83773 18.7325 9.16901 18.8116 9.45219 18.9174C9.73482 19.023 10.0353 19.1798 10.2721 19.3846L10.2734 19.3857L11.8482 20.7412C12.2709 21.095 12.987 21.0901 13.3937 20.7434L13.3948 20.7425L14.971 19.3857L14.9724 19.3845C15.2111 19.1781 15.5155 19.0216 15.7972 18.917C16.0794 18.8121 16.4107 18.7325 16.7222 18.7325H18.4222C19.068 18.7325 19.6022 18.1983 19.6022 17.5525V15.8525C19.6022 15.537 19.6813 15.2057 19.7871 14.9225C19.8927 14.6399 20.0494 14.3394 20.2542 14.1027L20.2554 14.1013L21.6109 12.5265C21.9647 12.1038 21.9598 11.3877 21.6131 10.981L21.6122 10.9799L20.2554 9.4037L20.2543 9.40242C20.0479 9.16374 19.8914 8.85922 19.7867 8.57749C19.6818 8.29535 19.6022 7.96404 19.6022 7.6525V5.9525C19.6022 5.30671 19.068 4.7725 18.4222 4.7725H16.7222C16.4067 4.7725 16.0754 4.69337 15.7922 4.58756C15.5096 4.48196 15.209 4.32518 14.9722 4.12031L14.971 4.11927L13.3963 2.7638ZM10.875 1.62229C11.8477 0.790799 13.3884 0.795427 14.3656 1.61903L14.3715 1.62404L15.9534 2.98573C16.0164 3.04035 16.1453 3.11822 16.3172 3.18244C16.489 3.24663 16.6377 3.2725 16.7222 3.2725H18.4222C19.8964 3.2725 21.1022 4.47829 21.1022 5.9525V7.6525C21.1022 7.73096 21.1276 7.87965 21.1927 8.05501C21.2579 8.23028 21.336 8.36017 21.389 8.4213L21.3906 8.42322L22.7522 10.0051C23.5839 10.9777 23.5793 12.5186 22.7557 13.4959L22.7507 13.5018L21.3906 15.0818L21.389 15.0837C21.3344 15.1467 21.2565 15.2756 21.1923 15.4475C21.1281 15.6193 21.1022 15.768 21.1022 15.8525V17.5525C21.1022 19.0267 19.8964 20.2325 18.4222 20.2325H16.7222C16.6437 20.2325 16.4951 20.2579 16.3197 20.323C16.1444 20.3882 16.0145 20.4663 15.9534 20.5193L15.9515 20.5209L14.3715 21.8809L14.3696 21.8825C13.397 22.7142 11.8561 22.7096 10.8789 21.886L10.8729 21.881L9.29292 20.5209L9.291 20.5193C9.22798 20.4647 9.09906 20.3868 8.9272 20.3226C8.75538 20.2584 8.60666 20.2325 8.52219 20.2325H6.79219C5.31798 20.2325 4.11219 19.0267 4.11219 17.5525V15.8425C4.11219 15.7645 4.08708 15.6183 4.02259 15.4441C3.95913 15.2727 3.88228 15.1409 3.82771 15.0747L2.47807 13.4851C1.66356 12.5161 1.66356 10.9889 2.47808 10.0199L2.48047 10.0171L3.8277 8.43034C3.88227 8.36407 3.95913 8.23232 4.02259 8.06089C4.08708 7.88667 4.11219 7.74046 4.11219 7.6625V5.9425C4.11219 4.46829 5.31798 3.2625 6.79219 3.2625H8.52219C8.60065 3.2625 8.74934 3.23713 8.92471 3.17197C9.09997 3.10684 9.22987 3.02871 9.291 2.97573L9.29498 2.97228L10.875 1.62229V1.62229Z" fill="#EE7700"/>
<path fill-rule="evenodd" clip-rule="evenodd" d="M13.8822 2.1925C13.1822 1.6025 12.0522 1.6025 11.3622 2.1925L9.78219 3.5425C9.48219 3.8025 8.91219 4.0125 8.52219 4.0125H6.79219C5.73219 4.0125 4.86219 4.8825 4.86219 5.9425V7.6625C4.86219 8.0525 4.65219 8.6125 4.40219 8.9125L3.05219 10.5025C2.47219 11.1925 2.47219 12.3125 3.05219 13.0025L4.40219 14.5925C4.65219 14.8925 4.86219 15.4525 4.86219 15.8425V17.5525C4.86219 18.6125 5.73219 19.4825 6.79219 19.4825H8.52219C8.92219 19.4825 9.48219 19.6925 9.78219 19.9525L11.3622 21.3125C12.0622 21.9025 13.1922 21.9025 13.8822 21.3125L15.4622 19.9525C15.7622 19.6925 16.3322 19.4825 16.7222 19.4825H18.4222C19.4822 19.4825 20.3522 18.6125 20.3522 17.5525V15.8525C20.3522 15.4525 20.5622 14.8925 20.8222 14.5925L22.1822 13.0125C22.7722 12.3125 22.7722 11.1825 22.1822 10.4925L20.8222 8.9125C20.5622 8.6125 20.3522 8.0425 20.3522 7.6525V5.9525C20.3522 4.8925 19.4822 4.0225 18.4222 4.0225H16.7222C16.3222 4.0225 15.7622 3.8125 15.4622 3.5525L13.8822 2.1925ZM16.7631 9.85254C17.0557 9.55934 17.0552 9.08447 16.762 8.79188C16.4688 8.49929 15.9939 8.49978 15.7013 8.79297L11.4028 13.1004L9.52362 11.2135C9.23133 10.92 8.75646 10.919 8.46296 11.2113C8.16946 11.5036 8.16848 11.9785 8.46076 12.272L10.8708 14.692C11.0114 14.8332 11.2025 14.9127 11.4018 14.9128C11.6011 14.9129 11.7923 14.8336 11.9331 14.6925L16.7631 9.85254Z" fill="#EE7700"/>
</svg>
