<svg width="25" height="24" viewBox="0 0 25 24" fill="none" xmlns="http://www.w3.org/2000/svg">
<path d="M13.1745 20.4201H6.85453C3.69453 20.4201 2.64453 18.3201 2.64453 16.2101V7.79008C2.64453 4.63008 3.69453 3.58008 6.85453 3.58008H13.1745C16.3345 3.58008 17.3845 4.63008 17.3845 7.79008V16.2101C17.3845 19.3701 16.3245 20.4201 13.1745 20.4201Z" stroke="black" stroke-width="1.5" stroke-linecap="round" stroke-linejoin="round"/>
<path d="M20.1628 17.1001L17.3828 15.1501V8.84013L20.1628 6.89013C21.5228 5.94013 22.6428 6.52013 22.6428 8.19013V15.8101C22.6428 17.4801 21.5228 18.0601 20.1628 17.1001Z" stroke="black" stroke-width="1.5" stroke-linecap="round" stroke-linejoin="round"/>
<path d="M12.1445 11C12.9729 11 13.6445 10.3284 13.6445 9.5C13.6445 8.67157 12.9729 8 12.1445 8C11.3161 8 10.6445 8.67157 10.6445 9.5C10.6445 10.3284 11.3161 11 12.1445 11Z" stroke="black" stroke-width="1.5" stroke-linecap="round" stroke-linejoin="round"/>
</svg>
