<svg width="25" height="24" viewBox="0 0 25 24" fill="none" xmlns="http://www.w3.org/2000/svg">
<path d="M20.0039 19.0707C23.9139 15.1607 23.9139 8.83066 20.0039 4.93066" stroke="black" stroke-width="1.5" stroke-linecap="round" stroke-linejoin="round"/>
<path d="M5.86609 4.93066C1.95609 8.84066 1.95609 15.1707 5.86609 19.0707" stroke="black" stroke-width="1.5" stroke-linecap="round" stroke-linejoin="round"/>
<path d="M9.63281 21.4102C10.7028 21.7802 11.8128 21.9602 12.9328 21.9602C14.0528 21.9502 15.1628 21.7802 16.2328 21.4102" stroke="black" stroke-width="1.5" stroke-linecap="round" stroke-linejoin="round"/>
<path d="M9.63281 2.59009C10.7028 2.22009 11.8128 2.04004 12.9328 2.04004C14.0528 2.04004 15.1628 2.22009 16.2328 2.59009" stroke="black" stroke-width="1.5" stroke-linecap="round" stroke-linejoin="round"/>
<path d="M9.67188 12.0001V10.3302C9.67188 8.25016 11.1419 7.40014 12.9419 8.44014L14.3918 9.28017L15.8418 10.1201C17.6418 11.1601 17.6418 12.8602 15.8418 13.9002L14.3918 14.7401L12.9419 15.5802C11.1419 16.6202 9.67188 15.7701 9.67188 13.6901V12.0001Z" stroke="black" stroke-width="1.5" stroke-miterlimit="10" stroke-linecap="round" stroke-linejoin="round"/>
</svg>
