<svg width="25" height="24" viewBox="0 0 25 24" fill="none" xmlns="http://www.w3.org/2000/svg">
<path d="M22.5781 15V9C22.5781 4 20.5781 2 15.5781 2H9.57812C4.57812 2 2.57812 4 2.57812 9V15C2.57812 20 4.57812 22 9.57812 22H15.5781C20.5781 22 22.5781 20 22.5781 15Z" stroke="black" stroke-width="1.5" stroke-linecap="round" stroke-linejoin="round"/>
<path d="M3.09766 7.10938H22.0576" stroke="black" stroke-width="1.5" stroke-linecap="round" stroke-linejoin="round"/>
<path d="M9.09766 2.10938V6.96938" stroke="black" stroke-width="1.5" stroke-linecap="round" stroke-linejoin="round"/>
<path d="M16.0586 2.10938V6.51937" stroke="black" stroke-width="1.5" stroke-linecap="round" stroke-linejoin="round"/>
<path d="M10.3281 14.4501V13.2501C10.3281 11.7101 11.4181 11.0801 12.7481 11.8501L13.7881 12.4501L14.8281 13.0501C16.1581 13.8201 16.1581 15.0801 14.8281 15.8501L13.7881 16.4501L12.7481 17.0501C11.4181 17.8201 10.3281 17.1901 10.3281 15.6501V14.4501Z" stroke="black" stroke-width="1.5" stroke-miterlimit="10" stroke-linecap="round" stroke-linejoin="round"/>
</svg>
