<svg width="25" height="24" viewBox="0 0 25 24" fill="none" xmlns="http://www.w3.org/2000/svg">
<path d="M21.3731 8.58003V15.42C21.3731 16.54 20.7732 17.58 19.8032 18.15L13.8632 21.58C12.8932 22.14 11.6932 22.14 10.7132 21.58L4.77313 18.15C3.80313 17.59 3.20312 16.55 3.20312 15.42V8.58003C3.20312 7.46003 3.80313 6.41999 4.77313 5.84999L10.7132 2.42C11.6832 1.86 12.8832 1.86 13.8632 2.42L19.8032 5.84999C20.7732 6.41999 21.3731 7.45003 21.3731 8.58003Z" stroke="black" stroke-width="1.5" stroke-linecap="round" stroke-linejoin="round"/>
<path d="M10.043 11.9999V10.7999C10.043 9.25989 11.133 8.62993 12.463 9.39993L13.503 9.9999L14.543 10.5999C15.873 11.3699 15.873 12.6299 14.543 13.3999L13.503 13.9999L12.463 14.5999C11.133 15.3699 10.043 14.7399 10.043 13.1999V11.9999Z" stroke="black" stroke-width="1.5" stroke-miterlimit="10" stroke-linecap="round" stroke-linejoin="round"/>
</svg>
