<svg width="25" height="24" viewBox="0 0 25 24" fill="none" xmlns="http://www.w3.org/2000/svg">
<path d="M19.7306 5.85L13.7906 2.42C12.8206 1.86 11.6206 1.86 10.6406 2.42L4.71063 5.85C3.74063 6.41 3.14062 7.45 3.14062 8.58V15.42C3.14062 16.54 3.74063 17.58 4.71063 18.15L10.6506 21.58C11.6206 22.14 12.8206 22.14 13.8006 21.58L19.7406 18.15C20.7106 17.59 21.3106 16.55 21.3106 15.42V8.58C21.3006 7.45 20.7006 6.42 19.7306 5.85ZM14.4706 13.4L13.4306 14L12.3906 14.6C11.0606 15.37 9.97062 14.74 9.97062 13.2V12V10.8C9.97062 9.26 11.0606 8.63 12.3906 9.4L13.4306 10L14.4706 10.6C15.8006 11.37 15.8006 12.63 14.4706 13.4Z" fill="black"/>
</svg>
