<svg width="24" height="24" viewBox="0 0 24 24" fill="none" xmlns="http://www.w3.org/2000/svg">
<path d="M15.5858 12.0019C15.5858 13.9819 13.9858 15.5819 12.0058 15.5819C10.0258 15.5819 8.42578 13.9819 8.42578 12.0019C8.42578 10.0219 10.0258 8.42188 12.0058 8.42188C13.9858 8.42188 15.5858 10.0219 15.5858 12.0019Z" stroke="black" stroke-width="1.44" stroke-linecap="round" stroke-linejoin="round"/>
<path d="M12.0037 20.2688C15.5338 20.2688 18.8238 18.1888 21.1138 14.5888C22.0138 13.1788 22.0138 10.8088 21.1138 9.39877C18.8238 5.79877 15.5338 3.71875 12.0037 3.71875C8.47376 3.71875 5.18375 5.79877 2.89375 9.39877C1.99375 10.8088 1.99375 13.1788 2.89375 14.5888C5.18375 18.1888 8.47376 20.2688 12.0037 20.2688Z" stroke="black" stroke-width="1.44" stroke-linecap="round" stroke-linejoin="round"/>
</svg>
