<svg width="25" height="24" viewBox="0 0 25 24" fill="none" xmlns="http://www.w3.org/2000/svg">
<path d="M22.7151 12.6216V14.6816C22.7151 15.2416 22.2551 15.7016 21.6851 15.7016H19.7551C18.6751 15.7016 17.6851 14.9116 17.5951 13.8316C17.5351 13.2016 17.7751 12.6116 18.1951 12.2016C18.5651 11.8216 19.0751 11.6016 19.6351 11.6016H21.6851C22.2551 11.6016 22.7151 12.0616 22.7151 12.6216Z" fill="black"/>
<path d="M16.0948 13.9584C16.0048 12.9084 16.3848 11.8784 17.1448 11.1284C17.7848 10.4784 18.6748 10.0984 19.6348 10.0984H20.2048C20.4848 10.0984 20.7148 9.86844 20.6748 9.58844C20.4048 7.64844 18.7248 6.14844 16.7148 6.14844H6.71484C4.50484 6.14844 2.71484 7.93844 2.71484 10.1484V17.1484C2.71484 19.3584 4.50484 21.1484 6.71484 21.1484H16.7148C18.7348 21.1484 20.4048 19.6484 20.6748 17.7084C20.7148 17.4284 20.4848 17.1984 20.2048 17.1984H19.7548C17.8548 17.1984 16.2548 15.7784 16.0948 13.9584ZM13.7148 11.8984H7.71484C7.30484 11.8984 6.96484 11.5684 6.96484 11.1484C6.96484 10.7284 7.30484 10.3984 7.71484 10.3984H13.7148C14.1248 10.3984 14.4648 10.7384 14.4648 11.1484C14.4648 11.5584 14.1248 11.8984 13.7148 11.8984Z" fill="black"/>
<path d="M14.9254 3.98156C15.1854 4.25156 14.9554 4.65156 14.5754 4.65156H6.74548C5.65548 4.65156 4.63548 4.97156 3.78548 5.52156C3.39548 5.77156 2.86548 5.50156 3.05548 5.07156C3.61548 3.76156 4.92548 2.85156 6.43548 2.85156H12.0554C13.2154 2.85156 14.2454 3.26156 14.9254 3.98156Z" fill="black"/>
</svg>
