<svg width="25" height="24" viewBox="0 0 25 24" fill="none" xmlns="http://www.w3.org/2000/svg">
<path d="M13.0703 11.1494H7.07031" stroke="black" stroke-width="1.5" stroke-linecap="round" stroke-linejoin="round"/>
<path d="M2.07031 11.1498V6.52985C2.07031 4.48985 3.72031 2.83984 5.76031 2.83984H11.3803C13.4203 2.83984 15.0703 4.10984 15.0703 6.14984" stroke="black" stroke-width="1.5" stroke-linecap="round" stroke-linejoin="round"/>
<path d="M17.5503 12.1994C17.0503 12.6794 16.8103 13.4194 17.0103 14.1794C17.2603 15.1094 18.1803 15.6994 19.1403 15.6994H20.0703V17.1494C20.0703 19.3594 18.2803 21.1494 16.0703 21.1494H6.07031C3.86031 21.1494 2.07031 19.3594 2.07031 17.1494V10.1494C2.07031 7.93941 3.86031 6.14941 6.07031 6.14941H16.0703C18.2703 6.14941 20.0703 7.94941 20.0703 10.1494V11.5994H18.9903C18.4303 11.5994 17.9203 11.8194 17.5503 12.1994Z" stroke="black" stroke-width="1.5" stroke-linecap="round" stroke-linejoin="round"/>
<path d="M22.0705 12.6206V14.6806C22.0705 15.2406 21.6105 15.7006 21.0405 15.7006H19.1105C18.0305 15.7006 17.0405 14.9106 16.9505 13.8306C16.8905 13.2006 17.1305 12.6106 17.5505 12.2006C17.9205 11.8206 18.4305 11.6006 18.9905 11.6006H21.0405C21.6105 11.6006 22.0705 12.0606 22.0705 12.6206Z" stroke="black" stroke-width="1.5" stroke-linecap="round" stroke-linejoin="round"/>
</svg>
