<svg width="25" height="24" viewBox="0 0 25 24" fill="none" xmlns="http://www.w3.org/2000/svg">
<path d="M22.0187 6.54075C21.8915 6.00075 21.4858 5.56762 20.9439 5.39587C19.508 4.94025 16.3929 4.5 12.8477 4.5C9.30241 4.5 6.18728 4.94025 4.75103 5.39587C4.20916 5.56762 3.80341 6.00075 3.67628 6.54075C3.43628 7.56037 3.09766 9.45113 3.09766 12C3.09766 14.5489 3.43628 16.4396 3.67666 17.4592C3.80378 17.9992 4.20953 18.4324 4.75141 18.6041C6.18728 19.0598 9.30241 19.5 12.8477 19.5C16.3929 19.5 19.508 19.0598 20.9443 18.6041C21.4862 18.4324 21.8919 17.9992 22.019 17.4592C22.259 16.4396 22.5977 14.5489 22.5977 12C22.5977 9.45113 22.259 7.56037 22.0187 6.54075ZM10.9727 15V9L16.544 12L10.9727 15Z" fill="white"/>
</svg>
